<svg width="2389" height="572" viewBox="0 0 2389 572" fill="none" xmlns="http://www.w3.org/2000/svg">
<g clip-path="url(#clip0)">
<rect width="2389" height="572" fill="white"/>
<path d="M203.85 460.395C198.97 460.395 196.53 453.89 196.53 440.826V118.231C196.53 111.997 195.283 109.07 192.734 109.449C177.335 113.352 169.58 115.303 169.364 115.303C165.08 115.683 162.965 111.4 162.965 102.456V74.4302C162.965 66.6784 165.297 62.2875 169.96 61.3117L247.067 41.4714C247.664 41.3088 248.531 41.2003 249.67 41.2003C253.954 41.2003 256.069 45.7539 256.069 54.9151V440.88C256.069 453.945 253.52 460.45 248.477 460.45L203.85 460.395V460.395ZM403.559 460.992C395.751 460.992 389.027 460.45 383.279 459.365C377.532 458.281 371.567 455.842 365.331 452.047C359.095 448.253 353.998 443.049 349.986 436.435C345.973 429.822 342.719 420.552 340.225 408.68C337.731 396.809 336.429 382.715 336.429 366.344V216.619C336.429 212.716 335.345 210.765 333.23 210.765H315.119C310.239 210.765 307.799 206.103 307.799 196.779V181.004C307.799 171.464 310.239 166.693 315.119 166.693H333.23C335.345 166.693 336.429 164.091 336.429 158.833L341.689 45.266C342.286 34.9663 344.78 29.8165 349.281 29.8165H378.508C383.388 29.8165 385.828 34.9663 385.828 45.266V158.833C385.828 164.091 386.967 166.693 389.353 166.693H426.605C431.485 166.693 433.925 171.464 433.925 181.004V196.779C433.925 206.103 431.485 210.765 426.605 210.765H389.244C387.889 210.765 386.967 211.09 386.479 211.795C385.991 212.445 385.774 214.072 385.774 216.619V367.265C385.774 378.54 386.479 387.973 387.943 395.454C389.407 402.934 391.522 408.464 394.341 411.933C397.161 415.402 399.981 417.787 402.8 418.926C405.62 420.118 409.09 420.661 413.157 420.661H433.871C439.131 420.661 441.734 424.292 441.734 431.448V448.957C441.734 456.926 438.914 460.938 433.274 460.938L403.559 460.992V460.992ZM515.642 496.011C520.088 496.011 523.992 492.379 527.3 485.06C530.608 477.742 532.289 467.388 532.289 453.945C532.289 450.801 530.336 440.013 526.432 421.528L469.171 183.606C468.792 180.896 468.575 178.728 468.575 177.155C468.575 170.163 470.039 166.639 472.967 166.639H508.321C511.032 166.639 513.256 167.561 515.045 169.404C516.834 171.247 518.19 174.987 519.112 180.625L557.069 381.468C557.828 383.799 558.316 384.991 558.533 384.991C559.292 384.991 559.726 383.907 559.726 381.793L589.495 181.492C590.255 175.638 591.502 171.735 593.128 169.675C594.755 167.615 596.87 166.585 599.418 166.585H623.928C627.236 166.585 628.917 170.379 628.917 177.969C628.917 179.703 628.7 181.98 628.32 184.691L576.319 455.354C572.252 477.742 567.751 494.872 562.871 506.744C557.991 518.615 552.568 526.693 546.495 530.975C540.476 535.258 532.505 537.48 522.528 537.697H519.6C503.821 537.697 493.138 533.523 487.499 525.121C485.927 523.386 485.167 518.887 485.167 511.677C485.167 497.257 487.499 490.048 492.162 490.048C492.542 490.048 496.067 491.023 502.682 492.975C509.406 495.035 513.689 496.011 515.642 496.011V496.011Z" fill="black" stroke="black" stroke-width="28" stroke-miterlimit="10"/>
<path d="M56.9019 460.938C52.0217 460.938 49.5816 454.433 49.5816 441.368V118.773C49.5816 112.539 48.3344 109.612 45.7859 109.991C30.3861 113.894 22.632 115.846 22.4151 115.846C18.1314 116.225 16.0166 111.943 16.0166 102.998V74.9723C16.0166 67.2205 18.3483 62.8296 23.0116 61.8538L100.173 41.9593C100.77 41.7966 101.637 41.6882 102.776 41.6882C107.06 41.6882 109.174 46.2417 109.174 55.403V441.368C109.174 454.433 106.626 460.938 101.583 460.938H56.9019V460.938Z" fill="black" stroke="black" stroke-width="28" stroke-miterlimit="10"/>
<path d="M1028.67 312.676H903.199C904.064 353.203 922.652 373.467 958.965 373.467C980.039 373.467 1000.03 369.36 1018.95 361.146V387.084C1001.01 395.189 981.336 399.242 959.938 399.242C933.46 399.242 912.277 391.191 896.391 375.088C880.504 358.877 872.561 336.614 872.561 308.299C872.561 279.551 879.855 256.802 894.445 240.051C909.143 223.191 928.758 214.762 953.291 214.762C976.202 214.762 994.467 222.003 1008.08 236.484C1021.81 250.966 1028.67 270.257 1028.67 294.357V312.676ZM903.848 288.684H996.736C996.736 255.721 982.038 239.24 952.643 239.24C922.923 239.24 906.658 255.721 903.848 288.684ZM1128.34 166.939L1084.89 163.535V143.758H1158V372.818L1215.07 376.061V396H1072.57V376.061L1128.34 372.818V166.939ZM1410.86 312.676H1285.39C1286.25 353.203 1304.84 373.467 1341.15 373.467C1362.23 373.467 1382.22 369.36 1401.13 361.146V387.084C1383.19 395.189 1363.52 399.242 1342.13 399.242C1315.65 399.242 1294.47 391.191 1278.58 375.088C1262.69 358.877 1254.75 336.614 1254.75 308.299C1254.75 279.551 1262.04 256.802 1276.63 240.051C1291.33 223.191 1310.95 214.762 1335.48 214.762C1358.39 214.762 1376.66 222.003 1390.27 236.484C1404 250.966 1410.86 270.257 1410.86 294.357V312.676ZM1286.04 288.684H1378.93C1378.93 255.721 1364.23 239.24 1334.83 239.24C1305.11 239.24 1288.85 255.721 1286.04 288.684ZM1505.01 396L1437.58 218.004H1468.05L1506.96 323.699C1516.15 348.664 1521.55 366.226 1523.17 376.385H1524.14C1524.9 371.63 1530.36 354.068 1540.52 323.699L1579.26 218.004H1609.9L1542.46 396H1505.01ZM1793.05 312.676H1667.58C1668.44 353.203 1687.03 373.467 1723.34 373.467C1744.42 373.467 1764.41 369.36 1783.32 361.146V387.084C1765.38 395.189 1745.71 399.242 1724.32 399.242C1697.84 399.242 1676.66 391.191 1660.77 375.088C1644.88 358.877 1636.94 336.614 1636.94 308.299C1636.94 279.551 1644.23 256.802 1658.82 240.051C1673.52 223.191 1693.14 214.762 1717.67 214.762C1740.58 214.762 1758.84 222.003 1772.46 236.484C1786.19 250.966 1793.05 270.257 1793.05 294.357V312.676ZM1668.23 288.684H1761.11C1761.11 255.721 1746.42 239.24 1717.02 239.24C1687.3 239.24 1671.04 255.721 1668.23 288.684ZM1950.26 396V281.389C1950.26 253.29 1937.4 239.24 1911.68 239.24C1878.5 239.24 1861.91 260.747 1861.91 303.76V396H1832.41V218.004H1856.24L1860.62 241.996H1862.24C1873.37 223.84 1891.53 214.762 1916.71 214.762C1958.75 214.762 1979.77 236.43 1979.77 279.768V396H1950.26ZM2162.92 371.684V394.055C2148.87 397.513 2135.25 399.242 2122.07 399.242C2082.94 399.242 2063.38 380.654 2063.38 343.477V240.213H2020.1V224.975L2063.38 217.031L2075.87 170.506H2092.89V218.004H2163.89V240.213H2092.89V343.477C2092.89 364.551 2103.26 375.088 2124.01 375.088C2134.06 375.088 2147.03 373.953 2162.92 371.684ZM2201.95 218.004H2232.43L2274.9 324.023C2283.77 346.178 2288.58 361.849 2289.33 371.035H2290.3C2292.79 358.931 2297.65 343.152 2304.89 323.699L2343.64 218.004H2374.28L2297.28 419.182C2290.03 437.986 2281.6 452.09 2271.99 461.492C2262.37 471.003 2249.07 475.758 2232.11 475.758C2222.81 475.758 2213.73 474.839 2204.87 473.002V449.496C2211.57 450.793 2218.92 451.441 2226.92 451.441C2237.29 451.441 2245.35 449.226 2251.07 444.795C2256.91 440.364 2262.1 432.745 2266.64 421.938L2276.04 397.621L2201.95 218.004Z" fill="#606060"/>
</g>
<defs>
<clipPath id="clip0">
<rect width="2389" height="572" fill="white"/>
</clipPath>
</defs>
</svg>
