<svg width="200" height="200" viewBox="0 0 200 200" fill="none" xmlns="http://www.w3.org/2000/svg">
<path d="M33.3333 95.8333C18.4 95.8333 6.25 83.6833 6.25 68.75C6.25 53.8167 18.4 41.6667 33.3333 41.6667C48.2667 41.6667 60.4167 53.8167 60.4167 68.75C60.4167 83.6833 48.2667 95.8333 33.3333 95.8333ZM33.3333 50C22.9917 50 14.5833 58.4083 14.5833 68.75C14.5833 79.0917 22.9917 87.5 33.3333 87.5C43.675 87.5 52.0833 79.0917 52.0833 68.75C52.0833 58.4083 43.675 50 33.3333 50ZM20.8333 200C18.6833 200 16.8583 198.325 16.6833 196.183L13.525 158.333H4.16667C1.86667 158.333 0 156.467 0 154.167V129.167C0 110.783 14.95 95.8333 33.3333 95.8333C51.7167 95.8333 66.6667 110.783 66.6667 129.167V154.167C66.6667 156.467 64.8 158.333 62.5 158.333H53.1417L49.9833 196.183C49.8083 198.325 47.9833 200 45.8333 200H20.8333ZM42 191.667L45.1583 153.817C45.3333 151.675 47.1583 150 49.3083 150H58.3333V129.167C58.3333 115.383 47.1167 104.167 33.3333 104.167C19.55 104.167 8.33333 115.383 8.33333 129.167V150H17.3583C19.5083 150 21.3333 151.675 21.5083 153.817L24.6667 191.667H42ZM166.667 95.8333C151.733 95.8333 139.583 83.6833 139.583 68.75C139.583 53.8167 151.733 41.6667 166.667 41.6667C181.6 41.6667 193.75 53.8167 193.75 68.75C193.75 83.6833 181.6 95.8333 166.667 95.8333ZM166.667 50C156.325 50 147.917 58.4083 147.917 68.75C147.917 79.0917 156.325 87.5 166.667 87.5C177.008 87.5 185.417 79.0917 185.417 68.75C185.417 58.4083 177.008 50 166.667 50ZM154.167 200C152.017 200 150.192 198.325 150.017 196.183L146.858 158.333H137.5C135.2 158.333 133.333 156.467 133.333 154.167V129.167C133.333 110.783 148.283 95.8333 166.667 95.8333C185.05 95.8333 200 110.783 200 129.167V154.167C200 156.467 198.133 158.333 195.833 158.333H186.475L183.317 196.183C183.142 198.325 181.317 200 179.167 200H154.167ZM175.333 191.667L178.492 153.817C178.667 151.675 180.492 150 182.642 150H191.667V129.167C191.667 115.383 180.45 104.167 166.667 104.167C152.883 104.167 141.667 115.383 141.667 129.167V150H150.692C152.842 150 154.667 151.675 154.842 153.817L158 191.667H175.333ZM100 45.8333C87.3667 45.8333 77.0833 35.55 77.0833 22.9167C77.0833 10.2833 87.3667 0 100 0C112.633 0 122.917 10.2833 122.917 22.9167C122.917 35.55 112.633 45.8333 100 45.8333ZM100 8.33333C91.9583 8.33333 85.4167 14.875 85.4167 22.9167C85.4167 30.9583 91.9583 37.5 100 37.5C108.042 37.5 114.583 30.9583 114.583 22.9167C114.583 14.875 108.042 8.33333 100 8.33333ZM91.6667 137.5C89.5417 137.5 87.7583 135.908 87.525 133.792L83.7667 100H75C72.7 100 70.8333 98.1333 70.8333 95.8333V75C70.8333 58.9167 83.9167 45.8333 100 45.8333C116.083 45.8333 129.167 58.9167 129.167 75V95.8333C129.167 98.1333 127.3 100 125 100H116.233L112.475 133.792C112.242 135.908 110.458 137.5 108.333 137.5H91.6667ZM104.6 129.167L108.358 95.375C108.592 93.2583 110.375 91.6667 112.5 91.6667H120.833V75C120.833 63.5083 111.483 54.1667 100 54.1667C88.5083 54.1667 79.1667 63.5083 79.1667 75V91.6667H87.5C89.625 91.6667 91.4083 93.2583 91.6417 95.375L95.4 129.167H104.6Z" fill="white"/>
</svg>
