<svg width="809" height="295" viewBox="0 0 809 295" fill="none" xmlns="http://www.w3.org/2000/svg">
<rect width="809" height="295" fill="white"/>
<path d="M127.464 0L0 73.7677L0.0155902 221.079L127.77 294.544L255.234 220.775L255.236 73.5451L127.464 0H127.464Z" fill="#0E83CD"/>
<path d="M67.6668 211.051L67.6764 147.35L67.686 83.6492L79.2593 76.8812L90.3448 83.4411L90.4644 109.472L90.584 135.502H127.622H164.66L164.779 109.489L164.899 83.4753L176.157 76.9704L187.569 83.6492L187.563 147.308L187.557 210.967L176.259 217.278L164.899 210.885L164.779 185L164.659 159.114H127.622H90.5836L90.4639 184.992L90.4982 211L79.1377 217.663L67.6668 211.051Z" fill="white"/>
<path d="M323.938 208V88H334.895V143.02H402.98V88H413.938V208H402.98V152.863H334.895V208H323.938ZM467.204 208V88H536.813V97.8437H478.161V143.02H533.122V152.863H478.161V198.156H537.985V208H467.204ZM588.498 88L621.72 140.09H622.482L655.705 88H668.654L630.041 148L668.654 208H655.705L622.482 156.496H621.72L588.498 208H575.548L614.748 148L575.548 88H588.498ZM807.965 148C807.965 160.5 805.739 171.379 801.286 180.637C796.832 189.855 790.7 197.004 782.887 202.082C775.114 207.121 766.168 209.641 756.051 209.641C745.934 209.641 736.969 207.121 729.157 202.082C721.383 197.004 715.27 189.855 710.817 180.637C706.403 171.379 704.196 160.5 704.196 148C704.196 135.5 706.403 124.641 710.817 115.422C715.27 106.164 721.403 99.0156 729.215 93.9766C737.028 88.8984 745.973 86.3594 756.051 86.3594C766.168 86.3594 775.114 88.8984 782.887 93.9766C790.7 99.0156 796.832 106.164 801.286 115.422C805.739 124.641 807.965 135.5 807.965 148ZM797.301 148C797.301 137.258 795.504 128.059 791.911 120.402C788.317 112.707 783.414 106.828 777.204 102.766C770.993 98.7031 763.942 96.6719 756.051 96.6719C748.2 96.6719 741.168 98.7031 734.957 102.766C728.746 106.828 723.825 112.687 720.192 120.344C716.598 128 714.801 137.219 714.801 148C714.801 158.742 716.598 167.941 720.192 175.598C723.786 183.254 728.688 189.133 734.899 193.234C741.11 197.297 748.161 199.328 756.051 199.328C763.942 199.328 770.993 197.297 777.204 193.234C783.454 189.172 788.375 183.312 791.969 175.656C795.563 167.961 797.34 158.742 797.301 148Z" fill="#0E83CD"/>
</svg>
