<svg width="230" height="410" viewBox="0 0 230 410" fill="none" xmlns="http://www.w3.org/2000/svg">
<path opacity="0.3" d="M128.02 8.15107C127.836 8.88807 127.832 9.68007 127.987 10.5161C127.987 10.5161 130.494 27.1581 127.648 34.5641L6.64296 349.197L6.65195 349.201C-1.98405 372.311 9.58896 398.112 32.666 406.988C55.743 415.863 81.621 404.464 90.696 381.524L90.707 381.529L211.712 66.8951C214.078 60.7401 227.572 48.8161 227.572 48.8161C228.249 48.3001 228.774 47.7081 229.132 47.0381L229.191 46.9161C229.256 46.7841 229.332 46.6581 229.384 46.5211C232.504 38.4081 212.379 23.1161 184.432 12.3691C156.484 1.62107 131.299 -0.514932 128.179 7.59807C128.126 7.73507 128.096 7.87907 128.057 8.02007L128.02 8.15107Z" fill="black" fill-opacity="0.2"/>
<path d="M124.523 5.47702C124.338 6.21402 124.333 7.00602 124.49 7.84202C124.49 7.84202 126.998 24.484 124.15 31.89L3.14396 346.522L3.15496 346.526C-5.48004 369.636 6.09197 395.437 29.169 404.313C52.244 413.188 78.124 401.789 87.199 378.849L87.21 378.854L208.215 64.22C210.58 58.065 224.075 46.141 224.075 46.141C224.752 45.625 225.277 45.034 225.635 44.363L225.693 44.241C225.758 44.11 225.834 43.983 225.886 43.846C229.006 35.733 208.881 20.442 180.935 9.69402C152.987 -1.05398 127.802 -3.18998 124.682 4.92302C124.629 5.06002 124.599 5.20402 124.56 5.34502L124.523 5.47702Z" fill="url(#paint0_linear)"/>
<path d="M162.48 147.814L75.2179 374.71L75.2749 374.731C68.8389 390.993 50.1089 399.454 33.4939 393.064C16.879 386.674 7.88594 367.552 14.0059 351.167L69.764 206.185C69.764 206.185 76.7279 194.952 90.4009 186.96C104.074 178.969 115.35 180.655 130.533 173.907C145.715 167.159 162.48 147.814 162.48 147.814Z" fill="url(#paint1_linear)"/>
<path d="M171.806 33.4759C189.152 40.1473 204.635 41.8572 206.39 37.295C208.145 32.7328 195.506 23.6262 178.16 16.9548C160.815 10.2834 145.331 8.57351 143.576 13.1357C141.821 17.6979 154.46 26.8045 171.806 33.4759Z" fill="#333333"/>
<path opacity="0.3" d="M124.489 7.84106C124.489 7.84106 126.96 24.5781 124.149 31.8891L3.14396 346.522L3.15496 346.526C-5.48004 369.636 6.09197 395.437 29.169 404.313C33.174 405.853 37.261 406.768 41.333 407.135C25.777 395.433 19.103 374.503 26.24 355.405L26.229 355.401L144.833 47.0091C144.833 47.0091 128.689 31.8501 124.489 7.84106Z" fill="white"/>
<path opacity="0.5" d="M85.5309 214.312C87.4672 214.312 89.0369 212.742 89.0369 210.806C89.0369 208.87 87.4672 207.3 85.5309 207.3C83.5946 207.3 82.0249 208.87 82.0249 210.806C82.0249 212.742 83.5946 214.312 85.5309 214.312Z" fill="white"/>
<path opacity="0.5" d="M108.514 241.512C111.433 241.512 113.799 239.146 113.799 236.227C113.799 233.308 111.433 230.942 108.514 230.942C105.595 230.942 103.229 233.308 103.229 236.227C103.229 239.146 105.595 241.512 108.514 241.512Z" fill="white"/>
<path opacity="0.5" d="M73.4289 276.374C78.9048 276.374 83.3439 271.935 83.3439 266.459C83.3439 260.983 78.9048 256.544 73.4289 256.544C67.953 256.544 63.5139 260.983 63.5139 266.459C63.5139 271.935 67.953 276.374 73.4289 276.374Z" fill="white"/>
<path opacity="0.5" d="M57.3749 290.081C60.2942 290.081 62.6609 287.714 62.6609 284.795C62.6609 281.876 60.2942 279.509 57.3749 279.509C54.4555 279.509 52.0889 281.876 52.0889 284.795C52.0889 287.714 54.4555 290.081 57.3749 290.081Z" fill="white"/>
<path opacity="0.5" d="M78.4298 327.514C80.3661 327.514 81.9358 325.944 81.9358 324.008C81.9358 322.072 80.3661 320.502 78.4298 320.502C76.4935 320.502 74.9238 322.072 74.9238 324.008C74.9238 325.944 76.4935 327.514 78.4298 327.514Z" fill="white"/>
<defs>
<linearGradient id="paint0_linear" x1="54.4556" y1="187.547" x2="155.661" y2="226.465" gradientUnits="userSpaceOnUse">
<stop stop-color="#919191"/>
<stop offset="1" stop-color="white"/>
</linearGradient>
<linearGradient id="paint1_linear" x1="51.8695" y1="252.705" x2="113.14" y2="276.266" gradientUnits="userSpaceOnUse">
<stop stop-color="#990000"/>
<stop offset="1" stop-color="#E80000"/>
</linearGradient>
</defs>
</svg>
