<svg width="1487" height="516" viewBox="0 0 1487 516" fill="none" xmlns="http://www.w3.org/2000/svg">
<rect width="1487" height="516" fill="white"/>
<path d="M119.475 400.178V425.305H37.7715V98.3301H119.475V123.619H65.4922V400.178H119.475ZM1367.23 123.619V98.3301H1448.93V425.305H1367.23V400.178H1421.38V123.619H1367.23Z" fill="#A1B1BB"/>
<path d="M285.475 318.475H315.789V320.096C315.789 328.201 312.709 336.361 306.549 344.574C300.497 352.788 292.499 359.11 282.557 363.541C272.722 367.864 260.834 370.025 246.893 370.025C220.199 370.025 199.611 361.596 185.129 344.736C170.755 327.769 163.568 304.317 163.568 274.381C163.568 244.553 170.755 221.209 185.129 204.35C199.611 187.382 220.199 178.898 246.893 178.898C260.834 178.898 272.722 181.114 282.557 185.545C292.499 189.868 300.497 195.866 306.549 203.539C312.709 211.104 315.789 219.534 315.789 228.828V230.449H285.475V228.828C285.799 222.236 282.881 216.454 276.721 211.482C270.669 206.511 261.266 204.025 248.514 204.025C233.383 204.025 220.685 209.591 210.418 220.723C200.151 231.854 195.018 249.74 195.018 274.381C195.018 299.13 200.151 317.07 210.418 328.201C220.685 339.333 233.383 344.898 248.514 344.898C261.266 344.898 270.615 342.413 276.559 337.441C282.503 332.47 285.475 326.688 285.475 320.096V318.475ZM469.307 183.924H499.459V365H469.307V333.389C463.038 343.115 456.878 350.41 450.826 355.273C444.774 360.137 438.56 363.811 432.184 366.297C425.807 368.783 418.837 370.025 411.271 370.025C394.52 370.025 380.309 365.324 368.637 355.922C356.965 346.411 351.129 327.337 351.129 298.697V183.924H381.281V286.053C381.281 312.531 384.794 328.525 391.818 334.037C398.843 339.549 407.543 342.305 417.918 342.305C426.888 342.305 435.318 339.711 443.207 334.523C451.204 329.228 457.527 321.879 462.174 312.477C466.929 302.966 469.307 289.781 469.307 272.922V183.924ZM536.258 317.178H566.41V317.826C566.41 325.607 569.382 332.092 575.326 337.279C581.27 342.359 591.321 344.898 605.479 344.898C617.907 344.898 627.958 341.872 635.631 335.82C643.412 329.768 647.303 322.635 647.303 314.422C647.303 303.29 639.738 295.401 624.607 290.754L609.207 286.053L598.994 282.811L578.082 276.326C554.198 267.572 542.256 253.036 542.256 232.719C542.256 218.453 548.038 205.917 559.602 195.109C571.165 184.302 588.349 178.898 611.152 178.898C633.632 178.898 649.626 183.546 659.137 192.84C668.647 202.026 673.402 212.239 673.402 223.479V224.127H643.088V223.479C643.088 217.426 640.008 212.671 633.848 209.213C627.796 205.755 619.69 204.025 609.531 204.025C597.427 204.025 588.133 206.565 581.648 211.645C575.272 216.616 572.084 222.776 572.084 230.125C572.084 235.745 574.137 240.338 578.244 243.904C582.459 247.363 589.484 250.497 599.318 253.307L613.908 257.359L624.445 260.439C639.143 264.654 648.275 267.626 651.842 269.355C655.516 271.085 659.191 273.3 662.865 276.002C667.945 279.893 671.673 284.594 674.051 290.105C676.536 295.617 677.779 302.048 677.779 309.396C677.779 326.472 671.619 340.846 659.299 352.518C647.087 364.189 629.201 370.025 605.641 370.025C590.727 370.025 578.352 367.81 568.518 363.379C558.683 358.948 550.848 352.842 545.012 345.061C539.176 337.171 536.258 328.093 536.258 317.826V317.178ZM827.406 339.387V364.676C812.708 368.242 801.469 370.025 793.688 370.025C782.448 370.025 772.289 367.756 763.211 363.217C754.241 358.678 747.378 352.085 742.623 343.439C737.976 334.794 735.652 321.014 735.652 302.102V209.051H704.203V183.924H735.652V141.127H765.805V183.924H818.652V209.051H765.805V293.51C765.805 309.505 767.048 320.636 769.533 326.904C772.019 333.064 775.91 337.604 781.205 340.521C786.609 343.439 793.039 344.898 800.496 344.898C806.44 344.898 815.41 343.061 827.406 339.387ZM940.721 370.025C917.053 370.025 896.843 362.028 880.092 346.033C863.449 329.93 855.127 306.046 855.127 274.381C855.127 242.824 863.449 219.048 880.092 203.053C896.843 186.95 917.053 178.898 940.721 178.898C964.281 178.898 984.382 186.95 1001.03 203.053C1017.78 219.048 1026.15 242.824 1026.15 274.381C1026.15 306.046 1017.78 329.93 1001.03 346.033C984.382 362.028 964.281 370.025 940.721 370.025ZM940.721 344.898C956.932 344.898 969.954 338.468 979.789 325.607C989.732 312.639 994.703 295.563 994.703 274.381C994.703 253.307 989.732 236.339 979.789 223.479C969.954 210.51 956.932 204.025 940.721 204.025C924.402 204.025 911.271 210.51 901.328 223.479C891.493 236.339 886.576 253.307 886.576 274.381C886.576 295.563 891.493 312.639 901.328 325.607C911.271 338.468 924.402 344.898 940.721 344.898ZM1095.37 365H1065.22V183.924H1095.37V216.67C1101.53 205.755 1107.37 197.919 1112.88 193.164C1118.5 188.409 1124.61 184.842 1131.2 182.465C1137.79 180.087 1144.82 178.898 1152.27 178.898C1159.73 178.898 1166.86 180.087 1173.67 182.465C1180.48 184.734 1186.37 188.193 1191.34 192.84C1196.31 197.487 1201.23 205.43 1206.09 216.67C1212.25 206.187 1218.31 198.514 1224.25 193.65C1230.3 188.679 1236.46 185.005 1242.73 182.627C1249.11 180.141 1255.86 178.898 1262.99 178.898C1273.26 178.898 1282.56 181.33 1290.88 186.193C1299.2 190.949 1305.57 197.757 1310.01 206.619C1314.54 215.481 1316.81 230.557 1316.81 251.848V365H1286.5V264.33C1286.5 243.04 1285.2 229.585 1282.61 223.965C1280.12 218.345 1276.61 214.076 1272.07 211.158C1267.64 208.132 1262.24 206.619 1255.86 206.619C1246.89 206.619 1238.62 209.429 1231.06 215.049C1223.49 220.561 1217.44 228.018 1212.9 237.42C1208.36 246.822 1206.09 260.007 1206.09 276.975V365H1175.94V264.33C1175.94 243.04 1174.75 229.585 1172.38 223.965C1170.11 218.345 1166.43 214.022 1161.35 210.996C1156.27 207.97 1150.81 206.457 1144.98 206.457C1136.76 206.457 1128.66 209.375 1120.66 215.211C1112.77 220.939 1106.56 228.612 1102.02 238.23C1097.59 247.741 1095.37 260.656 1095.37 276.975V365Z" fill="#ADB9C1"/>
</svg>
