<svg width="200" height="200" viewBox="0 0 200 200" fill="none" xmlns="http://www.w3.org/2000/svg">
<path d="M74.4758 183.6C53.4508 183.6 30.6342 178.192 6.64252 167.534C4.83418 166.725 3.83418 164.742 4.26752 162.809C4.69252 160.925 6.40085 159.559 8.33418 159.559C9.10085 159.575 9.77585 159.584 10.4425 159.584C24.1925 159.584 37.7092 156.25 49.9008 149.9C35.1008 147.625 24.2925 142.484 17.1009 128.092C16.5842 127.05 16.5175 125.834 16.9342 124.75C17.3425 123.667 18.1925 122.8 19.2758 122.367L28.1592 118.817C11.3592 111.909 6.45085 96.6838 4.24252 85.3671C3.98418 84.0255 4.39252 82.6421 5.34252 81.6588C6.12585 80.8505 7.21752 80.3921 8.33418 80.3921C8.56752 80.3921 8.80085 80.4088 9.03418 80.4505L22.7425 82.7338C15.3425 71.2671 13.3258 56.2338 16.7508 37.9588C17.0425 36.4005 18.2258 35.1171 19.7508 34.7005C20.1008 34.6088 20.4675 34.5588 20.8342 34.5588C22.0425 34.5588 23.1925 35.0838 23.9842 35.9921C45.7925 61.1088 66.6675 73.3255 87.8008 73.3255C90.4592 73.3255 93.1508 73.1255 95.8342 72.7338V67.8921C95.7758 57.2838 99.7342 47.1505 106.984 39.3838C114.543 31.2755 124.809 26.6005 135.893 26.2171C136.393 26.2005 136.893 26.1921 137.393 26.1921C147.068 26.1921 156.409 29.5838 163.843 35.7671L182.193 30.5505C182.568 30.4421 182.951 30.3921 183.334 30.3921C184.576 30.3921 185.751 30.9421 186.543 31.9005C187.593 33.1671 187.793 34.9421 187.059 36.4171L181.051 48.4421L192.676 51.3505C194.209 51.7338 195.376 52.9255 195.726 54.4588C196.076 55.9921 195.551 57.5755 194.334 58.5838L179.168 71.2755V80.3921C179.168 115.142 161.301 148.334 132.543 167.025C115.618 178.025 96.0842 183.6 74.4925 183.6H74.4758ZM26.6175 166.492C43.4175 172.309 59.4842 175.259 74.4758 175.259C94.4508 175.259 112.459 170.134 128.001 160.042C154.426 142.875 170.834 112.359 170.834 80.4005V69.3255C170.834 68.0838 171.376 66.9171 172.326 66.1255L182.709 57.4421L173.993 55.2588C172.759 54.9505 171.743 54.1088 171.218 52.9505C170.693 51.8005 170.709 50.4838 171.276 49.3505L175.384 41.1421L163.943 44.3921C163.576 44.5005 163.193 44.5505 162.809 44.5505C161.751 44.5505 160.743 44.1505 159.968 43.4338C153.801 37.6838 145.801 34.5171 137.434 34.5171C137.018 34.5171 136.609 34.5255 136.193 34.5421C127.334 34.8505 119.126 38.5838 113.084 45.0671C107.293 51.2755 104.126 59.3755 104.168 67.8671V76.2255C104.168 78.1921 102.768 79.9088 100.843 80.3088C96.4675 81.2088 92.0508 81.6671 87.7175 81.6671C66.1008 81.6671 45.1342 70.6838 23.7342 48.1255C22.3175 64.4588 26.4759 77.0505 36.1092 85.6171C37.4842 86.8421 37.8925 88.8671 37.1009 90.5255C36.4092 91.9671 34.9342 92.8921 33.3342 92.8921C33.1092 92.8921 32.8758 92.8755 32.6425 92.8338L13.8592 89.7005C18.2258 104.575 27.0509 112.034 42.1425 113.75C44.0425 113.967 45.5425 115.442 45.8008 117.334C46.0592 119.225 44.9925 121.05 43.2175 121.759L26.8342 128.317C34.4842 139.842 46.2008 141.609 62.8258 142.909C64.5675 143.05 66.0508 144.267 66.5175 145.95C66.9842 147.634 66.3425 149.442 64.9258 150.459C53.5258 158.592 40.4258 164.059 26.6175 166.492Z" fill="white"/>
</svg>
