<svg width="200" height="200" viewBox="0 0 200 200" fill="none" xmlns="http://www.w3.org/2000/svg">
<path d="M99.1419 160.542C88.4253 160.542 77.7919 157.792 68.3836 152.592C67.4086 152.058 66.7003 151.167 66.3919 150.1C66.0836 149.033 66.2086 147.9 66.7503 146.925C67.4836 145.6 68.8836 144.775 70.4003 144.775C71.1003 144.775 71.8003 144.958 72.4086 145.292C80.5919 149.808 89.8003 152.2 99.0503 152.2L99.9253 152.192L100.842 152.2C110.109 152.2 119.309 149.833 127.45 145.358C128.067 145.017 128.759 144.842 129.45 144.842C130.975 144.842 132.375 145.667 133.109 147C134.217 149.017 133.475 151.558 131.467 152.658C122.092 157.808 111.475 160.525 100.759 160.525C100.759 160.533 99.1419 160.542 99.1419 160.542ZM133.325 129.167C124.134 129.167 116.659 121.692 116.659 112.5C116.659 103.308 124.134 95.8333 133.325 95.8333C142.517 95.8333 149.992 103.308 149.992 112.5C149.992 121.692 142.509 129.167 133.325 129.167ZM133.325 104.167C128.725 104.167 124.992 107.9 124.992 112.5C124.992 117.1 128.725 120.833 133.325 120.833C137.925 120.833 141.659 117.1 141.659 112.5C141.659 107.9 137.917 104.167 133.325 104.167ZM66.6586 129.167C57.4669 129.167 49.9919 121.692 49.9919 112.5C49.9919 103.308 57.4669 95.8333 66.6586 95.8333C75.8503 95.8333 83.3253 103.308 83.3253 112.5C83.3253 121.692 75.8503 129.167 66.6586 129.167ZM66.6586 104.167C62.0669 104.167 58.3253 107.9 58.3253 112.5C58.3253 117.1 62.0669 120.833 66.6586 120.833C71.2503 120.833 74.9919 117.1 74.9919 112.5C74.9919 107.9 71.2503 104.167 66.6586 104.167Z" fill="white"/>
<path d="M99.9914 183.333C54.0414 183.333 16.6581 157.167 16.6581 125C16.6581 123.225 16.7914 121.383 17.0414 119.517C10.6331 117.367 5.37474 112.758 2.44974 106.633C-3.50026 94.2 1.78307 79.2417 14.2164 73.2917C17.6081 71.6667 21.2247 70.8417 24.9664 70.8417C32.9497 70.8417 40.5081 74.7167 45.1747 81.075C59.3081 72.4333 77.1831 67.3833 95.9331 66.75C96.4081 57.8667 98.9998 36.7333 112.683 28.8667C116.116 26.8917 120 25.8833 124.225 25.8833C129.708 25.8833 135.866 27.5833 142.558 30.9333C145.491 20.25 155.383 12.5 166.658 12.5C180.441 12.5 191.658 23.7167 191.658 37.5C191.658 51.2833 180.441 62.5 166.658 62.5C153.766 62.5 143.066 52.7 141.808 39.9833C135.066 36.1667 129.166 34.2333 124.258 34.2333C121.483 34.2333 118.991 34.8583 116.841 36.1C106.95 41.7917 104.775 59.0333 104.3 66.7667C122.958 67.4333 140.741 72.475 154.808 81.0833C157.766 77.0083 161.833 73.9833 166.666 72.275C169.366 71.3167 172.175 70.8333 175 70.8333C178.733 70.8333 182.358 71.6583 185.766 73.2917C198.2 79.2417 203.483 94.1917 197.541 106.633C194.608 112.758 189.35 117.375 182.941 119.517C183.2 121.392 183.325 123.225 183.325 125C183.325 157.167 145.941 183.333 99.9914 183.333ZM99.9914 75C58.6331 75 24.9914 97.4333 24.9914 125C24.9914 152.567 58.6331 175 99.9914 175C141.35 175 174.991 152.567 174.991 125C174.991 97.4333 141.341 75 99.9914 75ZM161.683 85.8083C171.133 93.0917 177.766 101.858 181.025 111.367C184.966 109.842 188.191 106.883 190.025 103.042C191.941 99.0333 192.183 94.5083 190.7 90.3083C189.216 86.1083 186.191 82.7333 182.183 80.8167C179.9 79.7167 177.483 79.1667 175 79.1667C173.116 79.1667 171.241 79.4917 169.441 80.125C166.291 81.2417 163.641 83.1833 161.683 85.8083ZM24.9664 79.1833C22.4747 79.1833 20.0747 79.7333 17.8081 80.8083C9.51641 84.775 5.99974 94.7417 9.95807 103.033C11.7914 106.875 15.0081 109.833 18.9497 111.358C22.2081 101.858 28.8414 93.0833 38.2831 85.8083C35.1747 81.6833 30.2164 79.1833 24.9664 79.1833ZM166.658 20.8333C157.466 20.8333 149.991 28.3083 149.991 37.5C149.991 46.6917 157.466 54.1667 166.658 54.1667C175.85 54.1667 183.325 46.6917 183.325 37.5C183.325 28.3083 175.841 20.8333 166.658 20.8333Z" fill="white"/>
</svg>
