<svg width="200" height="200" viewBox="0 0 200 200" fill="none" xmlns="http://www.w3.org/2000/svg">
<path d="M37.5001 200C26.0167 200 16.6667 190.65 16.6667 179.167V125C16.6667 122.7 18.5334 120.833 20.8334 120.833C23.1334 120.833 25.0001 122.7 25.0001 125V179.167C25.0001 186.058 30.6084 191.667 37.5001 191.667H129.167C136.058 191.667 141.667 186.058 141.667 179.167V125C141.667 122.7 143.533 120.833 145.833 120.833C148.133 120.833 150 122.7 150 125V179.167C150 190.65 140.65 200 129.167 200H37.5001Z" fill="white"/>
<path d="M49.9999 166.667C47.6999 166.667 45.8333 164.8 45.8333 162.5C45.8333 160.2 47.7083 158.333 49.9999 158.333H116.667C118.967 158.333 120.833 160.2 120.833 162.5C120.833 164.8 118.967 166.667 116.667 166.667H49.9999ZM119.9 144.283C119.608 144.283 119.325 144.25 119.042 144.192L53.8082 130.35C51.5582 129.867 50.1166 127.658 50.5999 125.408C51.0083 123.492 52.7166 122.108 54.6749 122.108C54.9583 122.108 55.2499 122.142 55.5333 122.2L120.767 136.042C123.008 136.525 124.45 138.733 123.975 140.983C123.567 142.892 121.85 144.283 119.9 144.283ZM127.683 123.042C127.1 123.042 126.525 122.925 125.992 122.683L65.0666 95.6168C62.9666 94.6835 62.0166 92.2168 62.9499 90.1168C63.6249 88.6085 65.1166 87.6418 66.7666 87.6418C67.3499 87.6418 67.9166 87.7668 68.4499 88.0001L129.375 115.067C131.475 116 132.417 118.467 131.492 120.567C130.825 122.067 129.325 123.042 127.683 123.042ZM139.725 103.892C138.842 103.892 138 103.617 137.283 103.1L83.2999 63.9835C82.3999 63.3335 81.8082 62.3668 81.6332 61.2668C81.4582 60.1668 81.7166 59.0668 82.3749 58.1585C83.1499 57.0835 84.4166 56.4418 85.7499 56.4418C86.6333 56.4418 87.4832 56.7168 88.1999 57.2418L142.175 96.3585C143.075 97.0085 143.667 97.9751 143.842 99.0751C144.017 100.175 143.758 101.275 143.1 102.175C142.317 103.25 141.058 103.892 139.725 103.892ZM155.467 87.6501C154.292 87.6501 153.167 87.1501 152.375 86.2751L107.683 36.8085C106.142 35.1001 106.275 32.4668 107.983 30.9251C108.75 30.2335 109.742 29.8501 110.775 29.8501C111.95 29.8501 113.083 30.3501 113.867 31.2251L158.558 80.6918C160.1 82.4001 159.967 85.0335 158.258 86.5751C157.5 87.2668 156.508 87.6501 155.467 87.6501ZM174.25 75.0335C172.767 75.0335 171.383 74.2418 170.642 72.9585L137.183 15.2918C136.625 14.3251 136.475 13.2085 136.758 12.1251C137.042 11.0501 137.733 10.1501 138.692 9.59181C139.333 9.22515 140.05 9.02515 140.783 9.02515C142.267 9.02515 143.65 9.82515 144.392 11.1001L177.85 68.7668C178.408 69.7335 178.558 70.8501 178.275 71.9335C177.992 73.0085 177.3 73.9085 176.342 74.4668C175.7 74.8418 174.983 75.0335 174.25 75.0335Z" fill="white"/>
</svg>
