<svg width="200" height="200" viewBox="0 0 200 200" fill="none" xmlns="http://www.w3.org/2000/svg">
<g clip-path="url(#clip0)">
<path d="M128.592 195.292C125.734 195.292 123.859 194.242 122.792 193.358C120.834 191.742 119.751 189.3 119.751 186.483V159.95C120.142 154.342 118.192 149.025 114.401 145.217C113.276 144.092 112.892 142.392 113.426 140.892C113.959 139.392 115.317 138.308 116.901 138.133C152.192 134.233 156.951 114.142 156.951 94.9917C157.084 86.4417 153.976 78.3167 148.201 72.0917C147.142 70.9583 146.809 69.3333 147.334 67.8667C149.626 61.3833 149.642 54.3417 147.401 47.8833C144.367 48.1 137.542 49.5917 126.317 57.1833C125.626 57.65 124.817 57.9 123.984 57.9C123.609 57.9 123.234 57.85 122.876 57.75C115.426 55.7083 107.726 54.6667 99.9841 54.6667C92.2424 54.6667 84.5424 55.7 77.0841 57.75C76.7258 57.8583 76.3591 57.9083 75.9841 57.9083C75.1508 57.9083 74.3424 57.6583 73.6424 57.1917C62.3758 49.5417 55.5341 48.0917 52.5424 47.8833C50.3008 54.3417 50.3258 61.3833 52.6258 67.8667C53.1424 69.3333 52.8091 70.95 51.7591 72.0917C45.9841 78.3167 42.8758 86.425 42.9924 94.9167C42.9924 129.05 63.1925 135.958 82.9508 138.217C84.5425 138.4 85.9008 139.492 86.4174 141.008C86.9341 142.525 86.5258 144.225 85.3841 145.342C82.6174 148.042 80.8924 151.65 80.5424 155.5C80.4174 156.867 79.6341 158.083 78.4508 158.75L78.4424 158.742C78.3674 158.8 78.2924 158.842 78.2174 158.892C74.6091 160.875 70.5341 161.917 66.4341 161.917C57.4424 161.917 49.1758 157.033 44.8591 149.175C44.3591 148.308 43.7841 147.5 43.1424 146.758C45.2008 149.492 46.7841 152.6 47.8008 155.942C47.9341 156.375 51.2841 166.742 66.2508 166.742C68.9758 166.742 71.9508 166.392 75.1008 165.708C75.4008 165.65 75.6924 165.617 75.9758 165.617C76.9258 165.617 77.8508 165.942 78.5841 166.533C79.5674 167.325 80.1341 168.5 80.1424 169.758C80.1758 175.717 80.1591 180.758 80.1508 183.908L80.1424 186.458C80.1424 189.242 79.0841 191.667 77.1508 193.292C76.0758 194.192 74.1841 195.275 71.2674 195.275C70.5341 195.275 69.7591 195.2 68.9591 195.067C68.7424 195.025 68.5508 194.983 68.3591 194.917C27.3591 181.3 -0.165887 143.125 -0.12422 99.9167C-0.065887 44.8167 44.8008 0 99.8841 0H100.134C143.292 0 181.434 27.525 195.034 68.4833C212.409 120.817 183.976 177.525 131.642 194.9C131.467 194.958 131.292 195 131.126 195.033C130.242 195.208 129.392 195.292 128.592 195.292ZM128.176 186.942C128.242 186.942 128.367 186.958 128.567 186.958C128.826 186.958 129.084 186.933 129.317 186.892C177.084 170.85 203.017 118.95 187.134 71.1C174.659 33.5583 139.701 8.33333 100.134 8.33333C100.092 8.33333 99.8674 8.33333 99.8674 8.33333C49.3841 8.33333 8.26745 49.4167 8.21745 99.9083C8.18411 139.383 33.2758 174.308 70.6674 186.883C70.8674 186.908 71.0841 186.925 71.2924 186.925C71.6174 186.925 71.7758 186.883 71.8258 186.867C71.7675 186.867 71.8174 186.667 71.8174 186.433L71.8258 184.017C71.8341 181.792 71.8424 178.558 71.8424 174.7C69.9424 174.933 68.0924 175.05 66.3258 175.05C45.1174 175.05 39.8758 158.508 39.8258 158.342C38.3591 153.517 35.2008 149.358 30.9424 146.633C29.0424 145.333 24.1341 141.992 25.5508 137.508C26.4424 134.683 29.3508 133.125 33.7424 133.125C34.0758 133.125 34.2424 133.142 34.4091 133.167C41.8758 134.192 48.3424 138.533 52.1174 145.075C55.0008 150.333 60.4841 153.575 66.4341 153.575C68.5674 153.575 70.6258 153.167 72.5841 152.358C73.0508 149.95 73.8758 147.608 75.0258 145.442C38.9258 138.517 34.6591 113.45 34.6591 94.975C34.5174 85.25 37.8341 75.8083 44.0174 68.2833C41.5674 59.6667 42.1924 50.45 45.8174 42.2167C46.2924 41.125 47.2258 40.2917 48.3591 39.925C48.8758 39.775 50.0008 39.5 51.8174 39.5C56.4258 39.5 64.4591 41.2083 76.7341 49.225C84.3258 47.3083 92.1424 46.3333 99.9841 46.3333C107.826 46.3333 115.642 47.3083 123.234 49.225C135.542 41.2 143.559 39.5 148.151 39.5C149.967 39.5 151.076 39.7667 151.584 39.9333C152.717 40.3 153.642 41.1333 154.126 42.225C157.751 50.4583 158.384 59.6667 155.942 68.2917C162.126 75.8167 165.442 85.275 165.284 95.0667C165.284 123.925 152.051 140.433 124.851 145.417C127.309 149.925 128.451 155.083 128.076 160.25L128.084 186.483C128.084 186.683 128.117 186.85 128.151 186.95C128.151 186.942 128.159 186.942 128.176 186.942Z" fill="white"/>
</g>
<defs>
<clipPath id="clip0">
<rect width="200" height="200" fill="white"/>
</clipPath>
</defs>
</svg>
