<svg width="200" height="200" viewBox="0 0 200 200" fill="none" xmlns="http://www.w3.org/2000/svg">
<path d="M100 196.542C96.6585 196.542 93.5252 195.242 91.1585 192.884L7.11683 108.842C4.7585 106.484 3.4585 103.342 3.4585 100C3.4585 96.6587 4.7585 93.5254 7.11683 91.1587L91.1585 7.11707C93.5168 4.75874 96.6585 3.45874 100 3.45874C103.342 3.45874 106.475 4.75874 108.842 7.11707L192.892 91.1587C197.767 96.0337 197.767 103.959 192.892 108.834L108.842 192.884C106.483 195.242 103.342 196.542 100 196.542ZM100 11.7921C98.8918 11.7921 97.8418 12.2254 97.0502 13.0087L13.0085 97.0504C12.2252 97.8421 11.7918 98.8837 11.7918 100C11.7918 101.117 12.2252 102.159 13.0085 102.95L97.0502 186.992C97.7918 187.725 98.8585 188.15 100 188.15C101.133 188.15 102.208 187.725 102.942 186.992L186.992 102.95C188.617 101.325 188.617 98.6837 186.992 97.0587L102.942 13.0087C102.158 12.2254 101.117 11.7921 100 11.7921Z" fill="white"/>
<path d="M83.325 141.667C78.7334 141.667 74.9917 137.933 74.9917 133.333V101.725C74.9917 96.1582 77.1584 90.9333 81.0917 86.9916L97.6084 70.4749L92.5834 65.4499C91.3834 64.2583 91.0334 62.4749 91.675 60.9083C92.325 59.3416 93.8334 58.3333 95.525 58.3333H124.992C129.592 58.3333 133.325 62.0749 133.325 66.6666V96.1333C133.325 97.8249 132.317 99.3333 130.75 99.9833C130.242 100.192 129.708 100.3 129.158 100.3C128.042 100.3 126.992 99.8666 126.208 99.0749L121.183 94.0416L109.55 105.675C108.775 106.45 108.325 107.525 108.325 108.625V133.333C108.325 137.933 104.592 141.667 99.9917 141.667H83.325ZM106.45 67.5249C107.233 68.3166 107.667 69.3582 107.667 70.4749C107.667 71.5916 107.233 72.6333 106.45 73.4249L86.9834 92.8916C84.625 95.2499 83.325 98.3916 83.325 101.733V133.333H99.9917V108.633C99.9917 105.333 101.325 102.108 103.658 99.7833L118.242 85.1999C119.025 84.4166 120.075 83.9833 121.192 83.9833C122.292 83.9833 123.367 84.4249 124.142 85.2083L125 86.0666V66.6666H105.6L106.45 67.5249Z" fill="white"/>
</svg>
