<svg width="103" height="79" viewBox="0 0 103 79" xmlns="http://www.w3.org/2000/svg">
    <g fill="none" fill-rule="evenodd">
        <path stroke-opacity=".012" stroke="#000" stroke-width="0" d="M1-7h93v93H1z"/>
        <g stroke="#3EB0EF" stroke-linecap="round" stroke-linejoin="round" stroke-width="4">
            <path d="M92.305 35.638v32.827c0 5.149-2.594 7.723-7.782 7.723H10.602c-5.188 0-7.782-2.574-7.782-7.723v-57.93c0-2.132.76-3.953 2.28-5.461 1.519-1.508 3.353-2.262 5.502-2.262h73.921c5.188 0 7.782 2.574 7.782 7.723v25.103z" fill-opacity=".118" fill="#3EB0EF"/>
            <path d="M2.82 22.121h60.305M12.91 11.655c.649 0 .973.322.973.965 0 .644-.324.966-.973.966-.648 0-.973-.322-.973-.966 0-.266.095-.494.285-.682.19-.189.42-.283.688-.283M24.582 11.655c.648 0 .973.322.973.965 0 .644-.325.966-.973.966-.648 0-.973-.322-.973-.966 0-.266.095-.494.285-.682.19-.189.42-.283.688-.283M36.254 11.655c.648 0 .973.322.973.965 0 .644-.325.966-.973.966-.649 0-.973-.322-.973-.966 0-.266.095-.494.285-.682.19-.189.42-.283.688-.283"/>
            <path d="M74.89 45.797l-13.617 3.862 3.891-13.517L88.438 13.04c3.242-3.115 6.458-3.09 9.648.077 3.19 3.167 3.217 6.36.078 9.578L74.891 45.797z" fill="#FFF"/>
            <path d="M85.524 15.936l9.726 9.655M65.164 36.142l9.727 9.655M14.492 37.569H32M14.492 49.155h29.18M14.492 60.74h62.25"/>
        </g>
    </g>
</svg>
