<?xml version="1.0" encoding="UTF-8"?>
<svg width="103px" height="79px" viewBox="0 0 103 79" version="1.1" xmlns="http://www.w3.org/2000/svg" xmlns:xlink="http://www.w3.org/1999/xlink">
    <!-- Generator: Sketch 52 (66869) - http://www.bohemiancoding.com/sketch -->
    <title>admin-api-logo</title>
    <desc>Created with Sketch.</desc>
    <g id="Logos" stroke="none" stroke-width="1" fill="none" fill-rule="evenodd">
        <g id="admin-api-logo" transform="translate(1.000000, -7.000000)">
            <polygon id="Stroke-1" stroke-opacity="0.0117647061" stroke="#000000" stroke-width="1.33333336e-11" points="0 0 93 0 93 93 0 93"></polygon>
            <g id="Group-15" transform="translate(1.000000, 9.000000)" stroke="#3EB0EF" stroke-linecap="round" stroke-linejoin="round" stroke-width="4">
                <path d="M90.304682,33.6380572 L90.304682,66.4645477 C90.304682,71.6138037 87.7109348,74.1884279 82.5234325,74.1884279 L8.60156192,74.1884279 C3.41406209,74.1884279 0.820312383,71.6138037 0.820312383,66.4645477 L0.820312383,8.53544672 C0.820312267,6.40255631 1.58000383,4.58202115 3.09938723,3.07383933 C4.61877109,1.5656575 6.452829,0.811566585 8.60156192,0.811566585 L82.5234325,0.811566585 C87.7109348,0.811566585 90.304682,3.38619265 90.304682,8.53544672 L90.304682,33.6380572 Z" id="Stroke-3" fill-opacity="0.117668705" fill="#3EB0EF"></path>
                <path d="M0.820312383,20.1212669 L61.1249963,20.1212669" id="Stroke-5"></path>
                <path d="M10.9101553,9.6548497 C11.5585921,9.6548497 11.8828114,9.97667869 11.8828114,10.6203347 C11.8828114,11.2639908 11.5585921,11.5858197 10.9101553,11.5858197 C10.2617184,11.5858197 9.93749907,11.2639908 9.93749907,10.6203347 C9.93749829,10.3537218 10.0324591,10.1261547 10.2223827,9.93763293 C10.4123062,9.74911155 10.641564,9.6548497 10.9101553,9.6548497" id="Stroke-6"></path>
                <path d="M22.5820296,9.6548497 C23.2304664,9.6548497 23.5546857,9.97667869 23.5546857,10.6203347 C23.5546857,11.2639908 23.2304664,11.5858197 22.5820296,11.5858197 C21.9335927,11.5858197 21.6093734,11.2639908 21.6093734,10.6203347 C21.6093734,10.3537218 21.7043353,10.1261547 21.894257,9.93763293 C22.0841805,9.74911155 22.3134383,9.6548497 22.5820296,9.6548497" id="Stroke-7"></path>
                <path d="M34.2539039,9.6548497 C34.9023426,9.6548497 35.22656,9.97667869 35.22656,10.6203347 C35.22656,11.2639908 34.9023426,11.5858197 34.2539039,11.5858197 C33.6054651,11.5858197 33.2812477,11.2639908 33.2812477,10.6203347 C33.2812477,10.3537218 33.3762077,10.1261547 33.5661313,9.93763293 C33.7560548,9.74911155 33.9853126,9.6548497 34.2539039,9.6548497" id="Stroke-8"></path>
                <path d="M72.890621,43.7966384 L59.2734343,47.6585785 L63.1640591,34.1417883 L86.4377765,11.0396632 C89.679554,7.92461111 92.8956339,7.95052473 96.0860357,11.1174009 C99.2764375,14.2842791 99.3025436,17.476651 96.1643462,20.6945191 L72.890621,43.7966384 Z" id="Stroke-9" fill="#FFFFFF"></path>
                <path d="M83.5236985,13.9361182 L93.2502604,23.5909665" id="Stroke-10"></path>
                <path d="M63.1640591,34.1417883 L72.890621,43.7966384" id="Stroke-11"></path>
                <path d="M12.4921867,35.5690272 L29.9999981,35.5690272" id="Stroke-12"></path>
                <path d="M12.4921867,47.1548474 L41.6718724,47.1548474" id="Stroke-13"></path>
                <path d="M12.4921867,58.7406676 L74.7421829,58.7406676" id="Stroke-14"></path>
            </g>
        </g>
    </g>
</svg>