<?xml version="1.0" encoding="UTF-8"?>
<svg width="94px" height="86px" viewBox="0 0 94 86" version="1.1" xmlns="http://www.w3.org/2000/svg" xmlns:xlink="http://www.w3.org/1999/xlink">
    <!-- Generator: Sketch 52 (66869) - http://www.bohemiancoding.com/sketch -->
    <title>client-api-logo</title>
    <desc>Created with Sketch.</desc>
    <g id="Logos" stroke="none" stroke-width="1" fill="none" fill-rule="evenodd">
        <g id="client-api-logo" transform="translate(1.000000, -3.000000)">
            <polygon id="Stroke-1" stroke-opacity="0.0117647061" stroke="#000000" stroke-width="1.33333336e-11" points="0 0 92 0 92 92 0 92"></polygon>
            <g id="Group-12" transform="translate(1.000000, 5.000000)" stroke="#A4D037" stroke-linecap="round" stroke-linejoin="round" stroke-width="4">
                <path d="M43.0833307,16.1818169 L54.58333,16.1818169" id="Stroke-5"></path>
                <path d="M43.0833307,27.6363617 L54.58333,27.6363617" id="Stroke-6"></path>
                <path d="M43.0833307,39.0909065 L54.58333,39.0909065" id="Stroke-7"></path>
                <path d="M12.4166659,50.5454512 L54.58333,50.5454512" id="Stroke-8"></path>
                <path d="M12.4166659,61.999996 L54.58333,61.999996" id="Stroke-9"></path>
                <path d="M77.0188827,81.0909039 L12.4166659,81.0909039 C4.74999965,81.0909039 0.916666092,77.2727223 0.916666092,69.6363592 L0.916666552,4.72727215 C0.916666437,3.67291033 1.29091885,2.77295691 2.03942364,2.02741037 C2.78792846,1.28186383 3.69145355,0.909090565 4.74999965,0.909090565 L62.2499962,0.909090565 C64.8055491,0.909090565 66.0833293,2.18181763 66.0833293,4.72727215 L66.0833293,69.6363592 C66.0833293,76.87987 69.5323964,80.6879465 76.4305306,81.0605885" id="Stroke-10" fill-opacity="0.1" fill="#A4D037"></path>
                <path d="M77.5833286,81.0909039 C85.2499948,81.0909039 89.0833279,77.2727223 89.0833279,69.6363592 L89.0833279,12.3636353" id="Path"></path>
                <path d="M77.5833286,12.3636353 L77.5833286,71.54545" id="Stroke-11"></path>
                <path d="M35.4166645,37.1818157 C35.4166645,38.4545416 34.7777744,39.0909065 33.4999979,39.0909065 L14.3333324,39.0909065 C13.0555548,39.0909065 12.4166659,38.4545416 12.4166659,37.1818157 L12.4166659,18.0909077 C12.4166659,17.5637272 12.6037919,17.1137499 12.9780448,16.740977 C13.352297,16.3682041 13.8040591,16.1818169 14.3333324,16.1818169 L33.4999979,16.1818169 C34.7777744,16.1818169 35.4166645,16.8181799 35.4166645,18.0909077 L35.4166645,37.1818157 Z" id="Stroke-3" fill="#FFFFFF"></path>
            </g>
        </g>
    </g>
</svg>