<svg width="39" height="29" viewBox="0 0 39 29" xmlns="http://www.w3.org/2000/svg"><title>SVGID_1_</title><path d="M7.7 23c-1.1 0-2.1-.9-2.1-2s.9-2 2.1-2c1.2 0 2.1.9 2.1 2s-1 2-2.1 2zm25.8-10.9c-.2-1.6-1.2-2.9-2.5-3.9l-.5-.4-.4.5c-.8.9-1.1 2.5-1 3.7.1.9.4 1.8.9 2.5-.4.2-.9.4-1.3.6-.9.3-1.8.4-2.7.4H.1l-.1.6c-.2 1.9.1 3.9.9 5.7l.4.7v.1c2.4 4 6.7 5.8 11.4 5.8 9 0 16.4-3.9 19.9-12.3 2.3.1 4.6-.5 5.7-2.7l.3-.5-.5-.3c-1.3-.8-3.1-.9-4.6-.5zm-12.9-1.6h-3.9v3.9h3.9v-3.9zm0-4.9h-3.9v3.9h3.9V5.6zm0-5h-3.9v3.9h3.9V.6zm4.8 9.9h-3.9v3.9h3.9v-3.9zm-14.5 0H7v3.9h3.9v-3.9zm4.9 0h-3.9v3.9h3.9v-3.9zm-9.7 0H2.2v3.9h3.9v-3.9zm9.7-4.9h-3.9v3.9h3.9V5.6zm-4.9 0H7v3.9h3.9V5.6z" fill="#061D2F" fill-rule="nonzero"/></svg>