<?xml version="1.0" encoding="UTF-8"?>
<svg width="95px" height="95px" viewBox="0 0 95 95" version="1.1" xmlns="http://www.w3.org/2000/svg" xmlns:xlink="http://www.w3.org/1999/xlink">
    <!-- Generator: Sketch 52 (66869) - http://www.bohemiancoding.com/sketch -->
    <title>gatsby-logo</title>
    <desc>Created with Sketch.</desc>
    <g id="Logos" stroke="none" stroke-width="1" fill="none" fill-rule="evenodd">
        <g id="gatsby-logo">
            <g id="Group">
                <g transform="translate(10.178571, 10.178571)" fill="#FFFFFF" id="Path">
                    <path d="M74.6428571,37.3214286 L50.8928571,37.3214286 L50.8928571,44.1071429 L67.1785714,44.1071429 C64.8035714,54.2857143 57.3392857,62.7678571 47.5,66.1607143 L8.48214286,27.1428571 C12.5535714,15.2678571 24.0892857,6.78571429 37.3214286,6.78571429 C47.5,6.78571429 56.6607143,11.875 62.4285714,19.6785714 L67.5178571,15.2678571 C60.7321429,6.10714286 49.875,0 37.3214286,0 C19.6785714,0 4.75,12.5535714 1.01785714,29.1785714 L45.8035714,73.9642857 C62.0892857,69.8928571 74.6428571,54.9642857 74.6428571,37.3214286 Z"></path>
                    <path d="M0,37.6607143 C0,47.1607143 3.73214286,56.3214286 10.8571429,63.4464286 C17.9821429,70.5714286 27.4821429,74.3035714 36.6428571,74.3035714 L0,37.6607143 Z"></path>
                </g>
                <path d="M47.5,0 C21.375,0 0,21.375 0,47.5 C0,73.625 21.375,95 47.5,95 C73.625,95 95,73.625 95,47.5 C95,21.375 73.625,0 47.5,0 Z M21.0357143,73.9642857 C13.9107143,66.8392857 10.1785714,57.3392857 10.1785714,48.1785714 L47.1607143,84.8214286 C37.6607143,84.4821429 28.1607143,81.0892857 21.0357143,73.9642857 Z M55.6428571,83.8035714 L11.1964286,39.3571429 C14.9285714,22.7321429 29.8571429,10.1785714 47.5,10.1785714 C60.0535714,10.1785714 70.9107143,16.2857143 77.6964286,25.4464286 L72.6071429,29.8571429 C66.8392857,22.0535714 57.6785714,16.9642857 47.5,16.9642857 C34.2678571,16.9642857 23.0714286,25.4464286 18.6607143,37.3214286 L57.6785714,76.3392857 C67.5178571,72.9464286 74.9821429,64.4642857 77.3571429,54.2857143 L61.0714286,54.2857143 L61.0714286,47.5 L84.8214286,47.5 C84.8214286,65.1428571 72.2678571,80.0714286 55.6428571,83.8035714 Z" id="Shape" fill="#663399" fill-rule="nonzero"></path>
            </g>
        </g>
    </g>
</svg>