<svg width="95" height="95" viewBox="0 0 95 95" xmlns="http://www.w3.org/2000/svg">
    <g fill="none" fill-rule="evenodd">
        <g fill="#FFF">
            <path d="M84.821 47.5h-23.75v6.786h16.286c-2.375 10.178-9.84 18.66-19.678 22.053L18.66 37.321C22.732 25.446 34.268 16.964 47.5 16.964c10.179 0 19.34 5.09 25.107 12.893l5.09-4.41C70.91 16.285 60.053 10.178 47.5 10.178c-17.643 0-32.571 12.553-36.304 29.178l44.786 44.786c16.286-4.072 28.84-19 28.84-36.643zM10.179 47.84c0 9.5 3.732 18.66 10.857 25.785C28.16 80.75 37.66 84.482 46.82 84.482L10.18 47.84z"/>
        </g>
        <path d="M47.5 0C21.375 0 0 21.375 0 47.5S21.375 95 47.5 95 95 73.625 95 47.5 73.625 0 47.5 0zM21.036 73.964C13.91 66.84 10.179 57.34 10.179 48.18L47.16 84.82c-9.5-.339-19-3.732-26.125-10.857zm34.607 9.84L11.196 39.357C14.93 22.732 29.857 10.18 47.5 10.18c12.554 0 23.41 6.107 30.196 15.267l-5.089 4.411C66.84 22.054 57.68 16.964 47.5 16.964c-13.232 0-24.429 8.482-28.84 20.357L57.68 76.34c9.839-3.393 17.303-11.875 19.678-22.053H61.071V47.5h23.75c0 17.643-12.553 32.571-29.178 36.304z" fill="#639" fill-rule="nonzero"/>
    </g>
</svg>
