<svg width="90" height="78" viewBox="0 0 90 78" xmlns="http://www.w3.org/2000/svg"><title>ghost-cli-logo</title><g fill="none" fill-rule="evenodd"><path stroke-opacity=".012" stroke="#000" stroke-width="0" d="M-1-7h92v92H-1z"/><path d="M8.583.682h72.834c5.11 0 7.666 2.556 7.666 7.667v61.333c0 5.111-2.555 7.667-7.666 7.667H8.583c-5.11 0-7.666-2.556-7.666-7.667V8.349C.917 3.238 3.472.682 8.583.682z" fill="#343F44"/><path d="M89.083 19.667H.917V8.349C.917 3.238 3.472.682 8.583.682h72.834c5.11 0 7.666 2.556 7.666 7.667v11.318z" fill="#C5D2D9"/><path d="M14.333 9.307c.64 0 .959.32.959.958 0 .64-.32.959-.959.959s-.958-.32-.958-.959c0-.264.094-.49.28-.677.188-.187.414-.281.678-.281M25.833 9.307c.64 0 .959.32.959.958 0 .64-.32.959-.959.959s-.958-.32-.958-.959c0-.264.094-.49.28-.677.188-.187.414-.281.678-.281M37.333 9.307c.64 0 .959.32.959.958 0 .64-.32.959-.959.959s-.958-.32-.958-.959c0-.264.094-.49.28-.677.188-.187.414-.281.678-.281" stroke="#343F44" stroke-width="4" stroke-linecap="round" stroke-linejoin="round"/><path stroke="#FFF" stroke-width="4" stroke-linecap="round" stroke-linejoin="round" d="M20.083 39.015l9.584 9.584-9.584 9.583M43.083 50.515h15.334"/></g></svg>