<?xml version="1.0" encoding="UTF-8"?>
<svg width="94px" height="82px" viewBox="0 0 94 82" version="1.1" xmlns="http://www.w3.org/2000/svg" xmlns:xlink="http://www.w3.org/1999/xlink">
    <!-- Generator: Sketch 52 (66869) - http://www.bohemiancoding.com/sketch -->
    <title>ghost-cli-logo</title>
    <desc>Created with Sketch.</desc>
    <g id="Logos" stroke="none" stroke-width="1" fill="none" fill-rule="evenodd">
        <g id="ghost-cli-logo" transform="translate(1.000000, -5.000000)">
            <polygon id="Stroke-1" stroke-opacity="0.0117647061" stroke="#000000" stroke-width="1.33333336e-11" points="0 0 91.9999962 0 91.9999962 91.9999962 0 91.9999962"></polygon>
            <g id="Group-11" transform="translate(1.000000, 7.666667)" stroke="#343F44" stroke-linecap="round" stroke-linejoin="round" stroke-width="4">
                <path d="M89.0833279,19 L0.916666552,19 L0.916666552,7.68199793 C0.916666552,2.57088764 3.47222181,0.0153324891 8.58333276,0.0153324891 L81.4166617,0.0153324891 C86.5277751,0.0153324891 89.0833279,2.57088764 89.0833279,7.68199793 L89.0833279,19 Z" id="Path" fill-opacity="0.1" fill="#343F44"></path>
                <path d="M8.58333276,0.0153324891 L81.4166617,0.0153324891 C86.5277751,0.0153324891 89.0833279,2.57088764 89.0833279,7.68199793 L89.0833279,69.0153287 C89.0833279,74.1264421 86.5277751,76.6819949 81.4166617,76.6819949 L8.58333276,76.6819949 C3.47222181,76.6819949 0.916666552,74.1264421 0.916666552,69.0153287 L0.916666552,7.68199793 C0.916666552,2.57088764 3.47222181,0.0153324891 8.58333276,0.0153324891 Z" id="Stroke-3"></path>
                <path d="M0.916666552,19.1819992 L89.0833279,19.1819992" id="Stroke-5"></path>
                <path d="M14.3333324,8.64033312 C14.9722206,8.64033312 15.2916657,8.95977819 15.2916657,9.5986664 C15.2916657,10.2375546 14.9722206,10.5569997 14.3333324,10.5569997 C13.6944434,10.5569997 13.3749991,10.2375546 13.3749991,9.5986664 C13.3749991,9.33402841 13.4685627,9.10814696 13.6556888,8.92102165 C13.8428145,8.73389673 14.0686963,8.64033312 14.3333324,8.64033312" id="Stroke-6"></path>
                <path d="M25.8333317,8.64033312 C26.4722199,8.64033312 26.791665,8.95977819 26.791665,9.5986664 C26.791665,10.2375546 26.4722199,10.5569997 25.8333317,10.5569997 C25.1944435,10.5569997 24.8749984,10.2375546 24.8749984,9.5986664 C24.8749984,9.33402841 24.9685621,9.10814696 25.155687,8.92102165 C25.3428138,8.73389673 25.5686957,8.64033312 25.8333317,8.64033312" id="Stroke-7"></path>
                <path d="M37.333331,8.64033312 C37.9722212,8.64033312 38.2916643,8.95977819 38.2916643,9.5986664 C38.2916643,10.2375546 37.9722212,10.5569997 37.333331,10.5569997 C36.6944409,10.5569997 36.3749978,10.2375546 36.3749978,9.5986664 C36.3749978,9.33402841 36.4685595,9.10814696 36.6556863,8.92102165 C36.8428131,8.73389673 37.068695,8.64033312 37.333331,8.64033312" id="Stroke-8"></path>
                <polyline id="Stroke-9" points="20.0833321 38.3486628 29.6666648 47.9319955 20.0833321 57.5153294"></polyline>
                <path d="M43.0833307,49.8486621 L58.4166631,49.8486621" id="Stroke-10"></path>
            </g>
        </g>
    </g>
</svg>