<svg width="30" height="30" viewBox="0 0 30 30" xmlns="http://www.w3.org/2000/svg"><title>Slice</title><g fill="none" fill-rule="evenodd"><rect stroke="#A4D037" fill-rule="nonzero" x=".5" y="4.5" width="29" height="21" rx="4"/><path d="M10.059 13.436c0 .794-.272 1.406-.814 1.834-.543.428-1.319.642-2.328.642h-.924V19H5.08v-7.853h2.035c1.962 0 2.944.763 2.944 2.289zm-4.066 1.691h.821c.81 0 1.395-.13 1.757-.392.361-.261.542-.68.542-1.256 0-.52-.17-.906-.51-1.16-.34-.255-.87-.382-1.59-.382h-1.02v3.19zm6.922.607V19h-.913v-7.853h2.154c.963 0 1.675.185 2.135.554.46.369.69.924.69 1.665 0 1.038-.526 1.74-1.579 2.105L17.534 19h-1.08l-1.9-3.266h-1.639zm0-.784h1.252c.644 0 1.117-.128 1.418-.384.3-.256.45-.64.45-1.152 0-.52-.152-.893-.458-1.122-.307-.23-.798-.344-1.475-.344h-1.187v3.002zm13.003.113c0 1.257-.318 2.245-.953 2.965-.636.72-1.52 1.08-2.651 1.08-1.157 0-2.05-.354-2.678-1.061-.628-.708-.942-1.706-.942-2.995 0-1.278.315-2.269.945-2.973.63-.703 1.525-1.055 2.686-1.055 1.128 0 2.008.358 2.642 1.074.634.716.95 1.705.95 2.965zm-6.257 0c0 1.063.226 1.87.679 2.42.453.55 1.11.824 1.974.824.87 0 1.527-.274 1.971-.822.444-.548.666-1.355.666-2.422 0-1.056-.221-1.858-.663-2.404-.442-.546-1.097-.819-1.963-.819-.87 0-1.532.275-1.985.825-.453.55-.68 1.349-.68 2.398z" fill="#A4D037"/></g></svg>