<svg width="94" height="82" viewBox="0 0 94 82" xmlns="http://www.w3.org/2000/svg">
    <g fill="none" fill-rule="evenodd">
        <path stroke-opacity=".012" stroke="#000" stroke-width="0" d="M1-5h92v92H1z"/>
        <g stroke="#343F44" stroke-linecap="round" stroke-linejoin="round" stroke-width="4">
            <path d="M91.083 21.667H2.917V10.349c0-5.111 2.555-7.667 7.666-7.667h72.834c5.11 0 7.666 2.556 7.666 7.667v11.318z" fill-opacity=".1" fill="#343F44"/>
            <path d="M10.583 2.682h72.834c5.11 0 7.666 2.556 7.666 7.667v61.333c0 5.111-2.555 7.667-7.666 7.667H10.583c-5.11 0-7.666-2.556-7.666-7.667V10.349c0-5.111 2.555-7.667 7.666-7.667zM2.917 21.849h88.166"/>
            <path d="M16.333 11.307c.64 0 .959.32.959.958 0 .64-.32.959-.959.959s-.958-.32-.958-.959c0-.264.094-.49.28-.677.188-.187.414-.281.678-.281M27.833 11.307c.64 0 .959.32.959.958 0 .64-.32.959-.959.959s-.958-.32-.958-.959c0-.264.094-.49.28-.677.188-.187.414-.281.678-.281M39.333 11.307c.64 0 .959.32.959.958 0 .64-.32.959-.959.959s-.958-.32-.958-.959c0-.264.094-.49.28-.677.188-.187.414-.281.678-.281M22.083 41.015l9.584 9.584-9.584 9.583M45.083 52.515h15.334"/>
        </g>
    </g>
</svg>
