<svg width="48" height="28" viewBox="0 0 48 28" xmlns="http://www.w3.org/2000/svg" xmlns:xlink="http://www.w3.org/1999/xlink"><title>Group</title><defs><linearGradient x1="50%" y1="2.251%" x2="50%" y2="98.293%" id="a"><stop stop-color="#B0DB44" offset="0%"/><stop stop-color="#90BD20" offset="100%"/></linearGradient><path d="M12.022 12.953h.797c.745 0 1.302-.147 1.672-.441.37-.295.555-.723.555-1.285 0-.568-.155-.987-.465-1.258-.31-.271-.796-.406-1.457-.406h-1.102v3.39zm5.469-1.812c0 1.229-.384 2.169-1.152 2.82-.769.651-1.861.976-3.278.976h-1.039V19H9.6V7.578h3.649c1.385 0 2.439.298 3.16.895.721.596 1.082 1.485 1.082 2.668zm4.41 1.507h.78c.766 0 1.331-.127 1.696-.382.364-.256.547-.657.547-1.204 0-.541-.186-.927-.559-1.156-.372-.229-.95-.344-1.73-.344H21.9v3.086zm0 1.97V19h-2.423V7.578h3.329c1.552 0 2.7.283 3.445.848.745.565 1.117 1.423 1.117 2.574 0 .672-.185 1.27-.555 1.793-.37.523-.893.934-1.57 1.23 1.719 2.568 2.839 4.227 3.36 4.977h-2.688l-2.727-4.383H21.9zm18.338-1.345c0 1.891-.469 3.344-1.406 4.36-.938 1.015-2.281 1.523-4.031 1.523-1.75 0-3.094-.508-4.032-1.523-.937-1.016-1.406-2.474-1.406-4.375 0-1.901.47-3.353 1.41-4.356.94-1.002 2.288-1.504 4.043-1.504 1.756 0 3.098.506 4.028 1.516.93 1.01 1.394 2.464 1.394 4.36zm-8.336 0c0 1.276.242 2.237.727 2.883.484.646 1.208.969 2.172.969 1.932 0 2.898-1.284 2.898-3.852 0-2.572-.96-3.859-2.883-3.859-.963 0-1.69.324-2.18.973-.489.648-.734 1.61-.734 2.886z" id="c"/><filter x="-6.5%" y="-8.5%" width="113.1%" height="134%" filterUnits="objectBoundingBox" id="b"><feOffset dy="1" in="SourceAlpha" result="shadowOffsetOuter1"/><feGaussianBlur stdDeviation=".5" in="shadowOffsetOuter1" result="shadowBlurOuter1"/><feColorMatrix values="0 0 0 0 0 0 0 0 0 0 0 0 0 0 0 0 0 0 0.152598505 0" in="shadowBlurOuter1"/></filter></defs><g fill="none" fill-rule="evenodd"><rect fill="url(#a)" fill-rule="nonzero" width="48" height="28" rx="4"/><use fill="#000" filter="url(#b)" xlink:href="#c"/><use fill="#FFF" xlink:href="#c"/></g></svg>