<svg width="82" height="94" viewBox="0 0 82 94" xmlns="http://www.w3.org/2000/svg">
    <g fill="none" fill-rule="evenodd">
        <path stroke-opacity=".012" stroke="#000" stroke-width="0" d="M-5 1h92v92H-5z"/>
        <g stroke="#AD26B4" stroke-linecap="round" stroke-linejoin="round" stroke-width="4">
            <path d="M5.906 2.917h23c2.555 0 3.833 1.277 3.833 3.833v80.5c0 2.556-1.278 3.833-3.833 3.833h-23c-2.556 0-3.834-1.277-3.834-3.833V6.75c0-2.556 1.278-3.833 3.834-3.833z" fill-opacity=".1" fill="#AD26B4"/>
            <path d="M11.656 10.583h11.5c1.278 0 1.916.64 1.916 1.917V24c0 1.278-.638 1.917-1.916 1.917h-11.5c-1.278 0-1.917-.64-1.917-1.917V12.5c0-1.278.64-1.917 1.917-1.917zM11.656 33.583h11.5c1.278 0 1.916.64 1.916 1.917V47c0 1.278-.638 1.917-1.916 1.917h-11.5c-1.278 0-1.917-.64-1.917-1.917V35.5c0-1.278.64-1.917 1.917-1.917zM11.656 56.583h11.5c1.278 0 1.916.64 1.916 1.917V70c0 1.278-.638 1.917-1.916 1.917h-11.5c-1.278 0-1.917-.64-1.917-1.917V58.5c0-1.278.64-1.917 1.917-1.917z" fill="#FFF"/>
            <path d="M21.24 81.5c0 2.556-1.279 3.833-3.834 3.833-2.556 0-3.834-1.277-3.834-3.833s1.278-3.833 3.834-3.833c2.555 0 3.833 1.277 3.833 3.833zM31.221 90.366L79 35.258c.69-.803.996-1.733.916-2.789-.08-1.056-.522-1.93-1.326-2.62L66.618 19.566M32.74 86.134l25.682-69.276c.888-2.395.134-4.037-2.261-4.925L39.083 5.6"/>
        </g>
    </g>
</svg>
