<?xml version="1.0" encoding="UTF-8"?>
<svg width="82px" height="94px" viewBox="0 0 82 94" version="1.1" xmlns="http://www.w3.org/2000/svg" xmlns:xlink="http://www.w3.org/1999/xlink">
    <!-- Generator: Sketch 52 (66869) - http://www.bohemiancoding.com/sketch -->
    <title>gscan-logo</title>
    <desc>Created with Sketch.</desc>
    <g id="Logos" stroke="none" stroke-width="1" fill="none" fill-rule="evenodd">
        <g id="gscan-logo" transform="translate(-5.000000, 1.000000)">
            <polygon id="Stroke-1" stroke-opacity="0.0117647061" stroke="#000000" stroke-width="1.33333336e-11" points="0 0 91.9999962 0 91.9999962 91.9999962 0 91.9999962"></polygon>
            <g id="Group-11" transform="translate(6.833333, 1.000000)" stroke="#AD26B4" stroke-linecap="round" stroke-linejoin="round" stroke-width="4">
                <path d="M4.07249935,0.916666552 L27.0724991,0.916666552 C29.6280558,0.916666552 30.9058322,2.19444416 30.9058322,4.74999966 L30.9058322,85.2499948 C30.9058322,87.8055477 29.6280558,89.0833279 27.0724991,89.0833279 L4.07249935,89.0833279 C1.51694382,89.0833279 0.239166242,87.8055477 0.239166242,85.2499948 L0.239166242,4.74999966 C0.239166242,2.19444416 1.51694382,0.916666552 4.07249935,0.916666552 Z" id="Stroke-9" fill-opacity="0.1" fill="#AD26B4"></path>
                <path d="M9.82250015,8.58333276 L21.3224995,8.58333276 C22.6002778,8.58333276 23.239166,9.22222174 23.239166,10.4999993 L23.239166,21.9999986 C23.239166,23.277777 22.6002778,23.9166652 21.3224995,23.9166652 L9.82250015,23.9166652 C8.54472181,23.9166652 7.90583245,23.277777 7.90583245,21.9999986 L7.90583245,10.4999993 C7.90583245,9.22222174 8.54472181,8.58333276 9.82250015,8.58333276 Z" id="Stroke-3" fill="#FFFFFF"></path>
                <path d="M9.82250015,31.5833314 L21.3224995,31.5833314 C22.6002778,31.5833314 23.239166,32.2222215 23.239166,33.4999979 L23.239166,44.9999972 C23.239166,46.2777737 22.6002778,46.9166638 21.3224995,46.9166638 L9.82250015,46.9166638 C8.54472181,46.9166638 7.90583245,46.2777737 7.90583245,44.9999972 L7.90583245,33.4999979 C7.90583245,32.2222215 8.54472181,31.5833314 9.82250015,31.5833314 Z" id="Stroke-5" fill="#FFFFFF"></path>
                <path d="M9.82250015,54.58333 L21.3224995,54.58333 C22.6002778,54.58333 23.239166,55.2222201 23.239166,56.4999966 L23.239166,67.9999959 C23.239166,69.2777761 22.6002778,69.9166624 21.3224995,69.9166624 L9.82250015,69.9166624 C8.54472181,69.9166624 7.90583245,69.2777761 7.90583245,67.9999959 L7.90583245,56.4999966 C7.90583245,55.2222201 8.54472181,54.58333 9.82250015,54.58333 Z" id="Stroke-6" fill="#FFFFFF"></path>
                <path d="M19.405831,79.4999952 C19.405831,82.055548 18.1280527,83.3333283 15.5724979,83.3333283 C13.0169431,83.3333283 11.7391648,82.055548 11.7391648,79.4999952 C11.7391648,76.9444423 13.0169431,75.6666621 15.5724979,75.6666621 C18.1280527,75.6666621 19.405831,76.9444423 19.405831,79.4999952 Z" id="Stroke-7"></path>
                <path d="M29.3878327,88.3664946 L77.166495,33.2584991 C77.8573153,32.4552755 78.1626747,31.5254607 78.0825619,30.4690619 C78.0024491,29.4126613 77.5603738,28.5395292 76.7563283,27.8496649 L64.7848329,17.5648318" id="Stroke-8"></path>
                <path d="M30.9058322,84.1344949 L56.5891632,14.8584956 C57.4766627,12.4629173 56.7227737,10.8209743 54.3274959,9.93266409 L37.2499974,3.59999992" id="Stroke-10"></path>
            </g>
        </g>
    </g>
</svg>