<svg width="224" height="54" viewBox="0 0 224 54" xmlns="http://www.w3.org/2000/svg">
    <path d="M82.44 0c7.786-.033 15.772 2.19 21.824 7.201 3.102 2.499 5.607 5.634 7.735 8.972 3.828-6.16 9.42-11.393 16.315-13.915 8.402-3.14 17.9-2.923 26.288.154 7.327 2.663 13.733 7.302 19.543 12.405 4.545 3.994 8.752 8.363 13.432 12.207 2.467 1.992 5.117 3.859 8.15 4.89 4.032 1.37 8.8.078 11.684-3.014 2.67-2.893 2.505-7.895-.436-10.538-1.87-1.606-5.069-1.283-6.392.858-1.158 1.699-.509 3.816.398 5.46-2.409-1.75-4.822-4.19-4.813-7.374-.498-3.68 2.244-6.926 5.53-8.214 6.41-2.552 14.45-.352 18.496 5.267 3.891 5.243 4.201 12.135 3.523 18.38-.82 5.933-4.153 11.47-9.096 14.904-6.938 4.93-15.734 6.458-24.102 6.352-8.044-.217-16.006-2.026-23.459-5.016-12.463-4.987-24.126-11.88-36.997-15.863-4.269-1.65-8.81-2.542-13.374-2.817-3.634-.024-7.08-.193-10.51.039-4.187.4-8.35 1.254-12.27 2.782-13.088 4.052-24.926 11.118-37.627 16.115-10.724 4.152-22.605 6.082-33.988 3.776-6.367-1.283-12.706-4.085-17.004-9.077C1.612 39.69-.15 34.008.022 28.442-.18 23.19.977 17.61 4.466 13.52c3.246-3.877 8.475-5.845 13.496-5.41 3.231.149 6.507 1.552 8.504 4.142 1.57 2.05 1.667 4.857.978 7.254-.838 2.156-2.568 3.84-4.448 5.132.96-1.611 1.541-3.738.407-5.422-1.395-2.242-4.831-2.469-6.648-.627-2.239 2.292-2.709 6.034-1.207 8.841 1.628 2.943 4.997 4.621 8.257 4.963 4.934.425 9.212-2.619 12.832-5.57 7.491-6.42 14.236-13.765 22.547-19.196C66.036 3.054 74.11-.038 82.44.001z" fill="#423426" fill-rule="evenodd"/>
</svg>
