<?xml version="1.0" encoding="UTF-8"?>
<svg width="113px" height="127px" viewBox="0 0 113 127" version="1.1" xmlns="http://www.w3.org/2000/svg" xmlns:xlink="http://www.w3.org/1999/xlink">
    <!-- Generator: Sketch 52 (66869) - http://www.bohemiancoding.com/sketch -->
    <title>hugo-logo</title>
    <desc>Created with Sketch.</desc>
    <g id="Logos" stroke="none" stroke-width="1" fill="none" fill-rule="evenodd">
        <g id="hugo-logo">
            <path d="M109,81.8900455 L109,41.8359065 C109,36.6272368 106.243177,31.8084474 101.755646,29.1697114 C92.1241181,23.5072734 75.1084306,13.5030761 64.6875089,7.37573054 C59.1836854,4.14136225 52.3472883,4.21409622 46.9154958,7.56575623 C37.6922532,13.256698 23.3024232,22.1354845 14.0136979,27.8680354 C8.41165026,31.3245372 5,37.4381223 5,44.0234953 L5,85.0336602 C5,91.5659571 8.46403644,97.6068082 14.0988254,100.903099 L48.3855831,120.958017 C52.9431811,123.624929 58.5714218,123.68292 63.1846802,121.112003 C73.1969897,115.53049 90.9297131,105.649154 101.145019,99.9552636 C105.990741,97.252312 108.993124,92.1379999 108.993124,86.5879393 L108.993124,81.8897179 L109,81.8900455 Z" id="Path" fill="#FF4088"></path>
            <path d="M55.5639327,0 L55.6547684,0 L55.7357664,0.000984717495 L56.199455,0.000984717495 L56.2804529,0.00426710914 L56.2902908,0.00426710914 L56.3712887,0.00754950079 L56.3801427,0.00754950079 L56.4621244,0.0108318924 L56.468683,0.0108318924 L56.5506647,0.0141142841 L56.5605025,0.0141142841 L56.639205,0.0173966757 L56.6490428,0.0173966757 L56.7277452,0.0206790674 L56.7343038,0.0206790674 L56.8162855,0.023961459 L56.8261233,0.023961459 L56.908105,0.0305262423 L56.9179428,0.0305262423 L56.9966453,0.0370910256 L57.0032038,0.0370910256 L57.0819063,0.0436558089 L57.0917441,0.0436558089 L57.1737258,0.0502205922 L57.1802843,0.0502205922 L57.2589868,0.0567853755 L57.2688246,0.0567853755 L57.3508063,0.0633501588 L57.3606441,0.0633501588 L57.4426259,0.0699149421 L57.4524637,0.0699149421 L57.5344454,0.0764797254 L57.5442832,0.0764797254 L57.6229856,0.0830445087 L57.6328235,0.0830445087 L57.7115259,0.089609292 L57.7213637,0.089609292 L57.8033454,0.0961740753 L57.8131832,0.0961740753 L57.895165,0.10602125 L57.9050028,0.10602125 L57.9869845,0.115868425 L57.993543,0.115868425 L58.0722455,0.1257156 L58.0820833,0.1257156 L58.1607857,0.135562775 L58.1706236,0.135562775 L58.2526053,0.14540995 L58.2624431,0.14540995 L58.3444248,0.155257125 L58.3509833,0.155257125 L58.4296858,0.1651043 L58.4395236,0.1651043 L58.5215053,0.174951475 L58.5313431,0.174951475 L58.6100456,0.188081041 L58.6198834,0.191363433 L58.7018651,0.204493 L58.7117029,0.204493 L58.7904054,0.217622566 L58.7969639,0.217622566 L58.8789456,0.230752133 L58.8887834,0.230752133 L58.9674859,0.2438817 L58.9773237,0.2438817 L59.0560262,0.257011266 L59.0625847,0.257011266 L59.1445664,0.270140833 L59.1544042,0.270140833 L59.2331067,0.283270399 L59.2429445,0.286552791 L59.3216469,0.299682358 L59.3314848,0.302964749 L59.4101872,0.319376707 L59.420025,0.319376707 L59.4987275,0.332506274 L59.5085653,0.332506274 L59.5872677,0.348918232 L59.5971055,0.348918232 L59.6790873,0.365330191 L59.6856458,0.365330191 L59.7643483,0.381742149 L59.7741861,0.381742149 L59.8528885,0.398154107 L59.8594471,0.398154107 L59.9414288,0.414566065 L59.9512666,0.417848457 L60.0332483,0.434260415 L60.0398068,0.434260415 L60.1185093,0.453954765 L60.1283471,0.457237157 L60.2070496,0.476931507 L60.2168874,0.476931507 L60.2988691,0.496625856 L60.3054276,0.499908248 L60.3841301,0.516320206 L60.3939679,0.519602598 L60.4726703,0.536014556 L60.4792289,0.539296948 L60.5579313,0.558991298 L60.5677691,0.558991298 L60.6464716,0.578685648 L60.6563094,0.581968039 L60.7350119,0.601662389 L60.7415704,0.604944781 L60.8235521,0.624639131 L60.8301107,0.627921522 L60.9088131,0.647615872 L60.9186509,0.650898264 L60.9973534,0.670592614 L61.0039119,0.670592614 L61.0826144,0.693569355 L61.0924522,0.693569355 L61.1744339,0.713263705 L61.1842717,0.716546097 L61.2629742,0.736240447 L61.272812,0.736240447 L61.3515144,0.759217188 L61.3613522,0.76249958 L61.4400547,0.785476322 L61.4498925,0.788758713 L61.5285949,0.811735455 L61.5384327,0.815017846 L61.6171352,0.837994588 L61.6236937,0.84127698 L61.7023962,0.864253721 L61.712234,0.867536113 L61.7909364,0.890512854 L61.8007743,0.893795246 L61.8794767,0.916771988 L61.8893145,0.920054379 L61.968017,0.946313512 L61.9745755,0.949595904 L62.053278,0.975855037 L62.0631158,0.975855037 L62.1418182,1.00211417 L62.151656,1.00211417 L62.2303585,1.0283733 L62.2401963,1.0316557 L62.3188987,1.05791483 L62.3287366,1.06119722 L62.407439,1.08745635 L62.4139975,1.09073874 L62.4927,1.11699788 L62.5025378,1.12028027 L62.5812403,1.1465394 L62.5877988,1.14982179 L62.6665013,1.17608093 L62.6730598,1.17936332 L62.748483,1.20562245 L62.7583208,1.20890484 L62.833744,1.23516398 L62.8435818,1.23844637 L62.919005,1.26798789 L62.9288428,1.27127029 L63.0075452,1.30081181 L63.017383,1.3040942 L63.0928062,1.33363573 L63.0993648,1.33691812 L63.1780672,1.36317725 L63.1846257,1.36645964 L63.2633282,1.39600117 L63.273166,1.39928356 L63.3518685,1.42882508 L63.3617063,1.43210748 L63.4371294,1.461649 L63.4469673,1.46493139 L63.5223904,1.49775531 L63.528949,1.5010377 L63.6076514,1.53057923 L63.6174892,1.53386162 L63.6929124,1.56668553 L63.7027502,1.56996793 L63.7814527,1.60279184 L63.7912905,1.60607423 L63.8699929,1.63889815 L63.8765515,1.64218054 L63.9552539,1.67500446 L63.9618125,1.67828685 L64.0372357,1.71111077 L64.0437942,1.71439316 L64.1192174,1.74721707 L64.1257759,1.75049947 L64.2044784,1.78332338 L64.2110369,1.78660577 L64.2864601,1.81942969 L64.2962979,1.82271208 L64.3717211,1.855536 L64.3815589,1.85881839 L64.4569821,1.89164231 L64.4635406,1.8949247 L64.5389638,1.93103101 L64.5488016,1.9343134 L64.6242248,1.97041971 L64.6340626,1.9737021 L64.7094858,2.00980841 L64.7160443,2.0130908 L64.7914675,2.04919711 L64.7980261,2.0524795 L64.8734492,2.08858581 L64.883287,2.0918682 L64.9587102,2.12797451 L64.968548,2.1312569 L65.0439712,2.16736321 L65.053809,2.1706456 L65.1292322,2.20675191 L65.1357908,2.2100343 L65.2112139,2.249423 L65.2177725,2.25598778 L65.2931957,2.29209409 L65.2997542,2.29537648 L65.3718981,2.33476518 L65.3817359,2.33804757 L65.4571591,2.37415388 L65.4637176,2.37743627 L65.5391408,2.41682497 L65.5489786,2.42010736 L65.6211226,2.45949606 L65.6309604,2.46606085 L65.7063835,2.50544955 L65.7162214,2.50873194 L65.7916445,2.54812064 L65.7982031,2.55140303 L65.870347,2.59079173 L65.8801848,2.59735651 L65.955608,2.63674521 L65.9621665,2.64330999 L66.0343104,2.68598109 L66.040869,2.69254587 L66.1130129,2.73521696 L66.1228507,2.73849935 L66.1949946,2.78117044 L66.2015532,2.78445284 L66.2736971,2.82712393 L66.2802556,2.83368871 L66.3523995,2.8763598 L66.3622373,2.88292459 L66.431102,2.92559568 L66.4376605,2.92559568 L103.591777,24.7764769 L103.654084,24.8125832 L103.660642,24.819148 L103.722948,24.8552543 L103.732786,24.8585367 L103.791813,24.8979254 L103.798371,24.9044902 L103.857398,24.9405965 L103.863957,24.9471612 L103.922984,24.9832676 L103.929542,24.9865499 L103.988569,25.0226563 L103.995128,25.0259386 L104.054154,25.062045 L104.060713,25.0653273 L104.11974,25.1014337 L104.129578,25.104716 L104.188604,25.1441047 L104.195163,25.1473871 L104.25419,25.1867758 L104.264028,25.1900582 L104.323054,25.2261645 L104.329613,25.2294469 L104.38864,25.2688356 L104.395198,25.2754004 L104.454225,25.3147891 L104.460784,25.3213539 L104.516531,25.3574602 L104.526369,25.3607426 L104.585396,25.4001313 L104.591954,25.4034137 L104.650981,25.4428024 L104.65754,25.4460848 L104.713287,25.4854735 L104.719846,25.4887559 L104.775594,25.5281446 L104.782152,25.531427 L104.8379,25.5708157 L104.844458,25.5773804 L104.900206,25.6167691 L104.906764,25.6200515 L104.962512,25.6627226 L104.97235,25.6692874 L105.028097,25.7086761 L105.034656,25.7119585 L105.090403,25.7513472 L105.096962,25.7546296 L105.152709,25.7940183 L105.159268,25.8005831 L105.215016,25.8399718 L105.221574,25.8432542 L105.277322,25.8826429 L105.28388,25.8892077 L105.339628,25.9285964 L105.346186,25.9351611 L105.401934,25.9778322 L105.411772,25.984397 L105.46424,26.0270681 L105.474078,26.0336329 L105.529825,26.076304 L105.539663,26.0795864 L105.595411,26.1222575 L105.601969,26.1288222 L105.657717,26.1714933 L105.664275,26.1780581 L105.716744,26.2207292 L105.726582,26.227294 L105.782329,26.2732475 L105.792167,26.2830946 L105.897104,26.3684368 L105.910221,26.378284 L106.015157,26.4669086 L106.028274,26.4767558 L106.13649,26.5653803 L106.149607,26.5752275 L106.257823,26.6638521 L106.27094,26.6736993 L106.375877,26.7623238 L106.388994,26.7754534 L106.49393,26.864078 L106.507048,26.8739251 L106.608705,26.9658321 L106.621822,26.9756793 L106.723479,27.0675863 L106.736596,27.0774334 L106.838254,27.1726228 L106.851371,27.18247 L106.949749,27.2743769 L106.962866,27.2842241 L107.064523,27.3794135 L107.07764,27.392543 L107.176018,27.4877324 L107.189135,27.500862 L107.287514,27.5960513 L107.300631,27.6091809 L107.395729,27.7043702 L107.408846,27.7174998 L107.503945,27.8159715 L107.517062,27.8291011 L107.612161,27.9275729 L107.621999,27.9407024 L107.717098,28.0391742 L107.730215,28.0523037 L107.822034,28.1507755 L107.835151,28.1639051 L107.926971,28.2623768 L107.940088,28.2755064 L108.031908,28.3739781 L108.045025,28.3871077 L108.136844,28.4888618 L108.149961,28.5019914 L108.238502,28.6070279 L108.248339,28.6201575 L108.340159,28.7219116 L108.353276,28.7350412 L108.441816,28.8400777 L108.454933,28.8532073 L108.543474,28.9582438 L108.553311,28.9713734 L108.641852,29.0764099 L108.654969,29.0895395 L108.74023,29.194576 L108.750067,29.2077056 L108.835328,29.3127421 L108.848446,29.3258717 L108.933707,29.4341906 L108.943544,29.4473202 L109.025526,29.5556391 L109.035364,29.5687687 L109.117346,29.6770876 L109.127183,29.6902172 L109.209165,29.7985361 L109.219003,29.8149481 L109.300985,29.9265494 L109.310822,29.9396789 L109.392804,30.0479979 L109.402642,30.0644098 L109.481344,30.1760111 L109.491182,30.1891407 L109.569885,30.300742 L109.579723,30.3138716 L109.658425,30.4254729 L109.668263,30.4418849 L109.743686,30.5534862 L109.753524,30.5698981 L109.828947,30.6847819 L109.838785,30.7011938 L109.910929,30.8127951 L109.920766,30.8259247 L109.99291,30.937526 L110.002748,30.9506556 L110.078171,31.0655393 L110.088009,31.0786688 L110.160153,31.1935526 L110.169991,31.2099645 L110.238856,31.3248482 L110.248693,31.3412602 L110.320837,31.4561439 L110.330675,31.4725558 L110.39954,31.5874396 L110.409378,31.6038515 L110.478242,31.7220176 L110.48808,31.7351472 L110.553665,31.8533133 L110.563503,31.8697252 L110.629089,31.9878913 L110.638926,32.0043033 L110.704512,32.1224694 L110.71435,32.1388814 L110.779935,32.2570474 L110.786493,32.2734594 L110.852079,32.3949079 L110.858637,32.4113199 L110.920944,32.5327683 L110.927502,32.5491803 L110.989808,32.6706288 L110.999646,32.6837584 L111.058673,32.8084892 L111.065231,32.8249012 L111.127537,32.9463497 L111.134096,32.9627617 L111.193123,33.0842101 L111.202961,33.1006221 L111.258708,33.225353 L111.265267,33.2417649 L111.321014,33.3664958 L111.327573,33.3829078 L111.38332,33.5076387 L111.389879,33.5240506 L111.445627,33.6487815 L111.452185,33.6651935 L111.504653,33.7899243 L111.511212,33.8063363 L111.56368,33.9310672 L111.570239,33.9474791 L111.619428,34.0754924 L111.625986,34.0919044 L111.675175,34.2166353 L111.681734,34.2330472 L111.730923,34.3610605 L111.737481,34.3774725 L111.78667,34.5054857 L111.793229,34.5218977 L111.842418,34.649911 L111.848977,34.6663229 L111.894886,34.7943362 L111.901445,34.8107482 L111.944075,34.9387614 L111.950634,34.9551734 L111.993264,35.0831867 L111.999823,35.0995986 L112.042453,35.2276119 L112.049012,35.2440239 L112.091643,35.3753195 L112.094922,35.3917315 L112.134273,35.5197447 L112.140832,35.5361567 L112.180183,35.6674524 L112.183462,35.6838643 L112.222813,35.81516 L112.229372,35.831572 L112.268723,35.9628676 L112.275282,35.9792796 L112.311354,36.1105752 L112.317912,36.1269872 L112.353984,36.2582829 L112.357263,36.2746948 L112.390056,36.4059905 L112.396615,36.4256848 L112.432686,36.5602629 L112.435966,36.5766749 L112.468758,36.7112529 L112.475317,36.7276649 L112.50483,36.8622429 L112.511389,36.8786549 L112.544182,37.0132329 L112.547461,37.0329273 L112.576974,37.1675054 L112.580254,37.1839173 L112.609767,37.3184954 L112.613046,37.3349073 L112.63928,37.4694854 L112.64256,37.4858973 L112.668794,37.6204754 L112.672073,37.6368874 L112.698307,37.7714654 L112.701587,37.7878774 L112.724541,37.9257378 L112.727821,37.9421498 L112.750776,38.0767278 L112.754055,38.0964222 L112.77701,38.2342826 L112.780289,38.253977 L112.799965,38.3918374 L112.803244,38.4115318 L112.822919,38.5461098 L112.822919,38.5592394 L112.832757,38.631452 L112.832757,38.6380168 L112.839316,38.706947 L112.839316,38.7167942 L112.849154,38.7857244 L112.849154,38.7922892 L112.858991,38.8612194 L112.858991,38.8710666 L112.868829,38.9399968 L112.872109,38.949844 L112.881946,39.0187742 L112.881946,39.0286214 L112.888505,39.0975516 L112.891784,39.1041164 L112.898343,39.1730467 L112.901622,39.1828938 L112.90818,39.2518241 L112.90818,39.2616712 L112.914739,39.3306015 L112.918018,39.3404486 L112.924577,39.4093789 L112.927856,39.419226 L112.934415,39.4881563 L112.934415,39.4980034 L112.940973,39.5669337 L112.940973,39.5767808 L112.947532,39.6457111 L112.947532,39.6555582 L112.95409,39.7244885 L112.95409,39.7343356 L112.960649,39.8032659 L112.960649,39.813113 L112.963928,39.8820433 L112.963928,39.8918904 L112.967207,39.964103 L112.967207,39.9739502 L112.973766,40.0461628 L112.973766,40.0527276 L112.977045,40.1216578 L112.977045,40.131505 L112.980324,40.2004352 L112.980324,40.2102824 L112.983604,40.2792126 L112.983604,40.2890598 L112.986883,40.35799 L112.986883,40.3678372 L112.990162,40.4400498 L112.990162,40.449897 L112.993441,40.5188272 L112.993441,40.5286744 L112.996721,40.5976046 L112.996721,40.6041694 L113,40.6730996 L113,86.4952871 L112.996721,86.5707821 L112.996721,86.6659714 L112.993441,86.7414664 L112.993441,86.7513136 L112.990162,86.8235262 L112.990162,86.830091 L112.986883,86.905586 L112.986883,86.9154332 L112.983604,86.9876458 L112.983604,86.9942106 L112.980324,87.0664232 L112.980324,87.0762704 L112.977045,87.148483 L112.973766,87.1583302 L112.970487,87.2305428 L112.970487,87.24039 L112.967207,87.3126026 L112.967207,87.3191674 L112.963928,87.3946624 L112.963928,87.4045095 L112.95737,87.4800045 L112.95737,87.4865693 L112.950811,87.5620643 L112.950811,87.5719115 L112.944252,87.6441241 L112.944252,87.6539713 L112.940973,87.7261839 L112.940973,87.7360311 L112.934415,87.8082437 L112.934415,87.8180909 L112.927856,87.8903035 L112.927856,87.9001507 L112.921298,87.9723633 L112.921298,87.9822105 L112.914739,88.0544231 L112.91146,88.0609879 L112.904901,88.1364829 L112.901622,88.1463301 L112.895063,88.2185427 L112.895063,88.2283898 L112.888505,88.3006025 L112.885226,88.3104496 L112.875388,88.3826623 L112.875388,88.3925094 L112.86555,88.464722 L112.86555,88.4712868 L112.855712,88.5434994 L112.855712,88.5533466 L112.845874,88.6255592 L112.842595,88.6354064 L112.832757,88.7109014 L112.829478,88.7207486 L112.81964,88.7929612 L112.816361,88.8028084 L112.806523,88.875021 L112.806523,88.8848682 L112.796685,88.9570808 L112.796685,88.966928 L112.786848,89.0391406 L112.783568,89.0489878 L112.77373,89.1212004 L112.770451,89.1310475 L112.757334,89.2032602 L112.757334,89.2098249 L112.747496,89.2820376 L112.747496,89.2886023 L112.734379,89.360815 L112.7311,89.3706621 L112.721262,89.4428748 L112.717983,89.4527219 L112.708145,89.5249345 L112.708145,89.5314993 L112.695028,89.6037119 L112.695028,89.6102767 L112.681911,89.6824893 L112.681911,89.6890541 L112.668794,89.7612667 L112.668794,89.7711139 L112.655677,89.8400441 L112.652397,89.8498913 L112.63928,89.9188215 L112.636001,89.9286687 L112.622884,90.0008813 L112.619605,90.0107285 L112.603208,90.0829411 L112.603208,90.0895059 L112.586812,90.1617185 L112.586812,90.1682833 L112.573695,90.2372135 L112.573695,90.2470607 L112.557299,90.3192733 L112.557299,90.3258381 L112.544182,90.3980507 L112.540902,90.4046155 L112.524506,90.4735457 L112.524506,90.4801105 L112.50811,90.5490407 L112.50811,90.5588879 L112.491713,90.6278181 L112.488434,90.6376653 L112.472038,90.7065955 L112.468758,90.7164427 L112.452362,90.7853729 L112.449083,90.7919377 L112.432686,90.8608679 L112.429407,90.8674327 L112.413011,90.936363 L112.409732,90.9462101 L112.390056,91.0151404 L112.386777,91.0249875 L112.37038,91.0939178 L112.367101,91.1037649 L112.347425,91.1726952 L112.347425,91.1825423 L112.32775,91.2547549 L112.324471,91.2646021 L112.304795,91.3335323 L112.304795,91.3433795 L112.285119,91.4123097 L112.28184,91.4221569 L112.262164,91.4910871 L112.258885,91.5009343 L112.23921,91.5731469 L112.23593,91.5797117 L112.216255,91.6486419 L112.212975,91.6552067 L112.1933,91.724137 L112.190021,91.7339841 L112.167066,91.8029144 L112.163786,91.8127615 L112.144111,91.8816917 L112.140832,91.8882565 L112.121156,91.9571868 L112.117877,91.9670339 L112.098201,92.0359642 L112.094922,92.0425289 L112.071967,92.1114592 L112.068688,92.1213063 L112.045733,92.1902366 L112.042453,92.2000837 L112.019499,92.269014 L112.016219,92.2788611 L111.993264,92.3477914 L111.989985,92.3576385 L111.96703,92.4265688 L111.963751,92.4331335 L111.940796,92.5020638 L111.937517,92.5119109 L111.914562,92.5808412 L111.911283,92.5906883 L111.888328,92.6596186 L111.885049,92.6661834 L111.862094,92.7351136 L111.858814,92.7449608 L111.83586,92.813891 L111.83258,92.8237382 L111.806346,92.889386 L111.803067,92.8992332 L111.780112,92.964881 L111.776833,92.9747282 L111.753878,93.040376 L111.750599,93.0502232 L111.727644,93.1191534 L111.724364,93.1290006 L111.69813,93.1979308 L111.694851,93.207778 L111.668617,93.2734258 L111.665338,93.283273 L111.639103,93.3489208 L111.635824,93.358768 L111.60959,93.4244158 L111.606311,93.434263 L111.580077,93.4999108 L111.576797,93.509758 L111.550563,93.5754058 L111.547284,93.585253 L111.52105,93.6509008 L111.51777,93.6574656 L111.488257,93.7231135 L111.484978,93.7329606 L111.455464,93.8018909 L111.452185,93.811738 L111.425951,93.8773859 L111.422672,93.887233 L111.393158,93.9528809 L111.389879,93.9627281 L111.360366,94.0283759 L111.357086,94.0382231 L111.327573,94.1038709 L111.324294,94.1104357 L111.29478,94.1760835 L111.291501,94.1859307 L111.261987,94.2515785 L111.258708,94.2581433 L111.229195,94.3237911 L111.225916,94.3303559 L111.196402,94.3960038 L111.193123,94.4025685 L111.163609,94.4682164 L111.16033,94.4747812 L111.127537,94.540429 L111.124258,94.5469938 L111.091465,94.6093592 L111.088186,94.6192064 L111.058673,94.6848542 L111.055394,94.691419 L111.022601,94.7537844 L111.019322,94.7636316 L110.989808,94.8292795 L110.986529,94.8358442 L110.953736,94.9014921 L110.950457,94.9113392 L110.917664,94.9769871 L110.914385,94.9835519 L110.881592,95.0459173 L110.878313,95.0524821 L110.84552,95.1181299 L110.842241,95.1279771 L110.809448,95.1936249 L110.806169,95.2034721 L110.773376,95.2691199 L110.766818,95.2789671 L110.734025,95.3413325 L110.730746,95.3478973 L110.697953,95.4135452 L110.694674,95.4233923 L110.661881,95.4890402 L110.658602,95.4988873 L110.62253,95.5612528 L110.615971,95.5678176 L110.5799,95.630183 L110.57662,95.6367478 L110.540548,95.6991132 L110.537269,95.705678 L110.501197,95.7680435 L110.497918,95.7746082 L110.461846,95.8369737 L110.458567,95.8435385 L110.422495,95.9059039 L110.419215,95.9157511 L110.383143,95.9781165 L110.379864,95.9846813 L110.343792,96.0470468 L110.340513,96.0568939 L110.304441,96.1192594 L110.297882,96.1258242 L110.26181,96.1881896 L110.255252,96.1947544 L110.21918,96.2571198 L110.215901,96.2636846 L110.179829,96.32605 L110.176549,96.3358972 L110.137198,96.3982627 L110.133919,96.4048274 L110.097847,96.4639105 L110.094568,96.4737577 L110.058496,96.5328407 L110.051937,96.5394055 L110.012586,96.6017709 L110.009307,96.6116181 L109.969956,96.6707012 L109.963397,96.6772659 L109.924046,96.736349 L109.920766,96.7429138 L109.881415,96.8052792 L109.874857,96.8151264 L109.835505,96.8742094 L109.828947,96.8807742 L109.789596,96.9398573 L109.786316,96.9464221 L109.746965,97.0087875 L109.743686,97.0153523 L109.704335,97.0744353 L109.697776,97.0810001 L109.655146,97.1400832 L109.651866,97.146648 L109.612515,97.205731 L109.609236,97.2122958 L109.566605,97.2713788 L109.563326,97.2779436 L109.523975,97.3370267 L109.517416,97.3435915 L109.478065,97.4026745 L109.471507,97.4092393 L109.428876,97.4683223 L109.422318,97.4748871 L109.382966,97.5339702 L109.379687,97.540535 L109.337057,97.599618 L109.330498,97.6094652 L109.291147,97.6685482 L109.284588,97.675113 L109.241958,97.7341961 L109.235399,97.7407608 L109.192769,97.7998439 L109.18621,97.8064087 L109.14358,97.8654917 L109.137021,97.8720565 L109.094391,97.9311396 L109.091111,97.9377043 L109.048481,97.993505 L109.041922,98.0000698 L108.999292,98.0558704 L108.996013,98.0624352 L108.950103,98.1182359 L108.943544,98.1248007 L108.900914,98.1806013 L108.897635,98.1871661 L108.855004,98.2462492 L108.848446,98.2528139 L108.802536,98.311897 L108.795977,98.3184618 L108.750067,98.3742624 L108.743509,98.3808272 L108.697599,98.4366279 L108.69432,98.4431927 L108.64841,98.4989933 L108.641852,98.5055581 L108.595942,98.5613588 L108.589383,98.5679235 L108.543474,98.6237242 L108.536915,98.630289 L108.491005,98.6860896 L108.484447,98.6926544 L108.438537,98.7484551 L108.435258,98.7550199 L108.389348,98.8108205 L108.382789,98.8173853 L108.3336,98.873186 L108.327042,98.8797507 L108.281132,98.9355514 L108.274573,98.9421162 L108.228664,98.9979168 L108.222105,99.0044816 L108.176195,99.0602823 L108.169637,99.0668471 L108.123727,99.1226477 L108.117169,99.1292125 L108.071259,99.1817308 L108.0647,99.1882956 L108.015511,99.2440962 L108.008953,99.250661 L107.963043,99.3064617 L107.956484,99.3130264 L107.907295,99.3688271 L107.900737,99.3753919 L107.854827,99.4311925 L107.848269,99.4377573 L107.799079,99.4902756 L107.792521,99.4968404 L107.743332,99.5493586 L107.736773,99.5559234 L107.687584,99.6084417 L107.681026,99.6150065 L107.631837,99.6675247 L107.625278,99.6740895 L107.576089,99.7266078 L107.569531,99.7331726 L107.520342,99.7856908 L107.513783,99.7922556 L107.464594,99.8447739 L107.458036,99.8513387 L107.408846,99.9038569 L107.402288,99.9104217 L107.34982,99.96294 L107.343261,99.9695048 L107.294072,100.022023 L107.287514,100.028588 L107.238324,100.077824 L107.231766,100.084388 L107.179298,100.136907 L107.16946,100.143472 L107.116992,100.19599 L107.110433,100.202555 L107.057965,100.25179 L107.051406,100.258355 L106.998938,100.310874 L106.992379,100.317438 L106.939911,100.366674 L106.933352,100.373239 L106.880884,100.422475 L106.874326,100.42904 L106.821857,100.478275 L106.815299,100.48484 L106.762831,100.534076 L106.756272,100.540641 L106.703804,100.589877 L106.697245,100.596442 L106.644777,100.645677 L106.638218,100.652242 L106.582471,100.701478 L106.575912,100.704761 L106.523444,100.753996 L106.516885,100.760561 L106.461138,100.809797 L106.454579,100.816362 L106.398832,100.865598 L106.392273,100.86888 L106.336526,100.918116 L106.329967,100.924681 L106.274219,100.970634 L106.264382,100.977199 L106.208634,101.023152 L106.202076,101.029717 L106.146328,101.078953 L106.139769,101.085518 L106.084022,101.134754 L106.077463,101.141319 L106.021716,101.190554 L106.015157,101.197119 L105.95941,101.243073 L105.952851,101.249638 L105.893824,101.295591 L105.887266,101.298873 L105.831518,101.344827 L105.82496,101.351392 L105.769212,101.397345 L105.759374,101.40391 L105.703627,101.449863 L105.697068,101.456428 L105.641321,101.502382 L105.634762,101.508946 L105.579014,101.5549 L105.572456,101.561465 L105.513429,101.607418 L105.506871,101.613983 L105.451123,101.656654 L105.444564,101.663219 L105.385538,101.709172 L105.378979,101.715737 L105.319952,101.761691 L105.313394,101.768255 L105.254367,101.814209 L105.247808,101.820774 L105.188781,101.866727 L105.182223,101.87001 L105.123196,101.912681 L105.116638,101.915963 L105.057611,101.958634 L105.051052,101.961917 L104.992025,102.004588 L104.982187,102.00787 L104.923161,102.050541 L104.916602,102.057106 L104.857575,102.099777 L104.851017,102.106342 L104.79199,102.149013 L104.785431,102.155578 L104.726404,102.198249 L104.716567,102.204813 L104.65754,102.247485 L104.650981,102.250767 L104.588675,102.293438 L104.578837,102.29672 L104.516531,102.339392 L104.509973,102.345956 L104.447667,102.388627 L104.441108,102.395192 L104.378802,102.434581 L104.372243,102.441146 L104.309937,102.483817 L104.303379,102.490382 L104.244352,102.533053 L104.234514,102.539617 L104.172208,102.579006 L104.16565,102.582289 L104.103343,102.621677 L104.093506,102.62496 L104.031199,102.664348 L104.024641,102.670913 L103.962335,102.710302 L103.955776,102.716867 L103.89347,102.756255 L103.886912,102.759538 L103.824606,102.798926 L103.814768,102.802209 L103.752462,102.841597 L103.745903,102.848162 L103.683597,102.887551 L103.673759,102.890833 L103.611453,102.930222 L103.601615,102.936787 L103.539309,102.976176 L103.529471,102.98274 L103.463886,103.022129 L103.457327,103.028694 L103.395021,103.0648 L103.385184,103.068082 L103.322877,103.104189 L103.316319,103.110754 L103.250733,103.150142 L103.240896,103.156707 L103.17531,103.192813 L103.168752,103.199378 L103.106446,103.235484 L103.096608,103.238767 L103.031022,103.274873 L103.021185,103.278156 L102.955599,103.314262 L102.949041,103.317544 L102.886735,103.353651 L102.883455,103.356933 L64.8668907,124.561183 L64.8636114,124.561183 L64.8045846,124.597289 L64.7947468,124.600572 L64.7324407,124.636678 L64.7226029,124.643243 L64.6602968,124.676067 L64.650459,124.679349 L64.5881528,124.712173 L64.5815943,124.715455 L64.5192882,124.748279 L64.5094504,124.751562 L64.4471443,124.784386 L64.4373065,124.787668 L64.3750004,124.820492 L64.3651626,124.823774 L64.3028564,124.856598 L64.2962979,124.859881 L64.2339918,124.892705 L64.2274333,124.895987 L64.1651272,124.925528 L64.1585686,124.928811 L64.0929832,124.961635 L64.0864247,124.9682 L64.0241186,125.001023 L64.01756,125.004306 L63.9552539,125.033847 L63.9486954,125.03713 L63.8863893,125.066671 L63.8798308,125.069954 L63.8175246,125.102778 L63.8109661,125.10606 L63.7453807,125.135602 L63.7388222,125.138884 L63.6765161,125.168425 L63.6699575,125.171708 L63.6043722,125.201249 L63.5978136,125.204532 L63.5355075,125.234073 L63.528949,125.237356 L63.4666429,125.266897 L63.4568051,125.273462 L63.3912197,125.303004 L63.3846611,125.306286 L63.3190758,125.332545 L63.3125172,125.335827 L63.2469319,125.365369 L63.2403733,125.371934 L63.1747879,125.401475 L63.1649501,125.404758 L63.102644,125.431017 L63.0960855,125.434299 L63.0305001,125.463841 L63.0239416,125.467123 L62.9583562,125.493382 L62.9517976,125.496665 L62.8862123,125.522924 L62.8796537,125.526206 L62.8140684,125.552465 L62.8042305,125.555748 L62.7386452,125.582007 L62.7288074,125.585289 L62.663222,125.611548 L62.6533842,125.614831 L62.5910781,125.64109 L62.5845195,125.644372 L62.5189342,125.667349 L62.5123756,125.670631 L62.4467902,125.696891 L62.4369524,125.700173 L62.371367,125.726432 L62.3615292,125.729714 L62.2959439,125.755974 L62.2861061,125.759256 L62.2205207,125.782233 L62.2106829,125.785515 L62.1450975,125.811774 L62.1352597,125.815057 L62.0696743,125.838033 L62.0631158,125.841316 L61.9975304,125.864292 L61.9876926,125.867575 L61.9221072,125.890552 L61.9122694,125.893834 L61.846684,125.916811 L61.8368462,125.920093 L61.7712608,125.94307 L61.7647023,125.946352 L61.6991169,125.969329 L61.6335315,125.992306 L61.6236937,125.995588 L61.5548291,126.015283 L61.5449913,126.018565 L61.4794059,126.038259 L61.4728474,126.041542 L61.407262,126.064518 L61.4007034,126.067801 L61.3318388,126.087495 L61.322001,126.090778 L61.2564156,126.110472 L61.2465778,126.113754 L61.1809924,126.133449 L61.1711546,126.136731 L61.10229,126.159708 L61.0891729,126.16299 L60.9580021,126.202379 L60.9416058,126.208944 L60.8071558,126.248332 L60.7907594,126.251615 L60.6563094,126.291003 L60.6399131,126.294286 L60.505463,126.330392 L60.4890667,126.336957 L60.3546167,126.373063 L60.3382203,126.376346 L60.2037703,126.412452 L60.1840947,126.415734 L60.0496446,126.448558 L60.0332483,126.451841 L59.8987983,126.484665 L59.8791227,126.487947 L59.7446726,126.520771 L59.7282763,126.524053 L59.5938263,126.553595 L59.5774299,126.556877 L59.4397006,126.586419 L59.420025,126.589701 L59.2822957,126.619243 L59.2658994,126.622525 L59.1281701,126.648784 L59.1117737,126.652066 L58.9773237,126.675043 L58.9609274,126.678326 L58.8264773,126.704585 L58.810081,126.707867 L58.6723517,126.730844 L58.6559554,126.734126 L58.5182261,126.757103 L58.5018297,126.760385 L58.3641004,126.78008 L58.3477041,126.783362 L58.2099748,126.803057 L58.1935784,126.806339 L58.0558491,126.826033 L58.0394528,126.829316 L57.9017235,126.84901 L57.8820479,126.852292 L57.7443186,126.868704 L57.7279222,126.871987 L57.590193,126.888399 L57.5737966,126.891681 L57.4360673,126.908093 L57.298338,126.921223 L57.2819417,126.921223 L57.1442124,126.93107 L57.127816,126.934352 L56.9900867,126.944199 L56.9736904,126.944199 L56.8359611,126.954047 L56.8195648,126.954047 L56.6818355,126.963894 L56.6621598,126.967176 L56.5244306,126.977023 L56.5080342,126.977023 L56.3703049,126.983588 L56.3539086,126.983588 L56.2161793,126.990153 L56.1965037,126.990153 L56.0587744,126.993435 L56.042378,126.993435 L55.9046487,126.996718 L55.8882524,126.996718 L55.7505231,127 L55.2651913,127 L55.127462,126.996718 L54.9897327,126.993435 L54.9700571,126.993435 L54.8323278,126.990153 L54.8293764,126.990153 L54.6916472,126.983588 L54.6752508,126.980306 L54.5375215,126.973741 L54.5211252,126.973741 L54.3833959,126.967176 L54.3669995,126.963894 L54.2292702,126.957329 L54.2128739,126.957329 L54.0751446,126.947482 L54.0587482,126.944199 L53.921019,126.93107 L53.9013433,126.927787 L53.763614,126.914658 L53.7439384,126.911375 L53.6062091,126.898246 L53.5898128,126.894963 L53.4520835,126.881834 L53.4356872,126.881834 L53.2979579,126.868704 L53.2815615,126.865422 L53.1438322,126.84901 L53.1241566,126.84901 L52.9864273,126.832598 L52.9667517,126.829316 L52.8290224,126.809621 L52.8126261,126.806339 L52.6748968,126.786645 L52.6585004,126.783362 L52.5207711,126.763668 L52.5043748,126.760385 L52.3666455,126.740691 L52.3502491,126.737409 L52.2157991,126.714432 L52.2059613,126.714432 L52.068232,126.688173 L52.050524,126.68489 L51.9160739,126.658631 L51.8996776,126.655349 L51.7652276,126.62909 L51.7488312,126.625807 L51.6143812,126.599548 L51.5947056,126.596266 L51.458288,126.570007 L51.4418916,126.566724 L51.3074416,126.537183 L51.287766,126.530618 L51.153316,126.501076 L51.1369196,126.497794 L51.0024696,126.46497 L50.9841057,126.458405 L50.8496557,126.425581 L50.8332593,126.419017 L50.6988093,126.38291 L50.682413,126.379628 L50.5479629,126.343522 L50.5315666,126.336957 L50.3971166,126.300851 L50.3807202,126.294286 L50.2462702,126.258179 L50.2298738,126.251615 L50.0954238,126.212226 L50.0757482,126.205661 L49.9412982,126.166273 L49.9249018,126.159708 L49.7904518,126.120319 L49.7740555,126.113754 L49.6396054,126.074366 L49.6232091,126.071083 L49.4926942,126.028412 L49.4795771,126.02513 L49.4107125,126.002153 L49.4018584,126.002153 L49.3362731,125.982459 L49.3264353,125.979176 L49.2608499,125.956199 L49.2510121,125.952917 L49.1854267,125.92994 L49.1755889,125.926658 L49.1100035,125.903681 L49.1001657,125.900399 L49.0345803,125.877422 L49.0247425,125.87414 L48.9591571,125.851163 L48.9525986,125.847881 L48.8870132,125.824904 L48.8804547,125.821621 L48.8148693,125.798645 L48.8083108,125.795362 L48.7427254,125.769103 L48.7328876,125.765821 L48.6673022,125.739562 L48.6574644,125.736279 L48.591879,125.71002 L48.5853205,125.706738 L48.5197351,125.680479 L48.5098973,125.677196 L48.4443119,125.650937 L48.4377534,125.647655 L48.372168,125.621396 L48.3623302,125.618113 L48.2967448,125.591854 L48.2901863,125.588572 L48.2246009,125.562312 L48.2180424,125.55903 L48.152457,125.532771 L48.1426192,125.529489 L48.0770338,125.503229 L48.067196,125.499947 L48.0016106,125.473688 L47.9917728,125.470405 L47.9261874,125.444146 L47.9163496,125.440864 L47.8507642,125.414605 L47.8442057,125.411322 L47.7786203,125.381781 L47.7687825,125.378499 L47.7064764,125.348957 L47.6999179,125.345675 L47.6343325,125.316133 L47.627774,125.312851 L47.5621886,125.283309 L47.55563,125.280027 L47.4900447,125.253768 L47.4802069,125.250485 L47.4179007,125.220944 L47.4080629,125.217661 L47.3424776,125.18812 L47.3326398,125.184837 L47.2703336,125.155296 L47.2637751,125.148731 L47.201469,125.11919 L47.1949105,125.115907 L47.1326043,125.086366 L47.1260458,125.083083 L47.0604604,125.053542 L47.0539019,125.046977 L46.9883165,125.014153 L46.981758,125.007588 L46.9194519,124.978047 L46.9096141,124.974764 L46.8440287,124.945223 L46.8374701,124.938658 L46.775164,124.905834 L46.7653262,124.902552 L46.6997409,124.869728 L46.6931823,124.866445 L46.6308762,124.833622 L46.6210384,124.830339 L46.5587323,124.797515 L46.5521737,124.794233 L46.4898676,124.761409 L46.4800298,124.754844 L46.4177237,124.72202 L46.4111652,124.718738 L46.3488591,124.685914 L46.3423005,124.682631 L46.2799944,124.649808 L46.2701566,124.643243 L46.2078505,124.610419 L46.201292,124.607136 L46.1389859,124.57103 L46.1291481,124.564465 L46.0668419,124.531641 L46.0570041,124.528359 L45.994698,124.495535 L45.9848602,124.492253 L45.9225541,124.459429 L45.9127163,124.456146 L45.8504102,124.42004 L45.8405724,124.416758 L45.7815456,124.380651 L45.7717077,124.377369 L45.7126809,124.341263 L45.7094016,124.33798 L11.3426633,104.259591 L11.339384,104.256308 L11.2672401,104.213637 L11.2606816,104.210355 L11.1885376,104.167684 L11.1786998,104.164401 L11.1032767,104.12173 L11.0934389,104.118448 L11.0212949,104.072494 L11.0147364,104.069212 L10.9425925,104.023258 L10.9360339,104.016694 L10.86389,103.97074 L10.8573315,103.964175 L10.7851876,103.918222 L10.7753498,103.91494 L10.7032058,103.872268 L10.693368,103.865704 L10.6212241,103.81975 L10.6146656,103.813185 L10.5425217,103.767232 L10.5592459,103.767232 L10.487102,103.721278 L10.4772642,103.714714 L10.4051203,103.66876 L10.3985618,103.662195 L10.3264178,103.616242 L10.3172359,103.609677 L10.245092,103.560441 L10.2352542,103.553876 L10.1631103,103.504641 L10.1565517,103.498076 L10.0844078,103.452122 L10.0778493,103.445558 L10.0057053,103.396322 L9.99914681,103.389757 L9.92700289,103.340521 L9.92044436,103.333956 L9.85157971,103.28472 L9.8417419,103.278156 L9.77123762,103.22892 L9.76467908,103.222355 L9.69581443,103.173119 L9.68761626,103.166554 L9.61875161,103.117318 L9.60989759,103.110754 L9.54103294,103.061518 L9.5344744,103.058235 L9.46560976,103.008999 L9.45905122,103.002435 L9.39117035,102.953199 L9.38461181,102.946634 L9.31705887,102.897398 L9.30722107,102.894116 L9.23835642,102.84488 L9.23179788,102.838315 L9.16293323,102.785797 L9.1563747,102.779232 L9.08751005,102.729996 L9.07898395,102.723431 L9.0101193,102.670913 L9.0015932,102.664348 L8.93600782,102.61183 L8.92944929,102.605265 L8.86386391,102.552747 L8.85730537,102.549465 L8.79171999,102.496946 L8.78516145,102.490382 L8.71957607,102.437863 L8.71301754,102.431299 L8.64743216,102.37878 L8.64087362,102.372215 L8.57528824,102.319697 L8.5687297,102.313132 L8.50314433,102.260614 L8.49658579,102.254049 L8.43100041,102.201531 L8.42444187,102.194966 L8.35885649,102.139166 L8.35229795,102.135883 L8.28671258,102.083365 L8.28015404,102.0768 L8.21653622,102.024282 L8.20997768,102.017717 L8.14439231,101.961917 L8.13783377,101.955352 L8.07224839,101.902833 L8.06568985,101.896269 L8.00010447,101.840468 L7.99354593,101.837186 L7.92927226,101.784667 L7.92271373,101.778103 L7.86040762,101.725584 L7.85384908,101.71902 L7.79154297,101.663219 L7.78498443,101.656654 L7.72267832,101.600853 L7.71611978,101.594289 L7.65381367,101.538488 L7.64725514,101.531923 L7.58494903,101.476123 L7.57839049,101.469558 L7.51608438,101.413757 L7.50952584,101.407192 L7.44721973,101.348109 L7.44066119,101.344827 L7.37835508,101.289026 L7.36851728,101.282461 L7.3078508,101.223378 L7.30129226,101.216814 L7.23898615,101.161013 L7.23242762,101.154448 L7.17143321,101.095365 L7.16487468,101.0888 L7.10584784,101.029717 L7.0992893,101.023152 L7.04026246,100.964069 L7.03370392,100.957505 L6.97139781,100.898422 L6.96483927,100.891857 L6.90253316,100.832774 L6.89597462,100.829491 L6.83694778,100.770408 L6.83038925,100.763844 L6.77136241,100.704761 L6.76480387,100.698196 L6.70577703,100.639113 L6.69921849,100.632548 L6.64019165,100.573465 L6.63363311,100.5669 L6.57460627,100.507817 L6.56804773,100.501252 L6.50902089,100.442169 L6.50246235,100.435604 L6.44671478,100.376521 L6.44015624,100.369957 L6.3811294,100.310874 L6.37457087,100.304309 L6.31554402,100.241943 L6.30898549,100.235378 L6.25323792,100.173013 L6.24667938,100.166448 L6.19093181,100.104083 L6.18437327,100.097518 L6.12534643,100.035153 L6.11878789,100.028588 L6.06304032,99.9662224 L6.05648178,99.9596576 L6.00073421,99.8972922 L5.99417567,99.8907274 L5.9384281,99.8283619 L5.93186956,99.8217971 L5.87612199,99.7594317 L5.86956345,99.7528669 L5.81381588,99.6905015 L5.81053661,99.6839367 L5.75806831,99.6215713 L5.75150977,99.6150065 L5.6957622,99.552641 L5.68920366,99.5460762 L5.63017682,99.4804284 L5.62361828,99.4738636 L5.56787071,99.4114982 L5.56131217,99.4049334 L5.5055646,99.3392856 L5.49900606,99.3327208 L5.44653776,99.2703554 L5.44325849,99.2637906 L5.39079019,99.2014251 L5.38423165,99.1948603 L5.33176335,99.1292125 L5.32520481,99.1226477 L5.26945724,99.0569999 L5.2628987,99.0504351 L5.2104304,98.9880697 L5.20387186,98.9815049 L5.14812429,98.9191394 L5.14156575,98.9125747 L5.08909745,98.8502092 L5.08253891,98.8436444 L5.03007061,98.7779966 L5.02351207,98.7714318 L4.97104377,98.705784 L4.96448523,98.6992192 L4.91201692,98.6335714 L4.90545839,98.6270066 L4.85299008,98.5613588 L4.84643155,98.554794 L4.79396324,98.4891461 L4.79068397,98.4825814 L4.74149494,98.4169335 L4.7349364,98.4103687 L4.68574737,98.3447209 L4.6824681,98.3381561 L4.63327907,98.2725083 L4.62672053,98.2659435 L4.57753149,98.1970133 L4.57097296,98.1904485 L4.52178392,98.1248007 L4.51522538,98.1182359 L4.46603635,98.052588 L4.46275708,98.0460233 L4.41356805,97.977093 L4.41028878,97.9705283 L4.36109974,97.901598 L4.35782048,97.8950333 L4.30863144,97.8293854 L4.30535217,97.8228206 L4.25616314,97.7571728 L4.2496046,97.750608 L4.20041557,97.6816778 L4.19385703,97.675113 L4.144668,97.6061828 L4.13810946,97.5963356 L4.09219969,97.5274054 L4.08564116,97.5208406 L4.03973139,97.4519104 L4.03317285,97.4453456 L3.98726309,97.3764154 L3.98070455,97.3698506 L3.93479478,97.3009204 L3.93151552,97.2943556 L3.88560575,97.2254254 L3.87904721,97.2155782 L3.83313745,97.146648 L3.82657891,97.1400832 L3.78066914,97.0711529 L3.77411061,97.0645882 L3.72820084,96.9956579 L3.7216423,96.9890932 L3.67573254,96.9201629 L3.669174,96.9135981 L3.62654351,96.8446679 L3.62326424,96.8381031 L3.58063374,96.7691729 L3.5740752,96.7593257 L3.52816544,96.6903955 L3.5216069,96.6805483 L3.47569713,96.6116181 L3.47241787,96.6050533 L3.4265081,96.5328407 L3.42322883,96.5229935 L3.38059834,96.4540633 L3.3740398,96.4474985 L3.3314093,96.3785683 L3.32485076,96.3720035 L3.28222027,96.2997909 L3.27566173,96.2899437 L3.23303123,96.2210135 L3.22975197,96.2144487 L3.18712147,96.1422361 L3.1838422,96.1356713 L3.1412117,96.0667411 L3.13465317,96.0568939 L3.09202267,95.9846813 L3.08546413,95.9748341 L3.04283364,95.9026215 L3.0362751,95.8927743 L2.99692387,95.8205617 L2.99036533,95.8139969 L2.94773484,95.7417843 L2.94445557,95.7352195 L2.90510434,95.6630069 L2.90182507,95.6564421 L2.86247385,95.5842295 L2.85919458,95.5743824 L2.81984335,95.5021697 L2.81328481,95.4923226 L2.77393358,95.4201099 L2.77065432,95.4102628 L2.73130309,95.3347678 L2.72802382,95.328203 L2.68867259,95.2559904 L2.68539332,95.2461432 L2.6460421,95.1739306 L2.64276283,95.1640834 L2.6034116,95.0918708 L2.60013233,95.0820236 L2.56406037,95.0065286 L2.5607811,94.9999638 L2.52142988,94.9244688 L2.51815061,94.9146216 L2.47879938,94.8391266 L2.47224084,94.8325618 L2.43616889,94.7570668 L2.43288962,94.7505021 L2.39681766,94.6782894 L2.39353839,94.6684423 L2.35746643,94.5929473 L2.35746643,94.5962296 L2.32139447,94.5207346 L2.31483593,94.5108875 L2.27876398,94.4353925 L2.27548471,94.4255453 L2.23941275,94.3533327 L2.23613348,94.3434855 L2.20006152,94.2679905 L2.19678225,94.2614257 L2.1607103,94.1859307 L2.15743103,94.1793659 L2.12463834,94.1038709 L2.12135907,94.0973061 L2.08528711,94.0218111 L2.08200784,94.0152463 L2.04593588,93.9397513 L2.04265661,93.9331865 L2.00658466,93.8576915 L2.00330539,93.8478443 L1.9705127,93.7723493 L1.96723343,93.7657846 L1.93116147,93.6902895 L1.9278822,93.6804424 L1.89181024,93.6049474 L1.88853097,93.5983826 L1.85573829,93.5228876 L1.85245902,93.5163228 L1.81966633,93.4408278 L1.81638706,93.4309806 L1.78359437,93.3554856 L1.7803151,93.3489208 L1.75080168,93.2734258 L1.74752241,93.266861 L1.71472972,93.191366 L1.71145045,93.1815188 L1.68193703,93.1027414 L1.67865776,93.0961767 L1.64586507,93.0206817 L1.64258581,93.0108345 L1.61307238,92.9386219 L1.60979312,92.9287747 L1.57700043,92.8499973 L1.57372116,92.8434325 L1.54420774,92.7646551 L1.54092847,92.7548079 L1.51141505,92.6760305 L1.50813578,92.6694657 L1.47862236,92.5906883 L1.47534309,92.5808412 L1.44582967,92.5020638 L1.4425504,92.495499 L1.41303698,92.4167216 L1.40975771,92.4101568 L1.38352356,92.3313794 L1.38024429,92.3215322 L1.35073087,92.2427548 L1.3474516,92.23619 L1.32121745,92.1574126 L1.31793818,92.1475655 L1.29170403,92.0687881 L1.28842476,92.0589409 L1.25891134,91.9801635 L1.25563207,91.9703163 L1.22939792,91.8915389 L1.22611865,91.8849741 L1.1998845,91.8061967 L1.19660523,91.799632 L1.17037108,91.7208546 L1.16709181,91.7110074 L1.14085766,91.63223 L1.13757839,91.6223828 L1.11134424,91.5436054 L1.10806497,91.5337582 L1.08183082,91.4549808 L1.07855155,91.4451337 L1.0523174,91.3663563 L1.04936606,91.3568373 L1.02641117,91.2780599 L1.0231319,91.2714951 L0.996897754,91.1894354 L0.993618485,91.1795882 L0.970663602,91.0975284 L0.967384333,91.0876812 L0.944429451,91.0089038 L0.941150182,90.9990566 L0.918195299,90.9202792 L0.91491603,90.9104321 L0.891961148,90.8283723 L0.888681879,90.8185251 L0.865726997,90.7364653 L0.862447728,90.7299005 L0.839492845,90.6478407 L0.836213576,90.6445583 L0.813258694,90.5624985 L0.809979425,90.5559338 L0.790303811,90.4771564 L0.787024542,90.4705916 L0.767348929,90.3918142 L0.767348929,90.3852494 L0.744394046,90.3031896 L0.744394046,90.2933424 L0.724718433,90.214565 L0.721439164,90.2047179 L0.70176355,90.1259405 L0.698484281,90.1160933 L0.678808668,90.0340335 L0.682087937,90.0340335 L0.662412323,89.9519737 L0.659133054,89.9454089 L0.639457441,89.8633491 L0.636178172,89.8567843 L0.616502558,89.7747246 L0.613223289,89.7681598 L0.593547676,89.6861 L0.596826945,89.6828176 L0.577151331,89.6007578 L0.573872062,89.5909106 L0.554196449,89.5088508 L0.55091718,89.4990037 L0.534520835,89.4169439 L0.531241566,89.4070967 L0.511565952,89.3250369 L0.508286684,89.3184721 L0.491890339,89.2364123 L0.48861107,89.2265651 L0.472214725,89.1445054 L0.468935456,89.1346582 L0.452539112,89.0525984 L0.436142767,88.9705386 L0.436142767,88.9606914 L0.419746423,88.8753492 L0.419746423,88.8655021 L0.403350078,88.7834423 L0.400070809,88.7735951 L0.380395195,88.6948177 L0.380395195,88.6849705 L0.363998851,88.5963459 L0.360719582,88.5864988 L0.344323237,88.5011566 L0.341043968,88.4913094 L0.327926893,88.4092496 L0.324647624,88.3994024 L0.311530548,88.3173427 L0.311530548,88.3074955 L0.298413472,88.2254357 L0.298413472,88.2155885 L0.285296397,88.1335287 L0.282017128,88.1236816 L0.268900052,88.0416218 L0.268900052,88.0449042 L0.255782976,87.9628444 L0.255782976,87.9562796 L0.242665901,87.8742198 L0.242665901,87.8643726 L0.229548825,87.7823128 L0.229548825,87.7724656 L0.216431749,87.6904059 L0.216431749,87.6838411 L0.206593942,87.5984989 L0.206593942,87.5886517 L0.196756136,87.5065919 L0.196756136,87.5000271 L0.18363906,87.414685 L0.180359791,87.4048378 L0.170521984,87.322778 L0.170521984,87.3129308 L0.160684177,87.2275886 L0.157404908,87.2177415 L0.147567102,87.1323993 L0.147567102,87.1225521 L0.137729295,87.0372099 L0.134450026,87.0273627 L0.124612219,86.9420206 L0.124612219,86.9321734 L0.114774412,86.8468312 L0.111495143,86.8402664 L0.101657337,86.7549242 L0.0950987989,86.6695821 L0.0950987989,86.6597349 L0.0852609921,86.5743927 L0.0819817232,86.5645455 L0.0721439164,86.4792033 L0.0721439164,86.4693562 L0.0655853785,86.384014 L0.0623061096,86.3741668 L0.0557475717,86.2888246 L0.0557475717,86.2789774 L0.0491890339,86.1936353 L0.0491890339,86.1837881 L0.042630496,86.0984459 L0.0360719582,86.0131037 L0.0360719582,86.0032565 L0.0295134203,85.9179144 L0.0295134203,85.9080672 L0.0229548825,85.822725 L0.0229548825,85.7167038 L0.0196756136,85.6313616 L0.0196756136,85.6215144 L0.0163963446,85.5361722 L0.0163963446,85.526325 L0.0131170757,85.4409829 L0.00983780678,85.4311357 L0.00655853785,85.3457935 L0.00655853785,85.2538865 L0.00327926893,85.1685443 L0.00327926893,85.1586972 L0,85.073355 L0,43.5182767 L0.00327926893,43.4362169 L0.00327926893,43.3311804 L0.00655853785,43.2458382 L0.00655853785,42.9438582 L0.00983780678,42.858516 L0.00983780678,42.8519512 L0.0131170757,42.766609 L0.0131170757,42.7567619 L0.0163963446,42.6714197 L0.0163963446,42.6615725 L0.0196756136,42.5762303 L0.0196756136,42.5696655 L0.0229548825,42.4843233 L0.0229548825,42.4744762 L0.0262341514,42.389134 L0.0262341514,42.3792868 L0.0327926893,42.2906622 L0.0327926893,42.2808151 L0.0393512271,42.1954729 L0.0393512271,42.1889081 L0.042630496,42.1035659 L0.042630496,42.0937187 L0.0491890339,42.0083766 L0.0491890339,41.9985294 L0.0524683028,41.9131872 L0.0524683028,41.90334 L0.0557475717,41.8179978 L0.0557475717,41.8081507 L0.0623061096,41.7228085 L0.0623061096,41.7129613 L0.0688646474,41.6276191 L0.0688646474,41.617772 L0.0787024542,41.5324298 L0.0787024542,41.5225826 L0.0852609921,41.4372404 L0.088540261,41.4306756 L0.0950987989,41.3453334 L0.0950987989,41.3387687 L0.104936606,41.2534265 L0.104936606,41.2468617 L0.114774412,41.1615195 L0.118053681,41.1516723 L0.127891488,41.0663302 L0.127891488,41.056483 L0.137729295,40.9711408 L0.137729295,40.964576 L0.147567102,40.8792338 L0.147567102,40.872669 L0.157404908,40.7873269 L0.160684177,40.7774797 L0.170521984,40.6921375 L0.170521984,40.6822903 L0.180359791,40.6002305 L0.180359791,40.5903834 L0.190197598,40.5050412 L0.190197598,40.495194 L0.200035404,40.4098518 L0.203314673,40.4000047 L0.21315248,40.3179449 L0.21315248,40.3080977 L0.226269556,40.2227555 L0.226269556,40.2129083 L0.236107363,40.1275661 L0.239386632,40.117719 L0.249224438,40.0356592 L0.252503707,40.025812 L0.265620783,39.9404698 L0.268900052,39.933905 L0.282017128,39.8485629 L0.282017128,39.8419981 L0.295134203,39.7566559 L0.295134203,39.7500911 L0.308251279,39.6680313 L0.311530548,39.6581841 L0.324647624,39.5761243 L0.324647624,39.5662772 L0.347602506,39.480935 L0.350881775,39.4710878 L0.363998851,39.389028 L0.363998851,39.3791808 L0.380395195,39.2971211 L0.380395195,39.2905563 L0.39679154,39.2084965 L0.39679154,39.2019317 L0.413187885,39.1165895 L0.416467154,39.1100247 L0.432863498,39.0279649 L0.436142767,39.0214002 L0.452539112,38.9393404 L0.455818381,38.9294932 L0.472214725,38.8474334 L0.475493994,38.8375862 L0.491890339,38.7555264 L0.491890339,38.7456793 L0.508286684,38.6636195 L0.508286684,38.6570547 L0.524683028,38.5749949 L0.527962297,38.5684301 L0.544358642,38.4863703 L0.547637911,38.4798055 L0.567313524,38.3977457 L0.567313524,38.3878986 L0.586989138,38.3058388 L0.590268407,38.2959916 L0.606664751,38.2139318 L0.60994402,38.2040846 L0.629619634,38.1220248 L0.629619634,38.1121777 L0.649295247,38.0301179 L0.652574516,38.0202707 L0.67225013,37.9382109 L0.67225013,37.9283637 L0.691925743,37.8463039 L0.695205012,37.8397392 L0.714880626,37.7576794 L0.714880626,37.7511146 L0.734556239,37.6690548 L0.737835508,37.6592076 L0.760790391,37.5771478 L0.760790391,37.5705831 L0.783745273,37.4885233 L0.783745273,37.4819585 L0.806700156,37.3998987 L0.809979425,37.3900515 L0.832934307,37.3079917 L0.832934307,37.2981445 L0.85588919,37.2160848 L0.859168459,37.2062376 L0.882123341,37.1274602 L0.88540261,37.1208954 L0.908357493,37.0388356 L0.911636761,37.0306296 L0.934591644,36.9485698 L0.937870913,36.9387227 L0.960825795,36.8586323 L0.964105064,36.8520675 L0.990339216,36.7700077 L0.993618485,36.7634429 L1.01657337,36.6846655 L1.01985264,36.6781008 L1.04280752,36.5983386 L1.04608679,36.5917739 L1.06904167,36.5103705 L1.07232094,36.5005234 L1.09855509,36.420433 L1.10183436,36.4105858 L1.12806851,36.3318084 L1.12806851,36.3252437 L1.15430266,36.2464663 L1.15430266,36.2366191 L1.18053681,36.1578417 L1.18381608,36.1512769 L1.21005023,36.0724995 L1.2133295,36.0626523 L1.23956365,35.9838749 L1.24284292,35.9740278 L1.26907707,35.8952504 L1.27235634,35.8854032 L1.29859049,35.8066258 L1.30186976,35.800061 L1.33138318,35.7212836 L1.33466245,35.7147188 L1.3608966,35.6359414 L1.36417587,35.6277354 L1.39041002,35.548958 L1.39368929,35.5423933 L1.42320271,35.4636159 L1.42648198,35.4570511 L1.4559954,35.3782737 L1.4559954,35.3717089 L1.48550882,35.2929315 L1.48878809,35.2863667 L1.51830151,35.2075893 L1.52158078,35.1977421 L1.5510942,35.1189647 L1.55437347,35.1123999 L1.58388689,35.0336225 L1.58716616,35.0237754 L1.61995885,34.9482804 L1.62323812,34.9417156 L1.65603081,34.8629382 L1.65931008,34.8563734 L1.69210277,34.777596 L1.69538203,34.7677488 L1.72817472,34.6889714 L1.73145399,34.6791242 L1.76424668,34.6003468 L1.76752595,34.5904997 L1.80031864,34.5117223 L1.80359791,34.5018751 L1.8363906,34.4230977 L1.83966987,34.4132505 L1.87246256,34.3344731 L1.87574183,34.3262671 L1.90853452,34.2507721 L1.91181378,34.240925 L1.94460647,34.16543 L1.94788574,34.1555828 L1.98067843,34.0768054 L1.9839577,34.0702406 L2.02002966,33.9914632 L2.02330893,33.9848984 L2.05938089,33.9094034 L2.06266015,33.9028386 L2.09545284,33.8273436 L2.09873211,33.8174964 L2.13480407,33.7420014 L2.13808334,33.7354366 L2.1741553,33.6599416 L2.17743457,33.6533769 L2.21350653,33.5778818 L2.21678579,33.5713171 L2.25285775,33.4958221 L2.25613702,33.4859749 L2.29220898,33.4104799 L2.29548825,33.4039151 L2.33156021,33.3284201 L2.33483948,33.3185729 L2.37091143,33.2430779 L2.3741907,33.2365131 L2.41026266,33.1610181 L2.41354193,33.1544533 L2.44961389,33.0789583 L2.45289316,33.0723935 L2.48896511,32.9968985 L2.49224438,32.9903337 L2.53159561,32.9181211 L2.53487488,32.9115563 L2.57422611,32.8360613 L2.58078464,32.8262142 L2.62013587,32.7507192 L2.62341514,32.7441544 L2.66276637,32.6686594 L2.66604564,32.6588122 L2.70539686,32.5865996 L2.70867613,32.5800348 L2.74802736,32.5078222 L2.75130663,32.5012574 L2.79065786,32.4290448 L2.79393713,32.4191976 L2.83328835,32.346985 L2.83984689,32.3404202 L2.87919812,32.2682076 L2.88247739,32.2583604 L2.92182861,32.1861478 L2.92838715,32.179583 L2.96773838,32.1073704 L2.97101765,32.1008056 L3.01036887,32.028593 L3.01692741,32.0187458 L3.05955791,31.9465332 L3.06283718,31.9399684 L3.1021884,31.8677558 L3.10546767,31.861191 L3.14809817,31.7889784 L3.15137744,31.7824136 L3.19400793,31.710201 L3.1972872,31.7036362 L3.2399177,31.6314236 L3.24647624,31.6248588 L3.28910673,31.5526462 L3.292386,31.5460814 L3.3350165,31.4738688 L3.34157504,31.467304 L3.38420553,31.3950914 L3.3874848,31.3885266 L3.4301153,31.316314 L3.43667383,31.3097492 L3.47930433,31.2375366 L3.4825836,31.2309718 L3.52849336,31.1587592 L3.5350519,31.148912 L3.58096167,31.0766994 L3.58424094,31.0701346 L3.62687143,31.0012044 L3.63342997,30.9946396 L3.67933974,30.9257094 L3.68589827,30.9191446 L3.72852877,30.846932 L3.73180804,30.8403672 L3.7777178,30.771437 L3.78099707,30.7648722 L3.82690684,30.695942 L3.83346537,30.6893772 L3.87937514,30.6171646 L3.88593368,30.6105998 L3.93184344,30.5416696 L3.93512271,30.5318224 L3.98103248,30.4628922 L3.98431175,30.4563274 L4.03022151,30.3873972 L4.03350078,30.3808324 L4.08268981,30.3119022 L4.08924835,30.3053374 L4.13515812,30.2364072 L4.14171665,30.2298424 L4.19090569,30.1609121 L4.19418496,30.1543474 L4.24337399,30.0854171 L4.24665326,30.0788524 L4.29584229,30.0099221 L4.29912156,30.0033573 L4.3483106,29.9344271 L4.35486913,29.9278623 L4.40405817,29.8589321 L4.40733744,29.8523673 L4.45652647,29.7834371 L4.46308501,29.7768723 L4.51227404,29.7112245 L4.51555331,29.7046597 L4.56474235,29.6357295 L4.57130088,29.6291647 L4.62048992,29.5635169 L4.62704845,29.5569521 L4.67623749,29.4913042 L4.68279603,29.4847395 L4.73198506,29.4190916 L4.7385436,29.4125268 L4.78773263,29.346879 L4.7910119,29.3403142 L4.84020094,29.2746664 L4.84675947,29.2681016 L4.89922778,29.2024538 L4.90578631,29.195889 L4.95825462,29.1302412 L4.96481315,29.1236764 L5.01728146,29.0580285 L5.02383999,29.0514638 L5.0763083,28.9858159 L5.08286684,28.9792511 L5.13533514,28.9136033 L5.14189368,28.9037561 L5.19436198,28.8381083 L5.19764125,28.8315435 L5.25010955,28.7658957 L5.25666809,28.7593309 L5.30913639,28.6936831 L5.31569493,28.6871183 L5.36816323,28.6247529 L5.37472177,28.6181881 L5.42719007,28.5525402 L5.43374861,28.5459755 L5.48621691,28.4803276 L5.49277545,28.4737628 L5.54852302,28.4113974 L5.55508156,28.4048326 L5.60754986,28.3391848 L5.6141084,28.33262 L5.6665767,28.2702546 L5.67313524,28.2636898 L5.72560355,28.1980419 L5.73216208,28.1914772 L5.78790965,28.1258293 L5.79118892,28.1192645 L5.8469365,28.0568991 L5.85349503,28.0503343 L5.9092426,27.9879689 L5.91580114,27.9814041 L5.97154871,27.9190386 L5.97810725,27.9124739 L6.03385482,27.8501084 L6.03713409,27.8435436 L6.09288166,27.7811782 L6.0994402,27.7746134 L6.15518777,27.712248 L6.16174631,27.7056832 L6.21749388,27.6433177 L6.22077315,27.636753 L6.27652072,27.5743875 L6.28307926,27.5678227 L6.3421061,27.5054573 L6.34538537,27.4988925 L6.40441221,27.4365271 L6.41097075,27.4299623 L6.47327686,27.3708792 L6.4798354,27.3643145 L6.53886224,27.301949 L6.54542078,27.2953842 L6.60444762,27.2330188 L6.61100616,27.226454 L6.670033,27.167371 L6.67659153,27.1608062 L6.73561837,27.1017231 L6.74217691,27.0951583 L6.80120375,27.0360753 L6.80776229,27.0295105 L6.8700684,26.9704275 L6.87662694,26.9638627 L6.93565378,26.9047796 L6.94221232,26.8982148 L7.00123916,26.8391318 L7.0077977,26.832567 L7.06682454,26.773484 L7.07338307,26.7669192 L7.13240991,26.7078361 L7.13896845,26.7012713 L7.19799529,26.6421883 L7.20455383,26.6356235 L7.26358067,26.5765405 L7.27013921,26.5699757 L7.32916605,26.5108926 L7.33572459,26.5043278 L7.3980307,26.4485272 L7.40458924,26.4419624 L7.46689534,26.3861617 L7.47345388,26.379597 L7.53575999,26.3205139 L7.54231853,26.3139491 L7.60462464,26.2548661 L7.61118318,26.2515837 L7.67348929,26.195783 L7.68004783,26.1925006 L7.74235393,26.1367 L7.74891247,26.1301352 L7.81121858,26.0743345 L7.81777712,26.0677698 L7.88008323,26.0119691 L7.88664177,26.0054043 L7.94894788,25.9496037 L7.95550641,25.9463213 L8.02109179,25.8905206 L8.02765033,25.8839558 L8.09323571,25.8281552 L8.09979425,25.8215904 L8.16537963,25.7657897 L8.17193816,25.7592249 L8.23752354,25.7067067 L8.24408208,25.7001419 L8.30966746,25.6476236 L8.316226,25.6410588 L8.37853211,25.5885406 L8.38509064,25.5819758 L8.45067602,25.5294575 L8.45723456,25.5228927 L8.52281994,25.4703745 L8.52937848,25.4670921 L8.59496386,25.4145738 L8.60152239,25.408009 L8.66710777,25.3554908 L8.67366631,25.348926 L8.73925169,25.2964077 L8.74581023,25.2898429 L8.81467487,25.2373247 L8.82123341,25.2307599 L8.88681879,25.1782416 L8.89337733,25.1716768 L8.96224198,25.1191586 L8.96880051,25.1125938 L9.03766516,25.0600755 L9.0442237,25.0535107 L9.10980908,25.0009925 L9.11636761,24.9977101 L9.18523226,24.9451918 L9.1917908,24.938627 L9.25737618,24.8861088 L9.26393472,24.879544 L9.33279936,24.8303081 L9.3393579,24.8237433 L9.40822255,24.7712251 L9.41478109,24.7646603 L9.48364573,24.7154244 L9.49020427,24.712142 L9.55906892,24.6629061 L9.56890673,24.6563413 L9.63777137,24.6071055 L9.64432991,24.6038231 L9.71319456,24.5545872 L9.7197531,24.5480224 L9.78861774,24.4955042 L9.79517628,24.4922218 L9.8673202,24.4429859 L9.87387874,24.4364211 L9.94274338,24.3871852 L9.95258119,24.3839028 L10.0214458,24.334667 L10.0280044,24.3313846 L10.096869,24.2821487 L10.1034276,24.2788663 L10.1755715,24.2296304 L10.18213,24.2230657 L10.2509947,24.1738298 L10.2575532,24.1705474 L10.3296971,24.1245939 L10.3362557,24.1213115 L10.4051203,24.0720756 L10.4149581,24.0655109 L10.487102,24.0195574 L10.4936606,24.0129926 L10.5658045,23.9637567 L10.572363,23.9571919 L10.6445069,23.9112384 L10.6543447,23.9079561 L10.7264887,23.8620026 L10.7330472,23.8554378 L10.8051911,23.8094843 L10.8117496,23.8062019 L10.8838936,23.7602484 L10.8904521,23.756966 L10.962596,23.7110126 L10.9691546,23.7077302 L11.0412985,23.6617767 L11.0511363,23.6584943 L11.1232802,23.6158232 L11.1265595,23.6158232 L44.0864914,3.26499497 L44.0897707,3.26171258 L44.1586354,3.21904149 L44.1651939,3.2157591 L44.2373378,3.16980562 L44.2471756,3.16324083 L44.3193195,3.12056974 L44.3291573,3.11400496 L44.4013013,3.07133387 L44.4111391,3.06476908 L44.483283,3.02209799 L44.4931208,3.0188156 L44.568544,2.97614451 L44.5751025,2.96957972 L44.6472464,2.92690863 L44.6570842,2.92362624 L44.7292282,2.88095515 L44.7357867,2.87767276 L44.8112099,2.83828406 L44.8177684,2.83171928 L44.8931916,2.79233058 L44.8997501,2.78576579 L44.9718941,2.74637709 L44.9817319,2.7430947 L45.057155,2.703706 L45.0637136,2.69714122 L45.1358575,2.65775252 L45.1456953,2.65118773 L45.2178392,2.61179903 L45.227677,2.60523425 L45.2998209,2.56584555 L45.3063795,2.55928077 L45.3818027,2.51989207 L45.3883612,2.51660968 L45.4605051,2.47722098 L45.4703429,2.47393859 L45.5424868,2.43454989 L45.5523247,2.43126749 L45.6277478,2.39187879 L45.6375856,2.3885964 L45.7130088,2.3492077 L45.7195674,2.34592531 L45.7949906,2.309819 L45.8048284,2.30653661 L45.8802515,2.2704303 L45.8900894,2.26714791 L45.9622333,2.2310416 L45.9720711,2.22775921 L46.0474943,2.1916529 L46.0540528,2.18837051 L46.129476,2.1522642 L46.1393138,2.14898181 L46.214737,2.1128755 L46.2245748,2.10631072 L46.299998,2.07020441 L46.3098358,2.06692202 L46.385259,2.03081571 L46.3950968,2.02753332 L46.47052,1.9947094 L46.4803578,1.99142701 L46.5557809,1.9586031 L46.5623395,1.95203831 L46.6377627,1.9192144 L46.6443212,1.91593201 L46.7197444,1.88310809 L46.7295822,1.87654331 L46.8050054,1.84371939 L46.8148432,1.840437 L46.8902664,1.80761308 L46.9001042,1.80433069 L46.9755274,1.77150677 L46.9853652,1.76822438 L47.0607884,1.73540046 L47.0706262,1.73211807 L47.1460494,1.69929416 L47.1558872,1.69601176 L47.2313103,1.66647024 L47.2411482,1.66318785 L47.3165713,1.63036393 L47.3264091,1.62708154 L47.4051116,1.59425762 L47.4149494,1.59097523 L47.4936519,1.55815132 L47.5034897,1.55158653 L47.5789128,1.52204501 L47.5854714,1.51876262 L47.6641738,1.48922109 L47.6740116,1.4859387 L47.7494348,1.45639717 L47.7559934,1.45311478 L47.8346958,1.42357326 L47.8445336,1.42029087 L47.9232361,1.39403173 L47.9330739,1.39074934 L48.0117763,1.36120782 L48.0216142,1.35792543 L48.1003166,1.3283839 L48.1101544,1.32510151 L48.1888569,1.29884238 L48.1986947,1.29555998 L48.2773971,1.26930085 L48.2872349,1.26601846 L48.3626581,1.23975933 L48.3724959,1.23647693 L48.4511984,1.2102178 L48.4610362,1.20693541 L48.5364594,1.18067628 L48.5462972,1.17739388 L48.6249996,1.15113475 L48.6315582,1.14785236 L48.7102606,1.12159323 L48.7200984,1.11831083 L48.7988009,1.0920517 L48.8086387,1.08876931 L48.8873412,1.06251018 L48.897179,1.05922779 L48.9758814,1.03625104 L48.98244,1.03296865 L49.0611424,1.00999191 L49.0709802,1.00670952 L49.1496827,0.983732777 L49.1595205,0.983732777 L49.2382229,0.960756036 L49.2480607,0.957473644 L49.3267632,0.934496902 L49.3333217,0.931214511 L49.4120242,0.908237769 L49.4185827,0.904955378 L49.4972852,0.881978636 L49.507123,0.878696244 L49.5858254,0.855719503 L49.5956632,0.852437111 L49.6743657,0.82946037 L49.6842035,0.826177978 L49.762906,0.806483628 L49.7727438,0.803201236 L49.8514462,0.783506887 L49.8580048,0.780224495 L49.9367072,0.757247753 L49.9445775,0.753965362 L50.0265592,0.734271012 L50.0331177,0.734271012 L50.1118202,0.71129427 L50.121658,0.71129427 L50.2026559,0.69159992 L50.2124937,0.688317529 L50.2944754,0.668623179 L50.3043133,0.665340787 L50.3830157,0.645646437 L50.3928535,0.645646437 L50.4748352,0.625952087 L50.484673,0.625952087 L50.5633755,0.606257738 L50.5732133,0.602975346 L50.6519158,0.586563388 L50.6617536,0.583280996 L50.740456,0.563586646 L50.7502938,0.560304254 L50.8289963,0.543892296 L50.8388341,0.543892296 L50.9175365,0.527480338 L50.9273744,0.524197946 L51.0060768,0.507785988 L51.0126353,0.507785988 L51.0913378,0.49137403 L51.1011756,0.488091638 L51.1831573,0.47167968 L51.1897159,0.47167968 L51.2716976,0.455267722 L51.2782561,0.45198533 L51.3602378,0.435573372 L51.3700757,0.43229098 L51.4520574,0.415879022 L51.4618952,0.41259663 L51.5438769,0.399467064 L51.5537147,0.399467064 L51.6324172,0.386337497 L51.642255,0.383055105 L51.7242367,0.366643147 L51.7340745,0.363360756 L51.8160562,0.350231189 L51.825894,0.350231189 L51.9045965,0.337101622 L51.9144343,0.333819231 L51.996416,0.320689664 L52.0062538,0.317407272 L52.0849563,0.304277706 L52.0915148,0.304277706 L52.1702173,0.291148139 L52.1800551,0.291148139 L52.2620368,0.278018573 L52.2718746,0.274736181 L52.3538563,0.261606614 L52.3636941,0.261606614 L52.4456759,0.248477048 L52.4555137,0.248477048 L52.5374954,0.235347481 L52.5473332,0.235347481 L52.6293149,0.225500306 L52.6391527,0.225500306 L52.7178552,0.215653131 L52.727693,0.215653131 L52.8096747,0.205805956 L52.8195125,0.202523565 L52.9014942,0.19267639 L52.9080528,0.189393998 L52.9900345,0.182829215 L52.9998723,0.182829215 L53.0785748,0.17298204 L53.0884126,0.17298204 L53.167115,0.163134865 L53.1769528,0.163134865 L53.2589346,0.15328769 L53.2687724,0.15328769 L53.3507541,0.143440515 L53.3605919,0.143440515 L53.4392943,0.136875732 L53.4491322,0.136875732 L53.5311139,0.127028557 L53.5409517,0.123746165 L53.6229334,0.117181382 L53.6327712,0.11389899 L53.7147529,0.107334207 L53.7245907,0.107334207 L53.8052608,0.100769424 L53.8150986,0.100769424 L53.8970803,0.0942046403 L53.9069181,0.0942046403 L53.9888998,0.0909222487 L53.9987376,0.087639857 L54.0807193,0.0810750737 L54.0872779,0.0777926821 L54.1692596,0.0745102904 L54.1790974,0.0745102904 L54.2610791,0.0679455071 L54.2676377,0.0679455071 L54.3496194,0.0646631155 L54.3594572,0.0646631155 L54.4414389,0.0613807238 L54.4512767,0.0613807238 L54.5332585,0.0580983322 L54.5430963,0.0580983322 L54.625078,0.0548159405 L54.6349158,0.0515335489 L54.7168975,0.0482511572 L54.7267353,0.0482511572 L54.8087171,0.0449687656 L54.8185549,0.0449687656 L54.9005366,0.0416863739 L54.9103744,0.0416863739 L54.9923561,0.0384039823 L55.0021939,0.0384039823 L55.0841756,0.0351215906 L55.0907342,0.0351215906 L55.1727159,0.031839199 L55.2743732,0.031839199 L55.356355,0.0285568073 L55.5465526,0.0285568073 L55.5639327,0 Z M55.4885095,8.86245745 L55.4347295,8.86245745 L55.3809495,8.86311393 L55.3274974,8.86311393 L55.2717498,8.86442689 L55.2160023,8.86573984 L55.1602547,8.86738104 L55.1045071,8.87066343 L55.0487595,8.87394582 L54.993012,8.87722821 L54.9405437,8.88051061 L54.8847961,8.883793 L54.8323278,8.88707539 L54.7798595,8.89035778 L54.7273912,8.89364017 L54.6716436,8.89692256 L54.6191753,8.90020496 L54.5634277,8.90676974 L54.5076802,8.91333452 L54.4552119,8.91989931 L54.3994643,8.92646409 L54.3437167,8.93302887 L54.2879691,8.93959366 L54.2355008,8.94615844 L54.1797533,8.95272322 L54.127285,8.95928801 L54.0748167,8.96585279 L54.0190691,8.97241757 L53.9666008,8.97898236 L53.9141325,8.98554714 L53.8616642,8.99211192 L53.8091959,8.99867671 L53.7534483,9.00524149 L53.70098,9.01508866 L53.6485117,9.02165345 L53.5927641,9.03150062 L53.5402958,9.0413478 L53.4878275,9.05119497 L53.4353592,9.06104215 L53.3828909,9.07088932 L53.3304226,9.0807365 L53.2779543,9.09058367 L53.225486,9.09714845 L53.1697384,9.10699563 L53.1172701,9.1168428 L53.0615226,9.12668998 L53.0090543,9.13653715 L52.956586,9.14638433 L52.9041177,9.1562315 L52.8516494,9.16936107 L52.7991811,9.18249064 L52.7467128,9.1956202 L52.6942444,9.20546738 L52.6417761,9.21531455 L52.5893078,9.22844412 L52.5368395,9.24157369 L52.4843712,9.25470325 L52.4319029,9.26783282 L52.3794346,9.28096239 L52.3269663,9.29409195 L52.274498,9.30722152 L52.2220297,9.32035109 L52.1695614,9.33348065 L52.1170931,9.34661022 L52.0646248,9.36302218 L52.0121565,9.37615174 L51.9596882,9.3925637 L51.9104992,9.40897566 L51.8580309,9.42538762 L51.8055626,9.44179958 L51.7530943,9.45821154 L51.700626,9.47462349 L51.6481577,9.49103545 L51.5989686,9.50744741 L51.5465003,9.52385937 L51.494032,9.54355372 L51.4415637,9.55996568 L51.3890954,9.57637764 L51.3366271,9.59607199 L51.2841588,9.61248394 L51.2316905,9.6288959 L51.1825015,9.64530786 L51.1300332,9.66500221 L51.0775649,9.68469656 L51.0250966,9.70439091 L50.9759075,9.72408526 L50.9234392,9.74377961 L50.8742502,9.76347396 L50.8250612,9.78316831 L50.7725929,9.80614505 L50.7201246,9.8258394 L50.6676563,9.84553375 L50.6151879,9.8652281 L50.5659989,9.88820484 L50.5168099,9.90789919 L50.4643416,9.93087593 L50.4151525,9.95385267 L50.3659635,9.97682942 L50.3167745,9.99980616 L50.2643062,10.0227829 L50.2151171,10.0457596 L50.1626488,10.0687364 L50.1134598,10.0917131 L50.0642708,10.1146899 L50.0150817,10.1376666 L49.9626134,10.1606433 L49.9134244,10.1836201 L49.8642354,10.2065968 L49.8150463,10.232856 L49.7658573,10.2591151 L49.7166683,10.2820918 L49.6674792,10.308351 L49.6182902,10.3313277 L49.5691012,10.3575868 L49.5199121,10.383846 L49.4707231,10.4101051 L49.4215341,10.4363642 L49.372345,10.4626234 L49.323156,10.4921649 L49.2772462,10.518424 L49.2280572,10.5446832 L49.1821474,10.5709423 L49.1329584,10.6004838 L49.0837694,10.6300254 L49.0345803,10.6595669 L48.9886706,10.685826 L48.9394815,10.7153675 L48.8935718,10.7449091 L48.8443827,10.7744506 L48.7951937,10.8039921 L48.7427254,10.836816 L15.8188654,31.1482556 L15.7631178,31.1843619 L15.7106495,31.2171858 L15.6614605,31.2500097 L15.6122714,31.2828336 L15.5630824,31.3156575 L15.5138934,31.3484814 L15.4647043,31.3813054 L15.4155153,31.4141293 L15.3663263,31.4469532 L15.3171372,31.4797771 L15.2679482,31.512601 L15.2187592,31.5454249 L15.1695701,31.5815312 L15.1236604,31.6143552 L15.0777506,31.6471791 L15.0285616,31.680003 L14.9826518,31.7128269 L14.936742,31.7456508 L14.8908323,31.7784747 L14.8449225,31.8112987 L14.7990127,31.8441226 L14.753103,31.8769465 L14.7071932,31.9130528 L14.6612834,31.9458767 L14.6153737,31.981983 L14.5694639,32.0180893 L14.5235541,32.0541956 L14.4776444,32.090302 L14.4317346,32.1264083 L14.3858249,32.1625146 L14.3431944,32.1986209 L14.2972846,32.2347272 L14.2513748,32.2708335 L14.2087443,32.3069398 L14.1628346,32.3430461 L14.1169248,32.3791524 L14.0742943,32.4152587 L14.0283845,32.451365 L13.985754,32.4874713 L13.9431235,32.5235777 L13.9004931,32.5629664 L13.8578626,32.6023551 L13.8152321,32.6384614 L13.7726016,32.6745677 L13.7299711,32.7139564 L13.6873406,32.7533451 L13.6447101,32.7927338 L13.6020796,32.8321225 L13.5594491,32.8715112 L13.5168186,32.9108999 L13.4741881,32.9502886 L13.4315576,32.9896773 L13.3889271,33.029066 L13.3462966,33.0684547 L13.3036661,33.1078434 L13.2643149,33.1472321 L13.2216844,33.1866208 L13.1823332,33.2292919 L13.1397027,33.2686806 L13.1003514,33.3113516 L13.0610002,33.3507403 L13.021649,33.3934114 L12.9822978,33.4328001 L12.9429465,33.4754712 L12.9035953,33.5181423 L12.8609648,33.5608134 L12.8216136,33.6002021 L12.7822623,33.6428732 L12.7429111,33.6855443 L12.7035599,33.7282154 L12.6674879,33.7708865 L12.6281367,33.8135576 L12.5887855,33.8562287 L12.5494343,33.8988998 L12.510083,33.9448532 L12.4707318,33.9875243 L12.4346598,34.0301954 L12.3985879,34.0728665 L12.3592367,34.11882 L12.3231647,34.1614911 L12.2838135,34.2041622 L12.2477415,34.2501157 L12.2116696,34.2927868 L12.1755976,34.3387402 L12.1395256,34.3846937 L12.1034537,34.4306472 L12.0673817,34.4766007 L12.0313098,34.5225542 L11.9952378,34.5685076 L11.9624451,34.6144611 L11.9263732,34.6604146 L11.8903012,34.7063681 L11.8542292,34.7523216 L11.8181573,34.7982751 L11.7853646,34.8442285 L11.7525719,34.890182 L11.7197792,34.9361355 L11.6869865,34.9853714 L11.6541938,35.0313249 L11.6214011,35.0772784 L11.5886085,35.1265142 L11.5558158,35.1724677 L11.5230231,35.2184212 L11.4902304,35.2643747 L11.4574377,35.3103282 L11.4279243,35.359564 L11.3951316,35.4087999 L11.3623389,35.4547534 L11.3295462,35.5039893 L11.3000328,35.5532251 L11.2705194,35.5991786 L11.241006,35.6484145 L11.2114925,35.6976504 L11.1819791,35.7468863 L11.1524657,35.7961221 L11.119673,35.845358 L11.0868803,35.8945939 L11.0573669,35.9438297 L11.0278535,35.9930656 L10.9983401,36.0423015 L10.9688266,36.0915374 L10.9393132,36.1407732 L10.9097998,36.1900091 L10.8802864,36.239245 L10.8507729,36.2884809 L10.8212595,36.3377167 L10.7917461,36.3869526 L10.7622327,36.4394709 L10.7327193,36.4887068 L10.7032058,36.5379426 L10.6736924,36.5904609 L10.6474583,36.6396968 L10.6212241,36.692215 L10.59499,36.7447333 L10.5687558,36.7972516 L10.5425217,36.8464875 L10.5162875,36.8957233 L10.4900534,36.9482416 L10.4638192,36.9974775 L10.4375851,37.0499957 L10.4146302,37.0992316 L10.388396,37.1517499 L10.3621619,37.2042681 L10.3359277,37.2567864 L10.3096936,37.3093047 L10.2834594,37.3618229 L10.2605045,37.4143412 L10.2375497,37.4668595 L10.2145948,37.5193777 L10.1916399,37.571896 L10.168685,37.6244143 L10.1457301,37.6769325 L10.1227752,37.7294508 L10.0998204,37.7819691 L10.0768655,37.8344873 L10.0571899,37.8870056 L10.034235,37.9395239 L10.0112801,37.9953245 L9.98832522,38.0478428 L9.96537034,38.1003611 L9.94241546,38.1528793 L9.92273984,38.2053976 L9.89978496,38.2611983 L9.87683008,38.3137165 L9.85715447,38.3662348 L9.83747885,38.4220354 L9.81780324,38.4745537 L9.79812762,38.5303544 L9.77845201,38.5828726 L9.7587764,38.6386733 L9.73910078,38.694474 L9.71942517,38.7502746 L9.70302883,38.8060753 L9.68335321,38.8585935 L9.6636776,38.9143942 L9.64728125,38.9701949 L9.63088491,39.0227131 L9.61448856,39.0785138 L9.59481295,39.1343144 L9.57841661,39.1868327 L9.56202026,39.239351 L9.54562392,39.2951516 L9.5259483,39.3509523 L9.50955196,39.4067529 L9.49315561,39.4592712 L9.47675927,39.5150719 L9.46036293,39.5708725 L9.44396658,39.6266732 L9.42757024,39.6824738 L9.41117389,39.7382745 L9.39805682,39.7940752 L9.38493974,39.8498758 L9.3685434,39.9056765 L9.35542632,39.9614771 L9.33902997,40.0172778 L9.3259129,40.0730784 L9.31279582,40.1288791 L9.29967875,40.1879622 L9.28656167,40.2437628 L9.2734446,40.2995635 L9.26032752,40.3553641 L9.24721044,40.4111648 L9.23409337,40.4669654 L9.22097629,40.5227661 L9.21113849,40.5785668 L9.19802141,40.6343674 L9.1881836,40.6901681 L9.1783458,40.7492511 L9.16850799,40.8083342 L9.15867018,40.8674172 L9.14883238,40.9265003 L9.13899457,40.9823009 L9.12915676,41.0381016 L9.11931896,41.0971846 L9.10948115,41.1562677 L9.09964334,41.2120683 L9.08980554,41.267869 L9.07996773,41.3236697 L9.07012992,41.3827527 L9.06357139,41.4418358 L9.05701285,41.5009188 L9.05045431,41.5567195 L9.0406165,41.6158025 L9.0307787,41.6716032 L9.02422016,41.7306862 L9.01766162,41.7897693 L9.01110308,41.8488523 L9.00454454,41.9079354 L8.99798601,41.9670184 L8.99142747,42.0261015 L8.98486893,42.0819021 L8.97831039,42.1409852 L8.97175186,42.2000682 L8.96847259,42.2591513 L8.96191405,42.3182343 L8.95535551,42.3773174 L8.95207624,42.4364004 L8.94879697,42.4954835 L8.9455177,42.5545665 L8.94223843,42.6136496 L8.93895917,42.6727326 L8.9356799,42.7318157 L8.93240063,42.7908987 L8.92912136,42.8499818 L8.92584209,42.9090648 L8.92256282,42.9681479 L8.92256282,43.0272309 L8.91928355,43.086314 L8.91600428,43.145397 L8.91600428,43.2044801 L8.91272501,43.2635631 L8.91272501,84.8842892 L8.91600428,84.9433723 L8.91600428,85.1206214 L8.91928355,85.1764221 L8.92256282,85.2355051 L8.92584209,85.2945882 L8.92912136,85.3536712 L8.93240063,85.4127543 L8.9356799,85.4718373 L8.93895917,85.5309204 L8.94223843,85.5900034 L8.9455177,85.6490865 L8.95207624,85.7081695 L8.95535551,85.7672526 L8.95863478,85.8263356 L8.96191405,85.8854187 L8.96847259,85.9412193 L8.97503112,86.0003024 L8.98158966,86.0561031 L8.98486893,86.1151861 L8.99142747,86.1709868 L8.99798601,86.2267874 L9.00454454,86.2825881 L9.01110308,86.3383887 L9.01766162,86.3974718 L9.02422016,86.4532724 L9.0307787,86.5090731 L9.03733723,86.5681561 L9.04389577,86.6272392 L9.05045431,86.6830399 L9.05701285,86.7421229 L9.06685065,86.7979236 L9.07668846,86.8537242 L9.08652627,86.9095249 L9.09636407,86.9653255 L9.10620188,87.0244086 L9.11603969,87.0802092 L9.12587749,87.1360099 L9.1357153,87.1918106 L9.14555311,87.2476112 L9.15867018,87.3034119 L9.16850799,87.3592125 L9.1783458,87.4150132 L9.1881836,87.4708139 L9.20130068,87.5266145 L9.21441776,87.5824152 L9.22425556,87.6382158 L9.23737264,87.6940165 L9.25048971,87.7498171 L9.26360679,87.8056178 L9.27672387,87.8614185 L9.28984094,87.9172191 L9.30295802,87.9730198 L9.31607509,88.0288204 L9.32919217,88.0813387 L9.34558851,88.133857 L9.35870559,88.1896576 L9.37182266,88.2454583 L9.38493974,88.3012589 L9.40133608,88.3570596 L9.41445316,88.4095779 L9.42757024,88.4653785 L9.44068731,88.5178968 L9.45708366,88.5736974 L9.47020073,88.6262157 L9.48659708,88.6820164 L9.50299342,88.737817 L9.51938977,88.7903353 L9.53578611,88.846136 L9.55218246,88.9019366 L9.5685788,88.9544549 L9.58497514,89.0102555 L9.60465076,89.0627738 L9.62432637,89.1152921 L9.64400198,89.1678103 L9.6636776,89.2203286 L9.68007394,89.2728469 L9.69974956,89.3286475 L9.71942517,89.3811658 L9.73910078,89.4336841 L9.7587764,89.4862023 L9.77845201,89.5387206 L9.79812762,89.5912389 L9.81780324,89.6437571 L9.83747885,89.6962754 L9.85715447,89.7487937 L9.87683008,89.8013119 L9.89978496,89.8538302 L9.92273984,89.9063485 L9.94241546,89.9588667 L9.96209107,90.011385 L9.98176668,90.0639033 L10.0014423,90.1164215 L10.0211179,90.1689398 L10.0440728,90.2214581 L10.0670277,90.2739763 L10.0899826,90.3264946 L10.1129374,90.3790129 L10.1358923,90.4315311 L10.1588472,90.4840494 L10.1818021,90.5365677 L10.204757,90.5890859 L10.2277119,90.6416042 L10.2506667,90.6941225 L10.2736216,90.7466407 L10.2965765,90.7958766 L10.3228107,90.8483949 L10.3490448,90.8976307 L10.375279,90.950149 L10.4015131,90.9993849 L10.4277473,91.0486207 L10.4539814,91.0978566 L10.4802156,91.1470925 L10.5064497,91.1963284 L10.5326839,91.2455642 L10.5621973,91.2948001 L10.5884314,91.344036 L10.6146656,91.3932719 L10.6408997,91.4425077 L10.6704132,91.4917436 L10.6999266,91.5409795 L10.7261607,91.5902154 L10.7523949,91.6394512 L10.778629,91.6886871 L10.8081425,91.737923 L10.8343766,91.7871589 L10.86389,91.8331124 L10.8934034,91.8823482 L10.9229169,91.9283017 L10.9524303,91.9775376 L10.9819437,92.0267735 L11.0114571,92.0727269 L11.0409705,92.1186804 L11.070484,92.1646339 L11.0999974,92.2105874 L11.1295108,92.2598233 L11.1590242,92.3090591 L11.1918169,92.3550126 L11.2213303,92.4009661 L11.2508438,92.450202 L11.2803572,92.4961555 L11.3098706,92.5421089 L11.3426633,92.5880624 L11.375456,92.6340159 L11.4082487,92.6832518 L11.4410414,92.7292053 L11.473834,92.7751588 L11.5066267,92.8211122 L11.5394194,92.8670657 L11.5722121,92.9130192 L11.6050048,92.9589727 L11.6377975,93.0049262 L11.6738695,93.0508797 L11.7099414,93.0968331 L11.7427341,93.1427866 L11.7755268,93.1887401 L11.8083195,93.2346936 L11.8411122,93.2806471 L11.8771841,93.3233182 L11.9132561,93.3659893 L11.949328,93.4119427 L11.9854,93.4546138 L12.021472,93.5005673 L12.0575439,93.5432384 L12.0936159,93.5859095 L12.1296878,93.6285806 L12.1657598,93.6712517 L12.2018317,93.7139228 L12.2379037,93.7565939 L12.2739757,93.799265 L12.3100476,93.841936 L12.3461196,93.8846071 L12.3821915,93.9272782 L12.4182635,93.9699493 L12.4576147,94.0126204 L12.496966,94.0552915 L12.5330379,94.0979626 L12.5723891,94.1373513 L12.6117404,94.1800224 L12.6510916,94.2194111 L12.6904428,94.2620822 L12.7265148,94.3047533 L12.765866,94.3474244 L12.8052172,94.3868131 L12.8445685,94.4262018 L12.8839197,94.4655905 L12.9232709,94.5049792 L12.9626221,94.5476502 L13.0019734,94.5870389 L13.0413246,94.6264276 L13.0806758,94.6658163 L13.120027,94.705205 L13.1593783,94.7445937 L13.2020088,94.7839824 L13.24136,94.8233711 L13.2807112,94.8627598 L13.3233417,94.9021485 L13.3626929,94.9415372 L13.4020442,94.9809259 L13.4446747,95.0203146 L13.4873052,95.056421 L13.5299357,95.0925273 L13.5725662,95.131916 L13.6151967,95.1713047 L13.6578272,95.207411 L13.7004576,95.2435173 L13.7430881,95.282906 L13.7857186,95.3222947 L13.8283491,95.358401 L13.8742589,95.3945073 L13.9201687,95.4306136 L13.9660784,95.4667199 L14.0087089,95.5028262 L14.0513394,95.5389325 L14.0972492,95.5750388 L14.1398797,95.6111451 L14.1857894,95.6439691 L14.2284199,95.6800754 L14.2743297,95.7161817 L14.3202395,95.752288 L14.3661492,95.7883943 L14.4087797,95.8212182 L14.4546895,95.8573245 L14.5005993,95.8901484 L14.546509,95.9262547 L14.5924188,95.962361 L14.6383286,95.995185 L14.6842383,96.0280089 L14.7334274,96.0608328 L14.7793371,96.0936567 L14.8252469,96.1264806 L14.8711567,96.1593045 L14.9170664,96.1921285 L14.9629762,96.2249524 L15.0088859,96.2577763 L15.058075,96.2906002 L15.107264,96.3201417 L15.156453,96.3529657 L15.2023628,96.3857896 L15.2515518,96.4186135 L15.3007409,96.4514374 L15.3466506,96.4809789 L15.3958397,96.5105205 L15.4450287,96.540062 L15.4942177,96.5696035 L15.5434068,96.599145 L15.5925958,96.6286866 L15.6450641,96.6582281 L15.6942532,96.6877696 L15.7434422,96.7173111 L15.7991898,96.750135 L50.1265769,116.838372 L50.1692074,116.864631 L50.2052793,116.884325 L50.2446306,116.90402 L50.2839818,116.923714 L50.323333,116.943408 L50.359405,116.966385 L50.3987562,116.98608 L50.4381074,117.005774 L50.4774587,117.025468 L50.5168099,117.048445 L50.5561611,117.068139 L50.5955123,117.087834 L50.6348636,117.107528 L50.6742148,117.127222 L50.713566,117.146917 L50.7529172,117.166611 L50.7922685,117.186305 L50.8316197,117.206 L50.8676917,117.225694 L50.9070429,117.245388 L50.9463941,117.265083 L50.9857453,117.281495 L51.0250966,117.301189 L51.0644478,117.317601 L51.103799,117.334013 L51.1431502,117.350425 L51.1825015,117.370119 L51.2218527,117.389814 L51.2612039,117.406226 L51.3005552,117.42592 L51.3399064,117.442332 L51.3792576,117.458744 L51.4186088,117.475156 L51.4579601,117.491568 L51.4973113,117.50798 L51.5366625,117.524392 L51.5760137,117.540804 L51.615365,117.557216 L51.6547162,117.573628 L51.6940674,117.586757 L51.7366979,117.603169 L51.7760491,117.619581 L51.8154004,117.635993 L51.8547516,117.652405 L51.8941028,117.668817 L51.9334541,117.681947 L51.9728053,117.698359 L52.0121565,117.711488 L52.0515077,117.724618 L52.0941382,117.737747 L52.1334895,117.750877 L52.1695614,117.764006 L52.2548224,117.790266 L52.3368041,117.816525 L52.4187859,117.839501 L52.5007676,117.862478 L52.5827493,117.885455 L52.664731,117.908432 L52.7467128,117.931408 L52.8286945,117.954385 L52.9106762,117.977362 L52.9926579,117.997056 L53.0746396,118.016751 L53.1566214,118.036445 L53.2386031,118.052857 L53.3205848,118.072551 L53.4025665,118.088963 L53.4845483,118.105375 L53.56653,118.121787 L53.6485117,118.134917 L53.7304934,118.151329 L53.8124752,118.164458 L53.8944569,118.177588 L53.9797179,118.190717 L54.0616996,118.203847 L54.1469606,118.213694 L54.2322216,118.223541 L54.3174826,118.233388 L54.4027436,118.239953 L54.4847253,118.246518 L54.5699863,118.253083 L54.651968,118.259648 L54.737229,118.266212 L54.82249,118.272777 L54.9044717,118.279342 L54.9864534,118.282624 L55.0684352,118.285907 L55.1536961,118.289189 L55.5734426,118.289189 L55.6587036,118.285907 L55.7439645,118.285907 L55.8292255,118.282624 L55.9144865,118.279342 L55.9997475,118.272777 L56.0850085,118.266212 L56.1702695,118.26293 L56.2555305,118.256365 L56.3407915,118.2498 L56.4260525,118.243236 L56.5080342,118.236671 L56.5932952,118.226824 L56.6785562,118.216976 L56.7605379,118.207129 L56.8457989,118.197282 L56.9277806,118.184153 L57.0130416,118.171023 L57.0950233,118.157893 L57.1802843,118.144764 L57.2622661,118.131634 L57.3442478,118.115222 L57.4262295,118.102093 L57.5114905,118.085681 L57.5934722,118.069269 L57.6754539,118.049574 L57.7574357,118.033162 L57.8394174,118.013468 L57.9213991,117.993774 L58.0033808,117.974079 L58.0853626,117.954385 L58.1673443,117.931408 L58.249326,117.908432 L58.3313077,117.885455 L58.4132895,117.862478 L58.4985504,117.836219 L58.5379017,117.823089 L58.5772529,117.80996 L58.6166041,117.79683 L58.6592346,117.783701 L58.6985859,117.770571 L58.7412163,117.757442 L58.7805676,117.744312 L58.8199188,117.731182 L58.8625493,117.718053 L58.9019005,117.704923 L58.9412518,117.691794 L58.9838822,117.675382 L59.0232335,117.662252 L59.065864,117.649123 L59.1052152,117.632711 L59.1445664,117.619581 L59.1839177,117.606452 L59.2232689,117.593322 L59.2658994,117.57691 L59.3052506,117.56378 L59.3446018,117.547369 L59.3839531,117.530957 L59.4233043,117.514545 L59.4626555,117.498133 L59.5020067,117.481721 L59.541358,117.465309 L59.5807092,117.448897 L59.6200604,117.432485 L59.6594116,117.416073 L59.6987629,117.399661 L59.7381141,117.379967 L59.7774653,117.360272 L59.8168166,117.34386 L59.8561678,117.324166 L59.895519,117.304472 L59.9348702,117.28806 L59.9742215,117.268365 L60.0135727,117.248671 L60.0529239,117.228977 L60.0889959,117.209282 L60.1283471,117.189588 L60.1676983,117.169893 L60.2070496,117.150199 L60.2464008,117.130505 L60.285752,117.11081 L60.3251032,117.091116 L60.3644545,117.071422 L60.4038057,117.051727 L60.4398777,117.032033 L60.4792289,117.012339 L60.5185801,116.992644 L60.5612106,116.969668 L98.5908923,95.7555704 L98.6368021,95.7325936 L98.6794326,95.7096169 L98.7187838,95.6866401 L98.7581351,95.6636634 L98.7974863,95.6406867 L98.8368375,95.6144275 L98.879468,95.5914508 L98.9188192,95.568474 L98.9581705,95.5454973 L98.9975217,95.5225206 L99.0368729,95.4962614 L99.0762241,95.4700023 L99.1155754,95.4470256 L99.1549266,95.4240488 L99.1942778,95.4010721 L99.233629,95.3748129 L99.2729803,95.3485538 L99.3123315,95.3255771 L99.3516827,95.2993179 L99.391034,95.2763412 L99.4271059,95.2500821 L99.4631779,95.2238229 L99.4992498,95.1975638 L99.5353218,95.1713047 L99.5713937,95.1450455 L99.610745,95.1187864 L99.6468169,95.0925273 L99.6861682,95.0662681 L99.7222401,95.040009 L99.7583121,95.0137499 L99.794384,94.9874907 L99.830456,94.9612316 L99.866528,94.9349725 L99.9058792,94.9087133 L99.9419511,94.8791718 L99.9780231,94.8529127 L100.014095,94.8233711 L100.050167,94.797112 L100.086239,94.7675705 L100.122311,94.738029 L100.158383,94.7084874 L100.194455,94.6822283 L100.230527,94.6559692 L100.266599,94.6264276 L100.299391,94.5968861 L100.335463,94.5673446 L100.371535,94.5378031 L100.404328,94.5115439 L100.4404,94.4820024 L100.476472,94.4491785 L100.509265,94.419637 L100.545337,94.3900954 L100.578129,94.3605539 L100.610922,94.3310124 L100.643715,94.2981885 L100.679787,94.268647 L100.712579,94.235823 L100.745372,94.2062815 L100.778165,94.1734576 L100.810957,94.1406337 L100.84375,94.1110922 L100.876543,94.0782682 L100.909335,94.0487267 L100.942128,94.0159028 L100.974921,93.9830789 L101.007714,93.950255 L101.040506,93.9174311 L101.07002,93.8846071 L101.102812,93.8517832 L101.132326,93.8189593 L101.165118,93.7861354 L101.197911,93.7533115 L101.230704,93.7204876 L101.260217,93.6876636 L101.289731,93.6548397 L101.319244,93.6220158 L101.348758,93.5891919 L101.38155,93.556368 L101.411064,93.5235441 L101.440577,93.4907201 L101.47009,93.4578962 L101.499604,93.4250723 L101.529117,93.3922484 L101.558631,93.3594245 L101.588144,93.3266006 L101.617658,93.2904942 L101.647171,93.2543879 L101.676684,93.2182816 L101.706198,93.1854577 L101.735711,93.1526338 L101.765225,93.1198099 L101.794738,93.0837036 L101.824251,93.0508797 L101.853765,93.0147733 L101.879999,92.9819494 L101.906233,92.9458431 L101.932467,92.9097368 L101.958702,92.8769129 L101.988215,92.8408066 L102.014449,92.8047003 L102.040683,92.768594 L102.066917,92.7324877 L102.093152,92.6963814 L102.119386,92.660275 L102.14562,92.6241687 L102.171854,92.5880624 L102.198088,92.5519561 L102.224322,92.5158498 L102.250556,92.4797435 L102.276791,92.4436372 L102.303025,92.4075309 L102.32598,92.3714246 L102.348935,92.3320359 L102.375169,92.2926472 L102.401403,92.2565409 L102.424358,92.2204346 L102.447313,92.1843283 L102.473547,92.1449396 L102.499781,92.1088333 L102.522736,92.0727269 L102.545691,92.0333382 L102.568646,91.9939495 L102.5916,91.9545608 L102.614555,91.9151721 L102.63751,91.8790658 L102.660465,91.8396771 L102.68342,91.8002884 L102.706375,91.7641821 L102.72933,91.7247934 L102.752285,91.6854047 L102.775239,91.646016 L102.794915,91.6066273 L102.814591,91.5672386 L102.837546,91.5278499 L102.8605,91.4884612 L102.880176,91.4490725 L102.903131,91.4096838 L102.926086,91.3702951 L102.945761,91.3309064 L102.965437,91.2915177 L102.985113,91.2488466 L103.004788,91.2094579 L103.027743,91.1700692 L103.050698,91.1306805 L103.070374,91.0912918 L103.090049,91.0519031 L103.109725,91.0125144 L103.129401,90.9698433 L103.149076,90.9304547 L103.168752,90.891066 L103.188427,90.8483949 L103.208103,90.8090062 L103.227779,90.7696175 L103.247454,90.7269464 L103.26713,90.6842753 L103.286805,90.6416042 L103.306481,90.6022155 L103.322877,90.5628268 L103.339274,90.5201557 L103.35567,90.4774846 L103.372066,90.4348135 L103.388463,90.3954248 L103.404859,90.3527537 L103.421255,90.3100826 L103.437652,90.2674115 L103.454048,90.2280228 L103.470445,90.1853517 L103.486841,90.1426807 L103.503237,90.1000096 L103.519634,90.0573385 L103.53603,90.0146674 L103.549147,89.9719963 L103.562264,89.9293252 L103.575381,89.8866541 L103.588498,89.843983 L103.604895,89.8013119 L103.621291,89.7586408 L103.637687,89.7159697 L103.654084,89.6732986 L103.667201,89.6306276 L103.683597,89.5879565 L103.696714,89.5452854 L103.709831,89.5026143 L103.726227,89.4599432 L103.739345,89.4172721 L103.752462,89.374601 L103.765579,89.3319299 L103.778696,89.2892588 L103.788534,89.2465877 L103.801651,89.2039166 L103.814768,89.1612456 L103.827885,89.1185745 L103.841002,89.0759034 L103.85084,89.0332323 L103.860678,88.9872788 L103.873795,88.9446077 L103.883632,88.9019366 L103.89347,88.8559831 L103.906587,88.813312 L103.916425,88.7706409 L103.926263,88.7279699 L103.936101,88.6852988 L103.945938,88.6393453 L103.955776,88.5966742 L103.965614,88.5540031 L103.972173,88.5080496 L103.98201,88.4620961 L103.991848,88.419425 L103.998407,88.3734716 L104.008245,88.3308005 L104.018082,88.284847 L104.02792,88.2388935 L104.037758,88.1962224 L104.047596,88.1502689 L104.054154,88.1043154 L104.063992,88.058362 L104.070551,88.0156909 L104.080389,87.9730198 L104.086947,87.9270663 L104.093506,87.8811128 L104.100064,87.8351593 L104.106623,87.7892058 L104.113181,87.7432524 L104.11974,87.6972989 L104.126298,87.6513454 L104.129578,87.6053919 L104.136136,87.5627208 L104.139415,87.5167673 L104.145974,87.4708139 L104.152532,87.4281428 L104.159091,87.3821893 L104.16237,87.3362358 L104.16565,87.2902823 L104.168929,87.2443288 L104.172208,87.1983753 L104.178767,87.1524219 L104.182046,87.1064684 L104.185325,87.0605149 L104.188604,87.0145614 L104.191884,86.9686079 L104.195163,86.9226544 L104.198442,86.876701 L104.201721,86.8307475 L104.205001,86.784794 L104.20828,86.7388405 L104.211559,86.692887 L104.214839,86.6469335 L104.214839,86.5550266 L104.218118,86.5090731 L104.218118,41.0705973 L104.214839,41.0302238 L104.211559,40.9875528 L104.211559,40.9448817 L104.20828,40.9022106 L104.20828,40.8595395 L104.205001,40.8168684 L104.205001,40.7741973 L104.201721,40.7315262 L104.198442,40.6921375 L104.195163,40.6494664 L104.191884,40.6067953 L104.188604,40.5641242 L104.185325,40.5247355 L104.182046,40.4820644 L104.178767,40.4426757 L104.175487,40.4000047 L104.168929,40.3573336 L104.16565,40.3179449 L104.16237,40.2785562 L104.155812,40.2391675 L104.152532,40.1997788 L104.145974,40.1571077 L104.142695,40.117719 L104.136136,40.0783303 L104.129578,40.0356592 L104.126298,39.9929881 L104.123019,39.9535994 L104.11646,39.9174931 L104.103343,39.8311662 L104.093506,39.7474652 L104.080389,39.662123 L104.067271,39.5800632 L104.050875,39.4980034 L104.034479,39.4159436 L104.021362,39.3338838 L104.004965,39.2518241 L103.98529,39.1697643 L103.965614,39.0877045 L103.945938,39.0056447 L103.926263,38.9235849 L103.906587,38.8415251 L103.886912,38.7594653 L103.867236,38.6774055 L103.844281,38.5953457 L103.821326,38.5132859 L103.798371,38.4312261 L103.772137,38.3491664 L103.749182,38.270389 L103.722948,38.1916116 L103.696714,38.1128342 L103.67048,38.0340568 L103.644246,37.9552794 L103.614732,37.876502 L103.585219,37.7977246 L103.555705,37.7222295 L103.526192,37.6434521 L103.496679,37.5646747 L103.467165,37.4858973 L103.434373,37.4104023 L103.404859,37.3316249 L103.372066,37.2561299 L103.339274,37.1806349 L103.306481,37.1051399 L103.270409,37.0296449 L103.237616,36.9541499 L103.201544,36.8786549 L103.165472,36.8031599 L103.129401,36.7309473 L103.090049,36.6554523 L103.053977,36.5799573 L103.014626,36.5044622 L102.975275,36.4322496 L102.935924,36.360037 L102.896572,36.2878244 L102.857221,36.2156118 L102.81787,36.1433992 L102.775239,36.0711865 L102.732609,35.9989739 L102.689978,35.9267613 L102.644069,35.8545487 L102.601438,35.7856185 L102.558808,35.7166882 L102.512898,35.647758 L102.466988,35.5788278 L102.421078,35.5098976 L102.375169,35.4409673 L102.329259,35.3720371 L102.283349,35.3031069 L102.23416,35.2374591 L102.184971,35.1718112 L102.135782,35.1061634 L102.086593,35.0405156 L102.037404,34.9748677 L101.984936,34.9092199 L101.932467,34.8435721 L101.879999,34.7779242 L101.827531,34.7122764 L101.775062,34.649911 L101.719315,34.5875455 L101.666847,34.5251801 L101.611099,34.4628146 L101.555351,34.4004492 L101.499604,34.3380838 L101.443856,34.2757183 L101.388109,34.2133529 L101.329082,34.1542698 L101.270055,34.0951868 L101.211028,34.0361037 L101.152001,33.9770207 L101.092975,33.9179376 L101.030668,33.8588546 L100.968362,33.7997715 L100.906056,33.7439709 L100.84375,33.6881702 L100.781444,33.6323696 L100.719138,33.5765689 L100.656832,33.5207682 L100.591246,33.4649676 L100.525661,33.4124493 L100.460076,33.359931 L100.39777,33.3074128 L100.328905,33.2516121 L100.299391,33.2286354 L100.266599,33.2023762 L100.233806,33.1761171 L100.201013,33.149858 L100.168221,33.1235988 L100.135428,33.1006221 L100.102635,33.074363 L100.069843,33.0481038 L100.033771,33.0218447 L99.9976987,32.9955856 L99.964906,32.9693264 L99.9321133,32.9430673 L99.8993206,32.9168082 L99.866528,32.8938314 L99.8337353,32.8675723 L99.7976633,32.8413132 L99.7648706,32.8183364 L99.7320779,32.7953597 L99.696006,32.7691005 L99.659934,32.7461238 L99.6238621,32.7231471 L99.5910694,32.7001703 L99.5549974,32.6771936 L99.5189254,32.6542168 L99.4828535,32.6312401 L99.4467815,32.6082634 L99.4107096,32.5852866 L99.3746376,32.5623099 L99.3385657,32.5393331 L99.3024937,32.5163564 L99.2664217,32.4933796 L99.2303498,32.4736853 L99.1942778,32.4539909 L99.1516473,32.4310142 L62.0437681,10.6395443 L61.9912998,10.6073769 L61.9437504,10.5811177 L61.8945613,10.5515762 L61.8453723,10.5220347 L61.7971671,10.4947908 L61.747978,10.4685317 L61.7004286,10.4422726 L61.6512396,10.4160134 L61.6020506,10.3897543 L61.5528615,10.3634952 L61.5046563,10.337236 L61.4554672,10.3109769 L61.4062782,10.2847178 L61.3570892,10.2584586 L61.3079001,10.2321995 L61.2587111,10.2059404 L61.2095221,10.1796812 L61.1593493,10.1567045 L61.1101602,10.1304453 L61.0609712,10.1074686 L61.0117822,10.0844919 L60.9625931,10.0582327 L60.9117644,10.035256 L60.8625754,10.0122792 L60.8133864,9.9893025 L60.7622298,9.96632576 L60.7130408,9.94334902 L60.6638517,9.92365467 L60.6130231,9.90067793 L60.5631782,9.87770119 L60.5139891,9.85472445 L60.4631605,9.8350301 L60.4139714,9.81533575 L60.3615031,9.7956414 L60.3110024,9.77266466 L60.2591899,9.75297031 L60.2067216,9.72999356 L60.1542533,9.71029921 L60.1034247,9.69060486 L60.052596,9.67091051 L60.0011115,9.65121616 L59.9486432,9.63152181 L59.8961749,9.61182747 L59.8469858,9.59213312 L59.7977968,9.57572116 L59.7486078,9.5593092 L59.6961395,9.53961485 L59.6436712,9.52320289 L59.5944821,9.50679093 L59.5420138,9.49037897 L59.4895455,9.47396702 L59.4403565,9.45755506 L59.3878882,9.4411431 L59.3354199,9.42473114 L59.2829516,9.40831918 L59.2337625,9.39190722 L59.1812942,9.37549527 L59.1288259,9.35908331 L59.0763576,9.34267135 L59.0238893,9.32954178 L58.971421,9.31312983 L58.9189527,9.30000026 L58.8664844,9.2835883 L58.8140161,9.27045873 L58.7615478,9.25732917 L58.7090795,9.2441996 L58.6566112,9.22778764 L58.6041429,9.21465808 L58.5516746,9.20152851 L58.4992063,9.19168133 L58.446738,9.17855177 L58.3942697,9.1654222 L58.3418014,9.15229263 L58.2893331,9.14244546 L58.2368648,9.12931589 L58.1843965,9.11946872 L58.1319282,9.10962154 L58.0794599,9.09649198 L58.0269916,9.0866448 L57.9745233,9.07679763 L57.922055,9.06695045 L57.8695867,9.05710328 L57.8171184,9.0472561 L57.7646501,9.03740893 L57.7089025,9.02756175 L57.6564342,9.02099697 L57.6039659,9.01443219 L57.5514976,9.0078674 L57.4990293,9.00130262 L57.446561,8.99145544 L57.3940927,8.98160827 L57.3416244,8.97504349 L57.2858768,8.96519631 L57.2334085,8.95863153 L57.1809402,8.94878435 L57.1284719,8.94221957 L57.0760036,8.93565479 L57.0235353,8.92909 L56.971067,8.92252522 L56.9185987,8.91596044 L56.8628511,8.90939565 L56.8103828,8.90611326 L56.7579145,8.89954848 L56.7054462,8.89298369 L56.6529779,8.8897013 L56.6005096,8.88641891 L56.5480413,8.88313652 L56.495573,8.87985413 L56.4431047,8.87657174 L56.3873571,8.87328934 L56.3316095,8.87000695 L56.2791412,8.86672456 L56.2266729,8.86344217 L56.1742046,8.86344217 L56.1217363,8.86015978 L56.069268,8.85687739 L56.0135205,8.85687739 L55.9610522,8.85359499 L55.9085838,8.8503126 L55.8593948,8.84703021 L55.8069265,8.84374782 L55.6987106,8.84374782 L55.6462423,8.84046543 L55.5413057,8.84046543 L55.4885095,8.86245745 Z" id="Shape" fill="#C9177E"></path>
            <polygon id="Path" fill="#FFFFFF" points="31 97 31 29 45.2009953 29 45.2009953 53.7690377 68.7577323 53.7690377 68.7577323 29 83 29 83 97 68.7577323 97 68.7577323 67.2673101 45.2009953 67.2673101 45.2009953 97"></polygon>
        </g>
    </g>
</svg>