<?xml version="1.0" encoding="UTF-8"?>
<svg width="2500px" height="1302px" viewBox="0 0 2500 1302" version="1.1" xmlns="http://www.w3.org/2000/svg" xmlns:xlink="http://www.w3.org/1999/xlink">
    <!-- Generator: Sketch 52 (66869) - http://www.bohemiancoding.com/sketch -->
    <title>php-logo</title>
    <desc>Created with Sketch.</desc>
    <g id="Logos" stroke="none" stroke-width="1" fill="none" fill-rule="evenodd">
        <g id="php-logo">
            <ellipse id="Oval" fill="#8993BE" cx="1250" cy="650.683594" rx="1250" ry="650.683594"></ellipse>
            <path d="M351.025391,1035.95703 L488.017578,342.460938 L804.785156,342.460938 C941.767578,351.025391 1010.26367,419.511719 1010.26367,539.384766 C1010.26367,744.863281 847.597656,864.726562 702.041016,856.162109 L547.949219,856.162109 L513.701172,1035.95703 L351.025391,1035.95703 Z M582.1875,727.744141 L582.197266,727.744141 L684.931641,727.744141 C761.982422,719.179688 830.478516,693.496094 839.033203,547.939453 C839.033203,496.572266 796.230469,470.888672 736.298828,470.888672 L625,470.888672 L582.1875,727.744141 Z M978.4375,856.162109 L1115.41992,162.675781 L1278.0957,162.675781 L1243.84766,342.460938 L1397.94922,342.460938 C1534.94141,351.025391 1586.30859,419.511719 1569.18945,505.136719 L1509.25781,856.162109 L1338.02734,856.162109 L1397.95898,539.384766 C1406.51367,496.572266 1406.51367,470.888672 1346.5918,470.888672 L1218.16406,470.888672 L1141.11328,856.162109 L978.4375,856.162109 Z M1498.29102,1035.95703 L1635.27344,342.460938 L1952.05078,342.460938 C2089.04297,351.025391 2157.53906,419.511719 2157.53906,539.384766 C2157.53906,744.863281 1994.86328,864.726562 1849.31641,856.162109 L1695.20508,856.162109 L1660.95703,1035.95703 L1498.29102,1035.95703 Z M1729.44336,727.744141 L1729.45313,727.744141 L1832.19727,727.744141 C1909.24805,719.179688 1977.74414,693.496094 1986.29883,547.939453 C1986.29883,496.572266 1943.49609,470.888672 1883.56445,470.888672 L1772.25586,470.888672 L1729.44336,727.744141 Z" id="Shape" fill="#232531" fill-rule="nonzero"></path>
        </g>
    </g>
</svg>