<svg width="2500" height="1302" viewBox="0 0 2500 1302" xmlns="http://www.w3.org/2000/svg"><g fill="none" fill-rule="evenodd"><ellipse fill="#8993BE" cx="1250" cy="650.684" rx="1250" ry="650.684"/><path d="M351.025 1035.957l136.993-693.496h316.767c136.983 8.564 205.479 77.05 205.479 196.924 0 205.478-162.666 325.342-308.223 316.777H547.949l-34.248 179.795H351.025zm231.163-308.213h102.744c77.05-8.564 145.547-34.248 154.101-179.805 0-51.367-42.803-77.05-102.734-77.05H625l-42.813 256.855zm396.25 128.418l136.982-693.486h162.676l-34.248 179.785h154.101c136.992 8.564 188.36 77.05 171.24 162.676l-59.931 351.025h-171.23l59.931-316.777c8.555-42.813 8.555-68.496-51.367-68.496h-128.428l-77.05 385.273H978.436zm519.853 179.795l136.982-693.496h316.778c136.992 8.564 205.488 77.05 205.488 196.924 0 205.478-162.676 325.342-308.223 316.777h-154.11l-34.249 179.795h-162.666zm231.152-308.213h102.754c77.051-8.564 145.547-34.248 154.102-179.805 0-51.367-42.803-77.05-102.735-77.05h-111.308l-42.813 256.855z" fill="#232531" fill-rule="nonzero"/></g></svg>