<?xml version="1.0" encoding="UTF-8"?>
<svg width="100px" height="100px" viewBox="0 0 100 100" version="1.1" xmlns="http://www.w3.org/2000/svg" xmlns:xlink="http://www.w3.org/1999/xlink">
    <!-- Generator: Sketch 52 (66869) - http://www.bohemiancoding.com/sketch -->
    <title>Group 8</title>
    <desc>Created with Sketch.</desc>
    <g id="Logos" stroke="none" stroke-width="1" fill="none" fill-rule="evenodd">
        <g id="Group-8">
            <polygon id="Stroke-1" stroke-opacity="0.00784313771" stroke="#000000" stroke-width="1.33333335e-11" points="0 0 100 0 100 100 0 100"></polygon>
            <g id="Group-7" transform="translate(1.904762, 1.904762)" stroke="#FF003D" stroke-linecap="round" stroke-linejoin="round" stroke-width="4">
                <path d="M46.4660694,95.1785623 C46.8699902,95.7420485 47.4186031,96.0237876 48.1119043,96.0237876 C48.8052055,96.0237876 49.3538188,95.7420485 49.7577396,95.1785623 L95.4327323,31.2202353 C96.3237105,29.9622178 96.3126001,28.712217 95.3994014,27.4702371 L75.8202305,1.01190454 C75.4035622,0.456349045 74.8479993,0.178571304 74.1535577,0.178571304 L22.0785702,0.178571304 C21.3841264,0.178570804 20.8285694,0.456348299 20.4119032,1.01190379 L0.824404723,27.4535697 C-0.0887999679,28.6955516 -0.0999110214,29.9455523 0.791071575,31.2035698 L46.4660694,95.1785623 Z" id="Stroke-6" fill-opacity="0.181414176" fill="#FF003D"></path>
                <path d="M96.0243997,29.3452362 L0.195238003,29.3452362" id="Stroke-2"></path>
                <polyline id="Stroke-3" points="29.2702357 29.3494026 48.1119005 0.178571304 66.9535631 29.3494026"></polyline>
                <path d="M21.099403,0.424404685 L48.1119005,96.0118989" id="Stroke-4"></path>
                <path d="M75.1243981,0.424404685 L48.1119005,96.0118989" id="Stroke-5"></path>
            </g>
        </g>
    </g>
</svg>