<svg width="100" height="100" viewBox="0 0 100 100" xmlns="http://www.w3.org/2000/svg"><g fill="none" fill-rule="evenodd"><path stroke-opacity=".008" stroke="#000" stroke-width="0" d="M0 0h100v100H0z"/><g stroke="#FF003D" stroke-linecap="round" stroke-linejoin="round" stroke-width="4"><path d="M48.37 97.083c.405.564.953.846 1.647.846.693 0 1.242-.282 1.646-.846l45.674-63.958c.891-1.258.88-2.508-.033-3.75L77.725 2.917c-.417-.556-.972-.834-1.667-.834H23.983c-.694 0-1.25.278-1.666.834L2.729 29.358c-.913 1.242-.924 2.492-.033 3.75L48.37 97.083z" fill-opacity=".181" fill="#FF003D"/><path d="M97.93 31.25H2.1M31.175 31.254l18.842-29.17 18.841 29.17M23.004 2.33l27.013 95.587M77.03 2.33L50.016 97.916"/></g></g></svg>