<svg xmlns="http://www.w3.org/2000/svg" viewBox="0 0 24 24"><defs><style>.a{fill:none;stroke:#000;stroke-linecap:round;stroke-linejoin:round}</style></defs><title>cog-double-2</title><circle class="a" cx="8.5" cy="15.501" r="3"/><path class="a" d="M14.851 14.144l.711-.411a1 1 0 0 0 .366-1.366l-1-1.732a1 1 0 0 0-1.366-.366l-.708.409A6.539 6.539 0 0 0 10.5 9.324V8.5a1 1 0 0 0-1-1h-2a1 1 0 0 0-1 1v.821a6.442 6.442 0 0 0-2.356 1.356l-.707-.408a1 1 0 0 0-1.366.365l-1 1.732a1 1 0 0 0 .366 1.366l.712.412a6.476 6.476 0 0 0 0 2.713l-.712.411a1 1 0 0 0-.366 1.366l1 1.732a1 1 0 0 0 1.366.366l.708-.409A6.517 6.517 0 0 0 6.5 21.679v.821a1 1 0 0 0 1 1h2a1 1 0 0 0 1-1v-.82a6.471 6.471 0 0 0 2.356-1.355l.706.408a1 1 0 0 0 1.366-.366l1-1.732a1 1 0 0 0-.366-1.366l-.711-.41a6.469 6.469 0 0 0 0-2.715z"/><circle class="a" cx="19" cy="5.001" r="1.5"/><path class="a" d="M22.39 4.2l.574-.331a.5.5 0 0 0 .183-.683l-.5-.867a.5.5 0 0 0-.684-.183l-.573.332A3.462 3.462 0 0 0 20 1.656V1a.5.5 0 0 0-.5-.5h-1a.5.5 0 0 0-.5.5v.656a3.5 3.5 0 0 0-1.395.806l-.568-.329a.5.5 0 0 0-.684.183l-.5.867a.5.5 0 0 0 .184.683l.567.327a3.461 3.461 0 0 0 0 1.61l-.572.33a.5.5 0 0 0-.183.683l.5.867a.5.5 0 0 0 .684.183l.571-.331A3.469 3.469 0 0 0 18 8.348V9a.5.5 0 0 0 .5.5h1A.5.5 0 0 0 20 9v-.655a3.482 3.482 0 0 0 1.394-.807l.569.329a.5.5 0 0 0 .684-.183l.5-.867a.5.5 0 0 0-.183-.683l-.564-.328a3.465 3.465 0 0 0-.01-1.606z"/></svg>